<?xml version="1.0" encoding="UTF-8"?>
<!DOCTYPE svg PUBLIC "-//W3C//DTD SVG 1.1//EN" "http://www.w3.org/Graphics/SVG/1.1/DTD/svg11.dtd">
<!-- Creator: CorelDRAW -->
<svg xmlns="http://www.w3.org/2000/svg" xml:space="preserve" width="76.5442mm" height="88.0706mm" version="1.1" style="shape-rendering:geometricPrecision; text-rendering:geometricPrecision; image-rendering:optimizeQuality; fill-rule:evenodd; clip-rule:evenodd"
viewBox="0 0 1025.63 1180.08"
 xmlns:xlink="http://www.w3.org/1999/xlink"
 xmlns:xodm="http://www.corel.com/coreldraw/odm/2003">
 <defs>
  <style type="text/css">
   <![CDATA[
    .fil15 {fill:#000102}
    .fil0 {fill:#010202}
    .fil18 {fill:#240503}
    .fil13 {fill:#666686}
    .fil11 {fill:#898BAB}
    .fil10 {fill:#BFC1DE}
    .fil5 {fill:#C1C3DF}
    .fil12 {fill:#C2C4DF}
    .fil16 {fill:#DA9E83}
    .fil9 {fill:#DA9F85}
    .fil19 {fill:#DAA085}
    .fil17 {fill:#DC9F84}
    .fil4 {fill:#E8090C}
    .fil20 {fill:#F50907}
    .fil8 {fill:#FBD0A6}
    .fil14 {fill:#FDA100}
    .fil3 {fill:#FDCFA5}
    .fil7 {fill:#FDD0A5}
    .fil6 {fill:#FDFEFD}
    .fil1 {fill:#FEA100}
    .fil2 {fill:white}
   ]]>
  </style>
 </defs>
 <g id="Layer_x0020_1">
  <metadata id="CorelCorpID_0Corel-Layer"/>
  <g id="_1524420098096">
   <path class="fil0" d="M541.5 1075.47c0.92,2 2.33,4.41 2.66,6.31l-16.26 -0.21c0.16,-2.81 1.52,-3.56 2.8,-5.76l10.8 -0.35zm82.34 -6.43l3 -10.13c2.38,0.38 89.79,52.55 101.13,59.49 2.72,1.67 12.81,6.87 14.21,9.29 4.76,0.91 14.89,11.7 17.25,16.89 5.11,11.24 -2.1,18.57 -13.72,16.9 -13.14,-1.89 -34.46,-18.67 -43.78,-25.18 -22.87,-15.97 -47.94,-34.48 -71,-49.98 -3.24,-2.18 -7.58,-4.97 -10.22,-7.06l3.13 -10.22zm-111.49 3.13c-1.08,4.43 -9.23,13.92 -15.56,11.71 -1.96,-0.69 -6.95,-8.97 -8.89,-11.86 -1.38,-2.07 -2,-2.33 -2.43,-4.21 -2.02,-1.39 -5.07,-7.22 -6.53,-9.38 -2.06,-3.04 -3.75,-5.82 -6.12,-8.93 -8.37,-11.03 -5.29,-13.77 -3.54,-22.19 2.81,1.01 1.7,0.75 3.46,2.89l13.64 13.28c3.74,2.98 4.54,2.85 5.16,5.54 2.86,12.33 14.17,16.99 19.31,21.41 1.19,1.02 0.59,0.27 1.49,1.76zm-24.79 -51.42c-5.72,-8.2 -6.09,-13.32 -1.9,-23.4 8.55,-20.58 21.98,-41.69 31.45,-60.64 21.29,-1.77 53.74,7.19 72.24,13.14 10.59,3.41 21.13,7.33 31.23,11.42 1.64,0.67 27.44,11.72 28.27,13.72 2.59,1.55 3.31,4.71 4.42,7.53 3.16,7.97 5.26,18.68 5.78,27.39 0.88,14.85 -1.4,25.99 -3.94,39.78 -7.02,0.97 -23.37,-0.58 -26.67,-6.07 4.52,-1.81 7.66,-8.03 7.26,-15.35 -2.98,2.6 -6.92,10.42 -18.77,11.79 0.37,-1.81 10.55,-11.51 1.69,-19.04 -1.44,2.19 0.03,-0.04 -1.31,1.17 -0.1,4.35 -9.16,16.7 -11.56,20.07 -2.27,3.18 -4.24,5.82 -7.05,8.61 -4.68,4.64 -4.68,6.44 -9.26,5.13l-3.4 -0.6c0.58,2.3 1.62,2.72 2.74,4.79 3.21,5.92 3.11,12.05 4.71,15.75 3.37,-0.17 3.78,-1.27 4.84,-4.11 1.32,-3.55 6.73,-16.36 8.91,-17.41 5.3,-0.78 10.83,2.34 13.01,5.86l-10.07 15.24c-2.11,3.49 -1.97,4.95 -6.54,5.98 -12.72,2.87 -41.93,-2.99 -45.21,-14.45 -0.09,-9.9 3.58,-22.58 6.06,-31.63 1.37,-4.97 6.64,-24.69 8.56,-27.79 -0.34,-2.17 0.52,-1.01 -0.69,-1.97 -1.39,2.12 -2.99,3.58 -4.86,5.87 -9.72,11.91 -18.9,31.79 -24.99,45.76 -3.2,-0.13 -12.45,-0.61 -14.28,-2.35 -5.5,0.1 -13.49,-4.1 -15.14,-7.44 -2.17,-4.39 0.52,-13.74 1.89,-18.29 1.68,-5.58 9.32,-29.49 11.65,-32.24 -0.24,-2.43 0.71,-1.03 -0.64,-2.01 -5.39,3.25 -12.88,11.74 -16.49,16.86l-12.34 20.08c-2.81,-2.19 -7.7,-7.36 -9.6,-11.14zm-146.49 -52.62c0,-2.36 -0.72,-10.69 1.11,-10.77l20.91 16.37c2.81,2.72 2.96,4.47 8.72,3.98 2.84,-0.24 8.8,-0.8 11.43,-1.35 8.58,-1.79 19.2,-6.64 26.53,-11.04 9.23,-5.54 3.6,-6.8 23.26,6.14 10.12,6.66 20.47,13.27 29.82,19.52 0.35,5.09 -2.69,7.94 -2.79,12.84 -0.2,9.55 1.12,4.31 -3.36,10.98 -3.39,5.04 -6.71,14.71 -6.56,22.28 0.17,9.26 4.32,15.07 8.1,21.36l8.55 13.43c1.69,2.42 2.14,1.59 2.19,4.64 -3.62,-0.05 -14.33,-2.23 -18.05,-3.18 -18.35,-4.66 -29.82,-6.48 -49.52,-13.23 -7.82,-2.68 -56.01,-19.99 -58.77,-24.62 -1.32,-2.2 -2.31,-40.21 -1.85,-45.55l0.29 -21.81zm-91.32 5.01c0.31,-0.12 14.44,0.78 17.4,0.58 5.12,-0.35 11.2,-1.49 15.96,-2.77 16.45,-4.41 22.43,-10.83 26.03,-12.14 0.21,1.02 -3.53,55.16 -3.83,56.18 -5.31,-1.22 -41.01,-28.59 -49.71,-35.97 -2.53,-2.15 -5.31,-3.97 -5.85,-5.88zm452.71 24.07c3.88,4.93 2.95,36.79 2.24,45.51l-2.09 14.02c1.95,9.3 -5.29,10.33 -9.88,12.95 -4.45,2.54 -6.67,5.31 -14.86,-1.76 -1.65,-0.66 -3.49,-1.87 -5.07,-2.66 0.12,-5.09 1.79,-11.35 2.14,-16.92 1.36,-21.32 2.55,-30.66 -0,-53.8 -3.34,-30.26 -21.92,-47.51 -23.64,-51.85 -1.18,-0.65 -5.24,-3.8 -6.17,-5.72l20.64 -9.69c6.81,3.45 19.28,22.05 23.5,29.9 3.75,6.98 13.74,31.35 13.19,40.03zm-382.04 -171.9c3.42,1.11 20.8,11.46 25.38,14.01 17.74,9.87 53.64,31.2 71.04,39.23l2.96 1.82c8.89,2.42 6.29,40.31 4.32,48.94 0.02,2.98 3.52,3.83 5.68,5.28l46.52 29.86c-0.12,2.11 -1.93,6.17 -3.16,8.04 -0.07,0.1 -0.28,0.52 -0.33,0.42 -0.05,-0.1 -0.22,0.29 -0.35,0.41l-1.35 4.47c-3.59,-0.92 -18.21,-11.46 -22.26,-14 -2.95,-1.85 -19.67,-12.35 -20.65,-13.77 -2.4,-0.88 -4.18,-2.47 -6.26,-3.82 -1.99,-1.29 -3.57,-3.13 -6.34,-2.83 -8.81,6.3 -24.48,16.74 -37.69,18.98 -6.37,1.08 -6.92,-1.07 -10.28,-3.84 -25.51,-21.08 -62.32,-46.2 -89.05,-66.28 0.66,-6.75 13.36,-32.03 16.87,-37.41 6.24,-9.56 15.93,-22.47 23.68,-30.15 1.6,0.37 0.56,-0.6 1.26,0.63zm401.46 227.93c-0.09,-0.12 -0.16,-0.31 -0.19,-0.4l-0.42 -1.39c-0.04,-0.25 -0.1,-1.47 -0.11,-1.78 -0.41,-10.62 -0.28,-14.7 -1.91,-26.57 -1.38,-10.11 -3.66,-18.82 -5.18,-28.01 -3.93,-14.59 -8.29,-27.27 -14.54,-40.03 -3.05,-6.21 -6.34,-12.34 -9.89,-17.69 -2.04,-3.08 -3.4,-5.09 -5.66,-8.12 -0.88,-1.18 -5.08,-6.4 -5.51,-7.5 2.34,-2.42 38.39,-17.83 44.68,-20.38 35.56,-14.4 62.56,-27.53 101.84,-27.29 13.23,0.08 44.37,4.57 54.53,9.45 2.18,-0.26 1.01,0.52 1.99,-0.6 -8.72,-3.86 -10.3,-7.02 -27.1,-13.76 -54.52,-21.87 -87.64,1.74 -93.52,-0.44l-6.23 -4.17c-3.7,-0.92 -9.75,-6.95 -12.21,-9.44 -3.72,-3.76 -6.47,-6.81 -9.15,-12.8 -5.26,-11.75 -4.22,-24.13 -2.93,-37.15 -0.89,-1.61 0.34,-2.52 -1.72,0.67 -1.84,2.85 -2.84,6.98 -4.58,8.8 -1.82,-1.04 -2.61,-2.14 -4.21,-3.37 -1.66,-1.27 -2.74,-1.59 -3.84,-3.29 -1.96,-0.39 -3.58,-1.82 -5.91,-3.26l-17.33 -9.57c0.02,-4.76 2.57,-14.24 3.51,-19.71 3.8,-22.1 15.29,-72.26 21.52,-92.45 2.03,-6.57 8.73,-29.42 11.89,-33.1 32.48,9.32 42.62,27.01 62.22,51.08 12.73,15.64 25.52,33.48 38.16,49.59 9.81,12.5 45.52,60.29 55.08,70.27 3.98,4.17 7.58,8.81 11.46,13.61 13.98,17.3 31.01,47.7 27.89,72.18 -1.99,15.61 -7.89,26.44 -16.39,33.73 -17.42,14.93 -37.63,27.81 -59.14,41.13 -20.48,12.68 -41.63,25.26 -63.16,37.13 -13.08,7.21 -43.87,25.23 -56.41,31.33 -1.51,0.73 -2.52,1.22 -4.09,2.2 -3.9,2.43 -3.1,2.05 -3.43,1.09zm-209.24 -223.4c-22.68,-3.75 -38.24,-8.19 -58.63,-18.49 -6.02,-3.04 -28.65,-15.29 -29.95,-21.29 -2.06,-9.52 -5.42,-36.83 -4.74,-46.44 0.66,0.59 0.35,0.19 0.96,1.12l7.45 15.79c17.88,30.41 52.52,49.37 85.91,60.82 5.41,1.86 13.77,3.81 18.47,5.89 0.59,6.15 -3.03,4.5 -8.18,3.77 -3.85,-0.55 -7.64,-0.58 -11.3,-1.19zm-315.69 -107.13l21.23 -12.28c4.35,-2.66 18.31,-12.93 20.14,-13.03 6.75,13.76 43.41,109.11 48.34,123.96 6.09,18.35 4.41,14.38 -2.4,24.73 -5.25,7.98 -18.74,38.49 -18.95,50.05 5.45,3.79 11.69,8.6 17.12,12.83 3.02,2.35 5.5,4.38 8.39,6.65 1.59,1.25 2.62,1.98 4.24,3.28l4.23 3.7 2.1 1.65c-2.44,3.31 -10.09,8.49 -14.39,11.08 -44.44,26.72 -85.73,-17.36 -104.56,-55.47 -5.59,-11.32 -11.77,-22.41 -16.95,-33.85l-45.49 -104.54c23.42,-1.09 39.17,-3.81 60.19,-12.04 3.38,-1.33 14.84,-6.61 16.77,-6.73zm454.22 33.08c0.61,2.6 -3.39,29.37 -4.13,34.55 -1.5,10.56 -0.4,11.76 -5.09,14.2 -4.16,2.17 -8.37,4.15 -12.63,6.18 -9.69,4.62 -47.83,18.91 -59.02,18 -2.54,1.94 -17.16,2.62 -21.34,2.81 0.02,-4.88 1.06,-16.16 2.39,-20.44 11.03,-4.84 20.65,-8.62 30.88,-14.25 24.78,-13.65 44.63,-28.58 62.52,-49.67 2.08,-2.45 7.57,-10.86 9.81,-12.1l-3.39 20.72zm-219.37 -61.79c0.15,0.1 0.33,0.24 0.43,0.32l2.06 2.03c9.17,10.76 3.32,1.66 11.51,16.05 8.18,14.37 16.3,24.82 29.77,34.15 8.93,6.19 16.74,7.51 19.23,12.46 3.4,3.23 5.2,11.76 4.83,17.98 -0.3,5.06 -1.57,15.33 -4.35,18.73 -7.07,-1.4 -25.5,-14.4 -29.49,-18.08 -8.12,-7.5 -15.01,-15.02 -21.43,-25.59 -11.35,-18.68 -22.24,-51.64 -21.23,-73.53 1.92,1.72 3.08,5.6 4.5,8.18 1.2,2.19 3.71,5.29 4.15,7.32zm-238.61 20.93c-2.72,3.41 -27.6,11.39 -34.29,12.78 -12.49,2.58 -29.47,5.38 -43.02,3.73 -1.7,-1.71 -8.18,-17.94 -8.31,-20.31l-0.59 -0.79c-0.07,-0.11 -0.19,-0.28 -0.26,-0.41l-2.2 -5.42c14.73,-0.05 25.41,0.96 39.98,-1.26 24.68,-3.76 51.62,-16.59 68.48,-33.72 2.2,-2.24 8.34,-9.38 9.67,-10.22 1.31,1.44 6.72,15.6 8.01,18.82 1.62,4.03 3.58,5.95 0.96,8.75 -7.51,8.03 -27.56,24.25 -38.42,28.06zm808.36 -40.48c0.36,10.76 -12.44,12.02 -15.77,4.27 -4.03,-9.36 7.7,-15.64 13.5,-7.92 -1.39,4.17 -4.93,4.1 -6.23,7.77 1.74,0.77 2.97,0.23 4.13,-1.3 2.21,-2.91 0.73,-2.7 4.37,-2.82zm3.32 -7.76c3.37,1.47 3.35,-1.21 5.31,-2.97 3.3,-2.97 3.66,1.07 2.36,3.49 -6.43,12.02 -21.88,0.24 -14.2,-8.94 3.42,-4.08 9.48,-3.4 12.31,1.49 -1.29,3.17 -4.33,3.74 -5.78,6.93zm-703.41 84.61c-1.39,-4.45 -3.85,-11.52 -6.68,-14.3l20.61 -24.62c11.82,-13.24 30.9,-38.17 42.15,-47.48 4.37,-3.61 21.21,-15.58 27.66,-17.18l-0.49 9.17c-4.15,14.25 -5.48,78.07 -5.44,94.37 0.01,3.38 0.06,6.66 0.25,10.04 0.26,4.65 0.21,4.91 -2.12,7.47 -6.48,7.14 -9.4,12.52 -14.09,20.37l-2.16 2.24c-2.55,-4.9 -2.7,-16.49 -1.67,-22.46 1.75,-10.2 4.14,-11.66 6.13,-17.67 -7.46,3.71 -16.58,21.11 -19.17,31.73 -6.16,25.32 6.08,30.45 -1.59,42.2 -3.38,-1.09 -10.54,-5.33 -13.97,-7.3 -2.83,-1.62 -11.65,-6.87 -14.23,-7.31 -2.06,0.46 -9.12,8.69 -11.28,9.7 -1.31,-2.55 -1.39,-6.32 -2.13,-9.24 -0.8,-3.21 -1.66,-5.55 -2.67,-8.64l-10.94 -32.88c-1.66,-4.96 -4.46,-11.68 -5.6,-16.53 4.72,1.44 11.16,8.82 13.81,12.06 4.07,4.99 5.75,10.12 9.26,16.06 0.08,-7.18 -3.32,-23.51 -5.66,-29.82zm349.47 -62.89c-1.63,9.65 -13.1,29.28 -17.78,36.48 -14.62,22.5 -33.32,39.02 -55.59,53.5 -6.83,4.44 -27.66,16.52 -35.89,18.49 -5.39,-8.41 -4.46,-27.92 2.61,-39.87 1.96,-3.32 4.1,-7.54 7.66,-7.92 3.22,-3.71 74,-22.41 98.32,-98.58 5.67,-17.78 -0.1,-19.06 8.46,-17.54 1.4,7.32 -0.2,22.74 -1.41,30.22 -0.74,4.58 -1.57,8.64 -2.69,12.99 -0.56,2.16 -1.08,4.27 -1.65,6.53 -0.24,0.95 -0.46,1.8 -0.83,2.86l-1.21 2.83zm-61.17 19.16c-2.67,4.63 -25.54,18.8 -34,22.69 -8.86,4.07 -11.61,4.47 -18.13,10.07 -5.21,4.48 -7.55,9.19 -11.44,16.43 -3.14,9.15 -3.69,13.47 -3.62,23.96 0.03,4.74 3.97,20.76 3.47,22.05 -6.61,2.45 -12.73,-0.31 -16.31,-3.23 0.21,-2.39 3.25,-8.13 4.06,-12.79 3.12,-17.85 -2.24,-37.35 -19.41,-45.89 -13.11,-6.52 -18.43,-13.01 -26.36,-22.63 1.91,-0.11 9.22,1.93 12.11,2.38 4.08,0.64 10.13,0.88 14.42,1.04 26.08,0.07 47.5,-7.11 64.68,-19.27 12.88,-9.12 33.46,-27.62 42.9,-41.61 2.19,-2.34 2.22,-3.78 5.4,-5.36l21.35 -9.77c-2.44,12.51 -9.29,26.52 -15.16,35.38 -5.18,7.81 -13.06,17.49 -20.21,23.67l-3.76 2.87zm-46.2 138.95c27.73,0.05 52.69,-4.99 77.07,-12.56 11.22,-3.49 21.43,-7.98 31.68,-12.81 8.94,-4.22 9.91,-4.63 10.81,-11.67l5.53 -39.1c1.18,-6 2.25,-12.74 3.17,-18.65 2.03,-13.03 3.91,-25.75 6.36,-38.17 1.26,-6.38 1.68,-13.24 3.19,-19.41 1.43,-5.85 2.37,-12.62 3.38,-18.59 0.89,-5.27 6.14,-32.9 8.09,-36.32 3.68,-0.08 12.63,2.84 15.47,4.32 -0.07,1.77 -2.3,9.15 -3.06,11.8 -2.75,9.54 -6.02,25.67 -8.28,35.59 -0.97,4.22 -1.82,7.9 -2.75,12.32 -0.41,1.94 -0.89,4.32 -1.42,6.09 -2.93,9.94 -7.56,41.31 -10.41,54.71 -0.51,2.41 -0.17,4.57 -0.64,6.97l-2.1 12.82c-1.09,13.98 -5.01,51.79 4.31,58.19 3.55,-4.76 1.43,-18.23 5.01,-23.74 3.19,0.36 12.51,9.13 15.41,12.16 1.01,1.06 1.49,1.95 2.55,3.14 5.78,6.46 13.26,19.53 16.38,27.45 1.48,3.77 3.24,5.35 2.09,7.67 -3.26,0.62 -15.82,-6.98 -17.98,-8.67 -6.37,-4.99 -8.54,-7.83 -12.48,-14.52 -0.28,2.24 2.23,9.71 2.97,12.68 2.15,8.69 10.23,20.05 18.56,24.12 2.5,1.22 4.13,0.7 5.58,2.43 -0.72,1.37 -20.85,9.4 -22.41,10.02l-44.32 19.62c-9.62,4.8 -22.71,10 -33.22,15.05 -4.56,2.19 -6.32,4.51 -11.58,2.43 -7.79,-3.08 -16.04,-5.21 -24.69,-7.32 -16.41,-4 -38.85,-7.26 -56.69,-7.24 -6.09,0 -21.83,-0.58 -25.15,2.47l-7.98 9.56c-2.47,3.33 -5.56,6.79 -7.82,10.33 -3.56,5.59 -3.1,5.93 -7.27,10.01l-20.29 -13.34c-3.7,-2.31 -6.91,-4.38 -10.36,-6.57 -15.13,-9.59 -9.3,-2.56 -9.64,-26.85 -0.12,-8.51 -2.94,-27.47 -8.4,-32.84 -2.78,-2.74 -59.41,-30.12 -67.96,-34.84 0.02,-4.51 6.21,-17.52 7.85,-22.22 0.7,-2 1.58,-3.6 2.34,-5.2l4.68 -10.36c2.12,-4.88 0.73,-3.62 2.85,-4.85 1.86,2.71 4.81,27.77 13,32.97 0.31,-0.6 -2.43,-43.96 -2.43,-49.89 0,-14.58 1.3,-58.23 3.23,-71.36 0.62,-4.23 1.54,-12.41 1.75,-16.4 0.41,-7.85 5.05,-44.71 6.85,-47.47 2.36,1.2 3.83,5.19 5.32,7.69 2.07,3.48 2.03,5.47 1.28,11.37 -1.82,14.24 -2.93,58.55 -2.91,74.17 0.03,23.45 0.91,46.37 2.02,69.63 2.31,1.43 3.9,3.12 6.51,4.66 18.92,11.22 27.56,17.01 50.55,25.31 23.29,8.41 49.05,13.17 76.39,13.21zm-15.34 -218.09c-4.51,6.26 -20.67,9.39 -30.57,10.45 -14.32,1.53 -25.47,0.66 -39.55,0.36 -1.33,-1.05 -0.5,-0.09 -1.41,-1.68l-4.2 -11.81c6.19,-0.55 12.4,-1.16 18.04,-2.29l-0.9 -0.74c-0.1,-0.08 -0.32,-0.24 -0.41,-0.31 -0.11,-0.08 -0.55,-0.38 -0.72,-0.5 -3.01,0.57 -17.05,-1.39 -19.16,-2.71 -0.79,-0.49 -8,-12.28 -8.53,-13.52 3.01,-0.07 8.83,1.29 12.17,1.88 3.98,0.7 8.07,1.03 12.21,1.31 17.37,1.16 33.13,-0.73 49.83,-5.26l20.52 -6.83c0.78,-0.86 0.05,-0.23 1.12,-0.92l8.04 -3.92c2.57,-1.36 6.82,-4.31 8.79,-4.84 -2.65,13.8 -16.53,37.63 -25.26,41.33zm-100 -53.23c0.03,6.35 -2.4,6.43 1.89,10.6 2.78,2.7 4.72,2.84 2.53,6.84 -3.51,0.25 -7.73,-4.61 -8.94,-6.66l-2.57 1.46c-0.73,0.47 -0.89,0.62 -1.41,1.02 0.48,3.8 0.92,2.94 4.58,6.29 1.87,1.72 2.89,2.74 0.17,5.3 -2.37,-0.24 -4.11,-2.65 -5.75,-4.18 -4.76,-4.42 -5.92,0.3 -7.3,-4.54l-0.71 -3.05c-0.56,-1.42 -1.46,-2.06 -1.46,-4.38 0.01,-3.55 2.76,-5.59 6.43,-4.92 0.17,4.19 -1.15,2.28 -1.39,6.33 7.26,-0.18 7.3,-7.94 13.92,-10.11zm17.92 -0.45c0.85,2.06 0.17,3.71 -1.43,5.53 -5.02,5.72 -11.16,3.8 -13.8,-0.99 -5.36,-9.68 9.14,-17.09 12.9,-7.93 -1.31,2.75 -1.3,1.61 -3.47,3.9 -1.46,1.53 -2.4,1.83 -2.52,4.03 6.57,-0.49 3.64,-6.27 8.32,-4.54zm-257.74 -15.07c-0.03,-0.09 -0.12,0.33 -0.22,0.47 -10.9,-5.25 -25.89,-29.6 -19.38,-31.26 5.46,-1.4 5.69,0.99 11.29,6.7 3.72,3.79 9.51,6.74 15.1,8.62 -0.83,1.98 -1.2,1.93 -2.37,3.62 -3.49,5.05 -3,7.15 -4.05,10.88 -0.04,0.15 -0.14,0.38 -0.17,0.5 -0.04,0.12 -0.17,0.57 -0.2,0.48zm554.63 -105.97c8.44,-0.59 50.46,15.34 96.47,-6.98 43.19,-20.96 55.18,-51.29 58.76,-54.39l14.2 21.36c4.49,7.7 8.65,14.65 13.07,22.65 8.06,14.58 15.89,32.05 22.26,48.57 12.51,32.42 25.12,79.8 27.31,115.24 4.38,70.93 -0.17,121.57 -22.39,187.29 -2.97,8.79 -6.39,17.68 -9.92,25.81 -1.78,4.1 -9.31,21.81 -11.25,23.79l-51.85 -67.16c-8.46,-11.35 -17.65,-22.39 -26.16,-33.4 -15.77,-20.38 -62.93,-79.2 -81.7,-96.3 -10.57,-9.64 -23.12,-14.3 -39.53,-20.02 -7.23,-2.52 -15.27,-4.62 -22.87,-6.53l-24.13 -5.45c0.56,-1.96 1.69,-2.68 2.89,-4.38 4.53,-6.38 5.92,-12.81 7.22,-14.69 1.55,-2.25 7.93,-2.83 10.62,-3.77 3.31,-1.16 7.2,-2.74 10.25,-4.23 12.9,-6.29 23.22,-15.8 29.93,-27.73 10.69,-19.02 12.59,-49.48 2.24,-70.96 -1.56,-3.24 -3.33,-6.21 -5.34,-9.08 -2.33,-3.33 -4.85,-5.24 -6.42,-7.9 1.03,-2.7 4.6,-8.82 6.32,-11.73zm-681.18 -2.66c0.42,-4.52 6.88,-6.94 12.26,-6.93 15.24,0.01 23.73,13.23 30.56,25.88 8.94,16.57 17.16,36.95 14.13,59.89l0.44 1.86c3.18,-3.79 4.29,-4.01 6.86,-9.29 6.73,-13.81 2.32,-21.56 6.84,-25.75 4.95,-4.59 5.32,-6.87 8.49,-8.23 0.17,-0.24 0.05,-0.31 0.72,-0.81 3.17,-2.4 20.25,-0.13 25.47,0.29 9.68,0.78 15.52,2.19 21.21,7.56 8.53,8.06 21.26,12.07 26.97,16.27 2.79,2.06 4.15,7.49 1.9,10.86 -1.84,6.57 -9.12,12.3 -18.12,11.02 -8.74,-1.24 -14.16,-9.44 -17.2,-11.67l1.31 -4.45c-12.54,1.9 -17.15,4.22 -31.99,-0.59 -3.16,-1.03 -6.08,-2.98 -8.75,-3.59 1.28,9.7 4.72,10.58 8.54,14.16l-1.46 2.76c-1.46,3.96 -7.24,10.29 -10.23,11.23 0.63,0.64 0.12,1.07 3.36,0.5l9.94 -2.45c3.23,5.47 6.97,29.68 32.51,38.2 6.39,2.13 1.09,3.97 8,11.37l5.3 4.17c2.39,0.63 1.08,1.17 1.66,-0.62 -2.14,-0.6 -4.79,-7.24 -4.9,-11.2 2.22,0.95 4.25,4.37 6.72,6.4 2.47,2.04 4.3,3.19 7.72,4.67l3.23 0.2c-1.52,-2.97 -4.36,-6.12 -6.42,-10.02 -7.42,-14.03 -5.97,-29.24 5.72,-33.29 1.1,-1.7 4.7,-2.76 7.37,-3.31 7.71,-1.6 9.86,15.87 10.99,21.27 1.34,6.43 2.3,12.53 4.16,18.43 3.59,11.38 7.95,10.88 -15.23,24.15 -13,7.45 -24.93,20.21 -34.11,32.14 -1.04,2.23 -2.74,3.96 -3.18,6.74 3.05,-1.31 5.65,-4.94 9.33,-6.12 1.37,1.39 8.11,15.94 8.64,18.25 -2,3.46 -11.92,9.97 -16.71,12.62 -6.37,3.52 -12.59,6.08 -20.12,8.72 -10.59,3.72 -38.2,9.12 -50.22,7.52 -9.02,-27.6 -6.37,-19.54 -13.3,-24.27 -4.87,-3.33 -7.07,-6.29 -10.31,-11.65 -8.81,-14.58 -17.33,-51.61 -25.92,-62.45 -7.4,-9.34 -22.17,-20.7 -31.39,-27.52 -2.97,-2.19 -5.95,-4.19 -8.6,-6.45 -4.01,-3.42 -5.58,-4.91 -4.76,-7.88 0.04,-0.13 0.22,-0.22 0.26,-0.51 0.03,-0.29 0.16,-0.36 0.29,-0.5 1.45,-7.52 21.79,-6.54 34.76,3.42 4.19,3.22 8.79,7.82 11.82,12.01 2.08,2.88 8.39,11.4 8.67,14.96 0.14,-0.13 0.24,-0.34 0.3,-0.48 2.31,-5.16 -0.19,2.94 0.6,-1.57l-0.4 -5.73c-1.76,-14.55 -8.54,-31.3 -17.34,-42.26 -12.38,-15.42 -19.94,-17.92 -26.63,-24.76 -2.9,-2.96 -4.83,-8.71 -0.99,-11.69 0.88,-4.08 6.34,-5.34 12.1,-4.95 11.76,0.79 24.38,11.88 30.74,19.91 8.42,10.62 19.93,37.14 19.19,48.37 1.2,1.21 1.19,1.37 1.2,3.29 13,-23.61 -6.17,-63.63 -20.63,-84.02 -5.42,-7.64 -12.55,-13.95 -12.51,-20.36 0.01,-2.03 0.25,-2.76 1.18,-3.72zm334.73 32.26c-3.78,-14.45 2.26,-32.84 10.65,-39.52 11.17,-8.89 31.07,-7.61 34.8,6.54 -4.96,-2.26 -7,-4.89 -14.39,-4.98 -5.13,-0.07 -12.21,1.85 -14.17,5.05 0.01,0 10.33,2.49 5.37,9.37 -3.58,4.96 -8.55,2.44 -12.76,1 -1.41,8.9 -0.13,9.65 1.22,16.97 -1.63,1.21 -9.17,5.57 -10.7,5.58zm-2.44 21.06c1.22,-5.16 11.58,-10.77 18.81,-12.95 8.79,-2.65 19.31,-3.62 29.3,-2.98 -0.47,2.57 -2.43,8.84 -3.94,10.22 -3.97,13.6 -9.51,11.53 -15.6,19.54 -16.69,21.96 -7.91,26.22 -10.98,30.99 -1.27,1.97 -6.61,4.27 -10.86,14.84 -3.67,9.13 -4.09,19.55 -2.08,29.22 -2.73,-1.33 -3.1,-2.52 -4.35,-4.96 -1.51,-0.56 -5.45,-7 -6.75,-8.97 -2.37,-3.61 -3.9,-6.29 -5.94,-10.35 -13.17,-26.33 -14.07,-54.23 -8.46,-83.29 3.46,-17.92 2.29,-10.13 -2.78,-25.16 -3.4,-10.07 -4.13,-16.89 -1.8,-27.7l9.29 -39.54c1.25,-5.99 1.52,-10.13 4.56,-11.27 3.9,-2.44 16.23,-6.18 21.54,-7.75 7.74,-2.28 15.22,-3.89 23.27,-5.67 5.07,-0.53 11.03,-1.96 16.15,-2.41 42.15,-3.73 75.56,-2.35 117.26,9.41 31.44,8.87 70.54,26.59 95.89,47.61l1.92 2.29c1.19,1.36 1.58,11.22 1.71,13.64 1,18.39 7.71,73.77 12.38,89.68 1.33,-1.95 0.83,-3.78 1.89,-8.9 0.55,-2.64 0.64,-6.79 2.23,-8.42 -0.09,-7.89 9.45,-26.2 19.95,-31.42 21.54,-10.71 48.97,20.09 30.04,54.48 -4.54,8.24 -15.56,22.28 -26.51,23.72 -1.41,-1.21 -0.57,0.02 -1.29,-1.79 -0.2,-0.51 -0.25,-1.53 -0.29,-2.08 -0.12,-1.86 -0.15,-3 -0.43,-4.91 -0.36,-2.47 -0.34,-6.42 -1.75,-7.96 -0.74,1.27 -2.51,7.42 -3.15,9.14 -6.28,16.79 -23.39,45.51 -37.59,50.86 -1.12,2.86 -17.31,11.14 -22.08,13.59 -7.58,3.9 -16.86,7.98 -25.22,11.12 -3.47,1.3 -11.02,3.22 -12.74,5.44 -2.59,3.34 -4.48,7.46 -7.12,11.04 -9.5,12.86 -14.19,18.84 -25.24,29.29 -14.77,13.98 -40,28.1 -61.27,29.45 -8.39,0.53 -25.11,0.41 -31.46,-3.42 -8.45,-1.83 -18.65,-9.7 -22.6,-14.85 -12.55,-16.38 -15.22,-30.95 -23.25,-49.46 -4.43,-10.21 -12.44,-22.34 -12.87,-23.42 4.67,0.34 10.68,3.1 14.29,5.07 10.23,5.58 10.29,8.05 16.42,22.46 0.96,2.27 4.09,11.76 5.87,13.03 3.65,2.16 26.44,2.58 32.39,2.69 62.91,1.24 66.89,-26.81 73.68,-31.92 0.25,-2.45 4.85,-11.48 6.26,-14.83 2.37,-5.65 3.03,-10.41 6.46,-14.87 2.85,-3.71 6.81,-8.48 10.14,-11.16l12.12 -8.8c-1.26,-16.05 -14.51,-37.92 -30.63,-44.88 -12.73,-5.5 -3.26,1.1 -11.16,-7.57 -11.26,-12.36 -33.33,-8.06 -37.46,4.21 5.17,-1.48 8.07,-3.95 15,-1.85 18.73,5.68 12.23,30.54 3.42,31.69 -0.64,0.73 -0.25,0.41 -1.19,1.06 -2.55,1.75 -8.36,1.98 -11.27,1.98 1.15,-2.18 0.76,-1.1 2.76,-2.95 0.48,-0.44 1.83,-2.07 2.19,-2.83 1.22,-2.56 0.93,-4.11 -0.52,-6.16l-1.29 -1.61c-14.67,1.68 -13.96,4.85 -26.9,16.73 -15.53,14.26 -27.9,6.6 -32.43,6.21 -4.18,1.4 -8.57,10.52 -16.01,3.92 -5.99,-5.3 -0.54,-12.12 2.14,-16.32l0.58 -0.61c-3.31,-1.63 -4.82,-6.86 -10.41,-6.79 -0.95,4.35 -3.24,-0.42 0.68,10.28 -18.92,-7.43 -7.19,-32.91 0.77,-34.31 1.94,-2.62 4.03,-1.66 6.1,-4.11 0.7,-0.82 1.22,-2.08 1.85,-3.13 1.09,-1.83 0.49,-1.32 2.19,-2.52 0.09,-2.91 8.6,-20.02 10.09,-36.41 2.67,-29.4 -4.1,-33.97 -5.02,-40.82 -4.66,-3.21 -2.04,-6.54 -12.11,-10.07 -6.06,-2.13 -12.44,-2.66 -19.18,-1.89 -24.04,2.77 -39.22,25.18 -38.28,49.7 0.6,15.71 4.43,19.16 4.59,28.84 0.05,3.19 0.47,6.64 1.94,8.71 2.02,-2.74 1.24,-4.23 4.12,-6.14zm283.16 -157.75l13.69 12.77c5.63,5.4 37.28,38.16 37.67,42.74 -0.65,2.48 -3.33,6.78 -4.53,9.43 -1.41,3.11 -2.58,5.91 -3.92,9.22 -2.83,6.97 -4.48,13.26 -6.84,20.13l-16.7 -16.99c-1.99,-1.91 -4.2,-3.26 -5.67,-5.89l-28.31 -22.19c-59.78,-40.4 -120.67,-57.7 -194.98,-55.73 -17.97,0.48 -46.84,5.35 -63.92,11.27 -4.29,1.49 -15.34,5.99 -18.9,6.55 1.03,-4.39 5.84,-13.91 7.94,-18.16 9.37,-18.99 15.03,-30.39 27.47,-48.38 3.53,-5.11 7,-9.98 11.01,-14.68 6.34,-7.43 3.95,-5.13 18.44,-6.35 20.78,-1.75 51.25,0.5 71.79,4.01 33.3,5.68 65.62,15.71 95.03,31.56 5.05,2.72 29.77,16.42 30.46,18.84 5.24,1.82 15.17,11.22 18.1,11.86 5.83,0.21 2.74,-4.02 7.47,-7.3 4.61,-3.19 8.6,-0.15 10.32,2.58 -1.26,4.41 -5.5,3.3 -5.88,8.2 6.13,-0.34 3.88,-3.99 7.58,-5.15 3.25,4.03 -3.53,8.76 -7.31,11.65zm-543.11 124.72c0.42,-3.56 7.87,-18.47 9.83,-22.49 20.33,-41.73 52.16,-85.88 86.16,-118.8l42.28 -36.7c10.99,-8.71 24.14,-17.38 37.2,-25.47 24.62,-15.25 18.51,-11.95 29.17,-3.84 17.48,13.28 30.09,18.35 52.39,25.91 -0.63,2.17 -5.35,8.81 -6.94,11.19 -10.96,16.4 -24.28,41.44 -31.12,59.75 -3.29,8.81 -7.84,17.69 -4.07,28.27 2.24,6.28 1.08,8.34 -0.23,15.06 -4.18,21.45 -8.97,21.77 -5.66,45.31 0.94,6.66 7.72,26.21 7.41,29.01 -1.18,10.58 -3.23,21.65 -3.24,32.66 -0.02,23.94 4.16,46.12 13.87,65.12 6.63,12.98 14.23,22.46 22.52,33.27 1.38,1.8 2.79,3.5 4.12,5.28 1.37,1.84 3.05,2.97 3.34,5.42 -3.17,1.36 -6.57,2.44 -9.87,3.86 -2.91,1.25 -6.37,2.88 -9.43,4.36 -32.92,15.92 -36.76,27.43 -58.99,51.3 -2.22,2.39 -3.53,4.03 -6.53,7.26 -5.36,5.79 -28.85,32.54 -32.82,35.76 -2.86,-5.48 -5.84,-15.84 -8.39,-22.28l-21.96 -54.5c-0.88,-2.16 -3.23,-8.96 -4.28,-10.59 -4.53,-0.62 -7.67,-0.06 -11.93,0.49 -3.49,0.45 -8.01,1.63 -10.79,1.75 -0.76,-1.87 -1.64,-3.1 -1.6,-5.53 6.71,-4.46 14.41,-9.08 22.87,-12.73 4.94,-2.13 8.16,-2.77 11.35,-6.21 3.03,-3.27 4.55,-7.16 4.54,-13.03 -0.01,-10.8 -5.2,-22.9 -8.26,-32.5l-10.42 -30.18c3.58,-3.81 6.37,-6.57 6.61,-14.42 0.17,-5.66 -0.98,-13.29 -4.11,-17.06 -2.05,-2.48 -19.19,-15.89 -23.27,-19.36 -3.86,-3.28 -7.57,-6.11 -11.73,-9.56 -3.37,-2.8 -2.85,-2.06 -7.77,-2.92 -14.88,-2.6 -31.11,-6.92 -46.38,-6.93 -12.26,-0.01 -9.18,2.52 -13.89,4.07zm348.4 -367.29c0.96,-6.02 12.17,-19.57 15.8,-23.51 37.28,-40.41 98.75,-46.86 150.52,-33.11 36.4,9.66 76.08,28.71 103.42,53.82 28.8,26.45 50.13,56.68 58.72,98.08 2.5,12.04 3.57,23.23 3.53,36.08 -0.02,7.4 -1.09,29.51 -3.35,35.1l-0.2 3.15c1.86,-1.47 2.07,-2.42 3.58,-4.76 5.21,-8.09 9.5,-16.05 12.94,-25.28 1.36,-3.65 2.21,-7.99 3.72,-11.29 2.75,-0.1 4.36,1.37 6.67,2.67 3,1.68 4.32,1.78 5.76,3.86 1.55,0.28 0.21,-0.24 2.07,0.83 0.6,0.34 1.12,0.77 1.86,1.28 41.82,29.14 51.09,77.17 27.25,123.28 -17.88,34.6 -57.98,71.83 -115.98,62.56 -0.43,-2.11 1.41,-4.53 2.52,-6.11 6.92,-0.81 12.58,-0.26 19.8,-1.59 5.89,-1.09 10.74,-2.57 15.83,-4.83 14.5,-6.45 21.16,-16.76 23.57,-17.8 1.41,-4.22 6.93,-9.41 8.91,-17.73 -2.43,1 -6.56,3.9 -9.25,5.51 -2.5,1.5 -5.98,3.34 -9.13,4.68 -14.56,6.24 -30.13,9.07 -46.48,7.73 -11.49,-0.94 -8.33,-0.21 -15.96,-11.65 -7.71,-11.56 -15.84,-21.31 -23.98,-31.18 -3.99,-4.84 -8.92,-9.84 -13.17,-14.41 -2.39,-2.58 -4.35,-4.46 -6.96,-6.83 -2.18,-1.99 -5.67,-4.51 -7.15,-6.98 -2.36,-1.25 -13.73,-11.6 -17.66,-14.59 -6.09,-4.64 -11.83,-8.87 -18.55,-13.41 -12.59,-8.52 -26.07,-16.4 -41.01,-23.55 -5.69,-2.72 -18.22,-7.5 -21.97,-10.63 -17.56,-14.63 -35.31,-43.59 -21.89,-66.29 -1.56,-1.98 0.55,-0.78 -1.5,-0.61 -2.73,0.23 -13.89,10.1 -16.74,20.82 -4,15.04 1.88,24.95 3.94,34.5 -6.14,-0.78 -14.56,-3.47 -21.24,-4.98 -7.11,-1.61 -14.19,-2.9 -21.43,-4.08 -16.21,-2.66 -30.65,-3.53 -47.31,-4.45 -12.59,-0.69 -25.94,-13.94 -31.34,-19.87 -7.49,-8.23 -11.97,-21.7 -11.49,-33.87 0.28,-7.12 0.78,-4.97 -1.02,-5.82 -0.26,1.64 -2.81,4.3 -3.98,6.22 -18.47,30.47 3.77,49.71 5.02,53.8 -2.6,-0.16 -9.3,-2.59 -10.62,-3.77 -6.91,-1.44 -18.31,-8.69 -22.4,-12.18 -6.39,-5.46 -11.03,-10.1 -15.98,-17.88 -10.26,-16.13 -12.64,-33.65 -10.31,-56.2 -3.75,2.83 -9.66,14.31 -11.99,20.14 -3.57,8.93 -4.87,17.32 -4.33,28.2 3.2,17.18 8.22,29.03 20.78,41.29 8.16,7.96 16.75,14.07 27.67,19.33 2.78,1.34 7.96,3.06 10.21,4.39 -9.1,3.53 -35.66,-7.68 -42.21,-11.85 -12.39,-7.9 -19.44,-15.44 -27.58,-27.61 -15.74,-23.53 -19.09,-60.87 -9.14,-90.9 17.61,-53.17 70.49,-84.72 142.8,-75.7 2.91,0.22 7.86,0.48 10.05,1.93 -0.17,2.48 -2.15,6.94 -2.92,9.94 -2.37,9.29 -2.75,14.06 -2.64,23.91l0.3 9.79c0.92,3.26 -0.67,1.19 1.58,2.39zm-181.72 112.55c-1.75,1.39 -5.68,3.32 -7.82,4.58 -12.52,7.34 -28.4,17.44 -39.89,25.91 -62.85,46.34 -109.1,98.32 -146.53,168.09 -2.49,4.64 -6.92,12.83 -8.56,17.78 -4.67,-0.87 -10.6,-7.68 -23.96,-7.55 -18.11,0.18 -35.68,12.91 -30.3,31.47 2.59,8.94 11.02,13.95 13.41,18.57 -4.21,-1.22 -13.94,-9.35 -29.48,-5.66 -13.42,3.19 -25.24,16.52 -26.27,28.2 -0.64,7.23 1.35,9.24 6.13,12 7.18,4.15 16.37,11.4 20.68,16.14 -1.68,1.47 -1.3,0.65 -4.9,1.35 -1.52,0.3 -3.36,0.88 -4.88,1.41 -19.23,6.67 -24.24,30.54 -11.19,37.8 6.76,3.76 10.24,5.53 16.01,9.7 10.43,7.55 18.31,16.14 26.46,24.32 3.33,3.34 1.94,4.99 1.59,10.29 -4.78,72.7 8.15,144.58 31.88,208.22 8.92,23.93 21.02,47.81 32.99,68.54 15.69,27.18 33.14,50.89 53,74.22 26.37,30.97 60.64,61.09 94.46,84.17 39.72,27.11 84.64,49.06 138.52,65.2 13.33,3.99 26.77,6.81 40.82,9.9 14.47,3.19 29.19,4.48 43.96,6.75 8.41,1.29 39.25,2.59 48.43,2.65 16.65,0.1 33.09,-1.26 49.41,-2.33 15.03,-0.99 29.94,-4.01 44.39,-6.33 3.52,-0.56 7.01,-1.33 10.39,-2.08 5.44,-1.22 5.49,-2.15 9.25,0.49 17.21,12.09 61.8,45.03 75.7,52.16 45.8,23.5 59.08,-14.23 53.49,-30.91 -5.39,-16.09 -24.65,-29.56 -38.89,-37.58l-13.95 -7.98c-2.07,-1.43 -0.9,0.12 -1.79,-2l29.8 -13.51c20.86,-10.17 35.82,-19.19 54.88,-31.59 9.06,-5.9 17.19,-12.15 25.6,-18.27l11.91 -9.4c6.97,-4.97 30.87,-19.08 40.15,-25.03 18.19,-11.66 35.81,-23.65 50.38,-36.74 12.49,-11.22 18.75,-25.63 21.47,-43.14 1.32,-8.53 -0.2,-13.27 -0.6,-21.02 -0.22,-4.18 11.82,-23.73 14.53,-28.94 51.12,-98.41 67.25,-216.98 43.11,-326.86 -11.39,-51.83 -23.95,-81.21 -46.66,-126.91 -10.5,-21.13 -28.13,-47.3 -42.23,-65.57 -2.41,-3.12 -8.69,-9.42 -8.74,-13.25 -0.09,-7.02 1.46,-13.43 0.96,-21.38 -0.4,-6.49 -1.29,-13.53 -2.3,-19.76 -6.89,-42.18 -39.25,-80.69 -80.08,-94.22 -1.54,-21.64 -3.08,-32.9 -10.08,-51.99 -5.69,-15.5 -13.2,-28.84 -21.3,-40.75 -34.58,-50.8 -85.73,-86.17 -148.28,-99.91 -35,-7.69 -77.46,-8.79 -110.47,2.71 -11.85,4.13 -21.2,8.46 -30.93,15.43 -1.98,1.42 -2.26,1.61 -4.24,3.28 -5.09,4.32 -5.35,2.18 -17.09,-0.96 -55.98,-14.96 -116.32,-7.32 -157.1,30.45 -16.24,15.05 -29.86,34.19 -37.4,55.99 -9.51,27.5 -11.85,51.39 -5.41,80.2 0.92,4.09 2.2,8.34 3.51,12.18 1.04,3.05 3.75,8.81 4.04,11.47zm159.23 349.42l-13.87 -12.39c-2.69,4.2 -8.13,11.01 -2.14,16.32 7.44,6.59 11.83,-2.53 16.01,-3.92zm-13.94 8.72c-4.68,-1.72 -1.75,4.06 -8.32,4.54 0.12,-2.2 1.06,-2.5 2.52,-4.03 2.17,-2.29 2.17,-1.15 3.47,-3.9 -3.76,-9.17 -18.26,-1.75 -12.9,7.93 2.65,4.79 8.78,6.71 13.8,0.99 1.6,-1.82 2.28,-3.47 1.43,-5.53zm-31.84 10.56c0.24,-4.05 1.56,-2.14 1.39,-6.33 -3.67,-0.66 -6.42,1.38 -6.43,4.92 -0.01,2.33 0.9,2.96 1.46,4.38l0.71 3.05c1.38,4.84 2.54,0.12 7.3,4.54 1.64,1.53 3.38,3.93 5.75,4.18 2.72,-2.56 1.7,-3.58 -0.17,-5.3 -3.66,-3.35 -4.11,-2.49 -4.58,-6.29 0.51,-0.41 0.67,-0.55 1.41,-1.02l2.57 -1.46c1.21,2.04 5.43,6.9 8.94,6.66 2.19,-4.01 0.25,-4.14 -2.53,-6.84 -4.28,-4.17 -1.85,-4.24 -1.89,-10.6 -6.62,2.18 -6.67,9.94 -13.92,10.11zm587.26 89.12c-3.64,0.13 -2.15,-0.08 -4.37,2.82 -1.16,1.53 -2.39,2.06 -4.13,1.3 1.3,-3.67 4.84,-3.59 6.23,-7.77 -5.8,-7.72 -17.52,-1.44 -13.5,7.92 3.33,7.74 16.12,6.49 15.77,-4.27zm3.32 -7.76c1.45,-3.19 4.49,-3.77 5.78,-6.93 -2.83,-4.88 -8.9,-5.57 -12.31,-1.49 -7.68,9.18 7.77,20.96 14.2,8.94 1.29,-2.42 0.94,-6.46 -2.36,-3.49 -1.96,1.76 -1.94,4.44 -5.31,2.97zm-339.77 -330.03l2.69 2.7c3.2,2.43 5.93,5.33 9.49,7.28 3.78,-2.88 10.56,-7.62 7.31,-11.65 -3.7,1.16 -1.46,4.81 -7.58,5.15 0.39,-4.89 4.62,-3.79 5.88,-8.2 -1.71,-2.74 -5.71,-5.78 -10.32,-2.58 -4.73,3.27 -1.64,7.5 -7.47,7.3z"/>
   <path class="fil1" d="M743 453.72c-1.72,2.91 -5.29,9.03 -6.32,11.73 1.56,2.66 4.09,4.58 6.42,7.9 2.01,2.87 3.78,5.84 5.34,9.08 10.35,21.48 8.45,51.95 -2.24,70.96 -6.71,11.93 -17.03,21.44 -29.93,27.73 -3.05,1.49 -6.94,3.06 -10.25,4.23 -2.69,0.95 -9.07,1.52 -10.62,3.77 -1.3,1.88 -2.69,8.3 -7.22,14.69 -1.2,1.7 -2.33,2.42 -2.89,4.38l24.13 5.45c7.59,1.91 15.64,4.01 22.87,6.53 16.4,5.72 28.95,10.38 39.53,20.02 18.76,17.1 65.92,75.92 81.7,96.3 8.52,11.01 17.7,22.04 26.16,33.4l51.85 67.16c1.94,-1.98 9.47,-19.69 11.25,-23.79 3.53,-8.13 6.95,-17.02 9.92,-25.81 22.23,-65.72 26.78,-116.37 22.39,-187.29 -2.19,-35.44 -14.8,-82.82 -27.31,-115.24 -6.37,-16.53 -14.2,-34 -22.26,-48.57 -4.43,-8 -8.58,-14.95 -13.07,-22.65l-14.2 -21.36c-3.58,3.1 -15.57,33.44 -58.76,54.39 -46.01,22.32 -88.03,6.39 -96.47,6.98z"/>
   <path class="fil2" d="M482.55 104.06c-0.55,1.54 -0.08,0.21 -0.59,1.27 -2.34,4.91 -2.39,11.22 -2.51,16.63 -0.53,22.83 8.14,43.13 20.47,61.2 6.44,9.44 22.47,28.52 29.5,31.85 2.14,-7.88 3.33,-10.32 7.41,-16.37 2.47,-3.65 7.93,-8.03 13.08,-10.17 6.02,-2.51 12.94,-3.66 19.94,-3.67 4.58,-0.01 16.62,0.85 19.94,2.98 -1.63,1.8 -5.12,2.65 -7.27,3.9 -3.83,2.23 -3.03,2.63 -4.92,4.5l-0.82 0.67c-0.07,-0.12 -0.29,0.24 -0.45,0.32 -13.42,22.69 4.33,51.65 21.89,66.29 3.76,3.13 16.29,7.9 21.97,10.63 14.94,7.15 28.42,15.03 41.01,23.55 6.72,4.55 12.46,8.78 18.55,13.41 3.92,2.99 15.3,13.34 17.66,14.59 9.68,1.1 17.91,6.89 38.57,6.69 19.19,-0.19 34.83,-8.84 47.98,-20.07l5.79 -5.5c7.61,-7.63 13.97,-16.22 18.79,-26.31 2.52,-5.27 1.14,-4.26 1.47,-6.81 0,-0.03 -0.25,-1.41 1.18,-3.12 2.26,-5.59 3.33,-27.71 3.35,-35.1 0.04,-12.85 -1.03,-24.04 -3.53,-36.08 -8.59,-41.4 -29.92,-71.63 -58.72,-98.08 -27.34,-25.11 -67.02,-44.16 -103.42,-53.82 -51.77,-13.75 -113.24,-7.3 -150.52,33.11 -3.64,3.94 -14.84,17.49 -15.8,23.51z"/>
   <path class="fil2" d="M716.01 807.96c2.47,0.07 0.81,0.62 4.53,-3.18 3.01,-3.07 8.89,-8.65 12.48,-10.45 -0.37,2.08 -1.01,3.21 -1.34,5.27 -0.35,2.26 -0.04,3.97 -1.32,5.56 -1.28,13.01 -2.32,25.39 2.93,37.15 2.68,5.99 5.43,9.04 9.15,12.8 2.45,2.48 8.5,8.51 12.21,9.44 1.91,-0.49 0.57,0.77 1.73,-5.15 2.15,-10.97 13.22,-18.44 23.79,-21.32 15.38,-4.18 31.12,-2.2 45.45,2.16 13.37,4.07 25.41,10.59 34.75,17.26 6.03,4.3 22.75,19.98 24.14,28.52 -3.45,-0.82 -3.16,-0.85 -5.01,-2.49 -10.16,-4.87 -41.3,-9.37 -54.53,-9.45 -39.28,-0.24 -66.27,12.89 -101.84,27.29 -6.3,2.55 -42.35,17.96 -44.68,20.38 0.44,1.09 4.63,6.31 5.51,7.5 2.26,3.04 3.62,5.05 5.66,8.12 3.55,5.35 6.84,11.48 9.89,17.69 6.26,12.75 10.62,25.43 14.54,40.03l1.85 1.23c7.93,-2.92 16.44,-7.06 24.67,-10.44 30.74,-12.61 68.57,-28.65 97.66,-43.38 16.03,-8.11 30.31,-16.25 44.93,-25.87l20.81 -14.97c-2.01,24 -27.6,46.16 -43.04,57.31 -10.61,7.66 -25.6,16.9 -36.97,23.83 -16.56,10.12 -33.18,20 -50.28,29.96 -5.12,2.98 -46.84,27.36 -51.52,29.02l-0.3 11.44c0.33,0.96 -0.47,1.34 3.43,-1.09 1.57,-0.98 2.58,-1.46 4.09,-2.2 12.55,-6.1 43.33,-24.12 56.41,-31.33 21.53,-11.87 42.68,-24.46 63.16,-37.13 21.52,-13.32 41.73,-26.2 59.14,-41.13 8.5,-7.29 14.4,-18.12 16.39,-33.73 3.12,-24.48 -13.91,-54.88 -27.89,-72.18 -3.88,-4.8 -7.48,-9.44 -11.46,-13.61 -9.55,-9.99 -45.27,-57.77 -55.08,-70.27 -12.64,-16.11 -25.43,-33.96 -38.16,-49.59 -19.6,-24.07 -29.74,-41.76 -62.22,-51.08 -3.16,3.68 -9.86,26.54 -11.89,33.1 -6.23,20.18 -17.72,70.35 -21.52,92.45 -0.94,5.47 -3.49,14.95 -3.51,19.71l17.33 9.57c2.32,1.44 3.94,2.87 5.91,3.26z"/>
   <path class="fil3" d="M516.99 483.67c0.84,-6.06 -0.03,-18.43 0.31,-25.76l3.09 -22.54 0.4 -1.04c-0.01,-6.29 2.45,-12.46 4.67,-17.7 1.11,-2.6 2.3,-5.1 3.8,-7.47 1.49,-2.34 3.45,-3.9 3.28,-6.82 1.65,-4.99 2.58,-7.9 5.44,-10.78 2.22,-2.23 5.45,-4.3 9.54,-5.5 8.9,-2.61 17.5,-1.81 25.45,1.7 13.23,5.86 22.01,17.88 25.03,35.06 1.81,2.39 1.05,2.76 1.09,3.12 0.01,0.04 -0.01,2.27 0.04,2.86 0.14,1.74 0.61,3.58 0.85,5.33 0.49,3.6 0.88,7.49 0.92,11.07 0.02,3.17 3.12,10.55 3.75,15.62 1.79,14.45 -0.18,21.03 -3.54,33.33 -1.26,4.61 0.02,11.96 -3.16,15.83 -4.44,-14.01 -16.87,-22.14 -32.47,-26.42 -17.95,-4.93 -33.29,-3.83 -48.76,2.97l0.26 -2.87zm-89.66 -115.08l-2.44 17.33c-9,0.21 -12.55,-1.93 -20.93,2.63 -3.95,2.15 -9.58,8.47 -10.84,11.26 -2.06,4.55 -0.6,1.65 0.33,2.58 3.91,-5.82 11.91,-11.1 22.88,-10.83 5.02,0.13 9.23,2 12.36,4.46 4.19,3.3 3.66,5.94 6.36,9.26l3.51 2.81c5.21,5.14 14.86,20.32 14.46,27.14 0.93,6.85 7.69,11.42 5.02,40.82 -1.49,16.39 -10,33.5 -10.09,36.41 0.21,10.36 -3.69,26.9 11.88,34.2 8.35,3.92 19.48,4.64 28.12,0.44 3.69,-1.8 4.57,-3.01 7.56,-4.79 -5.39,18.71 -33.04,24 -47.87,9.91 -1.64,0.1 -0.71,-0.63 -0.87,0.8l-0.58 0.61 13.87 12.39c4.53,0.39 16.9,8.04 32.43,-6.21 12.94,-11.88 12.23,-15.05 26.9,-16.73 3.16,0.19 4.84,1.32 6.62,3.2 2.75,2.91 1.11,4.93 2.69,7.32 8.81,-1.16 15.3,-26.01 -3.42,-31.69 -6.92,-2.1 -9.82,0.37 -15,1.85 4.13,-12.27 26.2,-16.57 37.46,-4.21 7.9,8.67 -1.57,2.07 11.16,7.57 16.11,6.96 29.37,28.83 30.63,44.88l-12.12 8.8c-3.34,2.68 -7.3,7.45 -10.14,11.16 -3.42,4.46 -4.09,9.22 -6.46,14.87 -1.41,3.35 -6.01,12.38 -6.26,14.83 -2.21,10.65 -11.74,24.34 -20.4,30.58 -3.62,2.61 -6.88,4.05 -11.14,6.42 6.42,4.56 12.54,3.42 15.52,17.92 -6.83,-2.05 -7.27,-5.1 -22.42,-8.05 -14.27,-2.78 -40.08,-1.25 -48.73,9.07 -7.38,8.81 -0.72,14.2 3.23,20.44 6.34,3.83 23.06,3.95 31.46,3.42 21.27,-1.35 46.5,-15.47 61.27,-29.45 11.04,-10.46 15.73,-16.43 25.24,-29.29 2.65,-3.58 4.53,-7.7 7.12,-11.04 1.72,-2.22 9.27,-4.14 12.74,-5.44 8.36,-3.14 17.64,-7.22 25.22,-11.12 4.77,-2.45 20.96,-10.74 22.08,-13.59 7.61,-14.07 11.74,-19.98 12.09,-39.55 0.28,-15.92 -2.32,-30.96 -5.07,-45.87 -5.78,-31.32 -10.76,-57.86 -4.22,-90.61l-1.92 -2.29c-25.35,-21.02 -64.45,-38.74 -95.89,-47.61 -41.7,-11.77 -75.11,-13.15 -117.26,-9.41 -5.12,0.45 -11.08,1.88 -16.15,2.41z"/>
   <path class="fil4" d="M543.54 846.52c-27.34,-0.03 -53.1,-4.8 -76.39,-13.21 -22.99,-8.3 -31.63,-14.09 -50.55,-25.31 -2.61,-1.55 -4.2,-3.24 -6.51,-4.66 -1.11,-23.27 -1.99,-46.18 -2.02,-69.63 -0.02,-15.62 1.09,-59.93 2.91,-74.17 0.75,-5.9 0.8,-7.89 -1.28,-11.37 -1.49,-2.5 -2.96,-6.49 -5.32,-7.69 -1.8,2.76 -6.44,39.62 -6.85,47.47 -0.21,3.99 -1.13,12.17 -1.75,16.4 -1.93,13.12 -3.23,56.78 -3.23,71.36 0,5.93 2.74,49.29 2.43,49.89 -8.18,-5.2 -11.13,-30.26 -13,-32.97 -2.12,1.23 -0.73,-0.03 -2.85,4.85l-4.68 10.36c-0.77,1.6 -1.65,3.2 -2.34,5.2 -1.64,4.7 -7.83,17.71 -7.85,22.22 8.56,4.71 65.18,32.1 67.96,34.84 5.46,5.37 8.28,24.32 8.4,32.84 0.34,24.29 -5.49,17.26 9.64,26.85 3.45,2.19 6.65,4.26 10.36,6.57l20.29 13.34c4.17,-4.09 3.7,-4.42 7.27,-10.01 2.26,-3.54 5.35,-7 7.82,-10.33l7.98 -9.56c3.32,-3.05 19.06,-2.47 25.15,-2.47 17.84,-0.02 40.28,3.24 56.69,7.24 8.65,2.11 16.9,4.24 24.69,7.32 5.25,2.08 7.02,-0.24 11.58,-2.43 10.51,-5.06 23.6,-10.25 33.22,-15.05l44.32 -19.62c1.56,-0.62 21.69,-8.65 22.41,-10.02 -1.45,-1.73 -3.08,-1.21 -5.58,-2.43 -8.33,-4.07 -16.41,-15.43 -18.56,-24.12 -0.74,-2.97 -3.25,-10.44 -2.97,-12.68 3.94,6.69 6.11,9.52 12.48,14.52 2.16,1.69 14.72,9.29 17.98,8.67 1.15,-2.32 -0.61,-3.9 -2.09,-7.67 -3.11,-7.92 -10.6,-21 -16.38,-27.45 -1.07,-1.19 -1.54,-2.09 -2.55,-3.14 -2.9,-3.03 -12.22,-11.8 -15.41,-12.16 -3.59,5.51 -1.47,18.98 -5.01,23.74 -9.32,-6.4 -5.39,-44.21 -4.31,-58.19l2.1 -12.82c0.47,-2.39 0.13,-4.56 0.64,-6.97 2.85,-13.4 7.47,-44.77 10.41,-54.71 0.52,-1.77 1.01,-4.15 1.42,-6.09 0.93,-4.42 1.78,-8.09 2.75,-12.32 2.27,-9.92 5.53,-26.05 8.28,-35.59 0.77,-2.65 3,-10.03 3.06,-11.8 -2.84,-1.49 -11.79,-4.41 -15.47,-4.32 -1.95,3.43 -7.21,31.05 -8.09,36.32 -1,5.97 -1.94,12.74 -3.38,18.59 -1.51,6.16 -1.93,13.03 -3.19,19.41 -2.45,12.42 -4.33,25.14 -6.36,38.17 -0.92,5.9 -1.99,12.65 -3.17,18.65l-5.53 39.1c-0.9,7.05 -1.87,7.46 -10.81,11.67 -10.25,4.84 -20.46,9.32 -31.68,12.81 -24.38,7.58 -49.35,12.62 -77.07,12.56z"/>
   <path class="fil5" d="M353.64 197.16c-0.54,-10.88 0.76,-19.27 4.33,-28.2 2.33,-5.83 8.24,-17.31 11.99,-20.14 -2.34,22.55 0.04,40.07 10.31,56.2 4.96,7.78 9.59,12.42 15.98,17.88 4.08,3.49 15.49,10.74 22.4,12.18 -0.1,-0.18 -0.27,-0.62 -0.34,-0.5l-7.24 -7.06c-7.17,-6.55 -14.21,-22.07 -11.05,-32.85 3.58,-12.21 25.05,-24.62 33.14,-26.19 -0.94,4.81 -4.12,7.4 -4.93,10.35 1.8,0.85 1.3,-1.3 1.02,5.82 -0.48,12.17 3.99,25.64 11.49,33.87 5.4,5.93 18.74,19.18 31.34,19.87 16.66,0.92 31.1,1.79 47.31,4.45 7.25,1.19 14.32,2.47 21.43,4.08 6.69,1.51 15.1,4.2 21.24,4.98 -2.06,-9.55 -7.94,-19.46 -3.94,-34.5 2.85,-10.72 14.01,-20.59 16.74,-20.82 2.05,-0.18 -0.06,-1.37 1.5,0.61 0.16,-0.09 0.38,-0.45 0.45,-0.32l0.82 -0.67c1.88,-1.87 1.09,-2.27 4.92,-4.5 2.15,-1.25 5.64,-2.1 7.27,-3.9 -3.33,-2.14 -15.36,-2.99 -19.94,-2.98 -7,0.01 -13.93,1.17 -19.94,3.67 -5.15,2.14 -10.61,6.52 -13.08,10.17 -4.09,6.06 -5.28,8.49 -7.41,16.37 -7.03,-3.33 -23.06,-22.41 -29.5,-31.85 -12.33,-18.07 -21,-38.37 -20.47,-61.2 0.13,-5.41 0.18,-11.72 2.51,-16.63 0.51,-1.06 0.03,0.26 0.59,-1.27 -2.25,-1.2 -0.66,0.87 -1.58,-2.39l-0.3 -9.79c-0.11,-9.85 0.27,-14.62 2.64,-23.91 0.77,-3 2.75,-7.46 2.92,-9.94 -2.19,-1.45 -7.15,-1.71 -10.05,-1.93 -0.15,1.52 0.81,0.68 -1.85,1.53 -0.96,0.31 -2.81,0.46 -3.87,0.58 -14.34,1.66 -34.42,6.98 -47.12,12.47 -12.49,5.4 -21.89,10.76 -32.22,18.57 -28.43,21.51 -45.2,55.18 -40.1,92.98 0.94,6.93 1.18,2.71 1.36,10.55 0.05,2.18 -0.02,2.42 1.26,4.38z"/>
   <path class="fil6" d="M690.97 418.04c2.23,1.02 0.45,0.36 1.22,-0.23 -1.65,-12.46 -12.16,-40.13 -17.31,-51.13 -6.1,-13.03 -14.78,-25.66 -23.81,-36.33 -0.74,-0.87 -1.23,-1.57 -1.93,-2.41l-2.14 -3.15c-0.68,-2.42 -25.41,-16.12 -30.46,-18.84 -29.41,-15.85 -61.72,-25.88 -95.03,-31.56 -20.55,-3.51 -51.01,-5.76 -71.79,-4.01 -14.49,1.22 -12.11,-1.09 -18.44,6.35 -4.01,4.7 -7.48,9.57 -11.01,14.68 -12.44,17.98 -18.09,29.39 -27.47,48.38 -2.1,4.24 -6.9,13.77 -7.94,18.16 3.56,-0.55 14.61,-5.06 18.9,-6.55 17.08,-5.93 45.94,-10.8 63.92,-11.27 74.31,-1.97 135.2,15.33 194.98,55.73l28.31 22.19z"/>
   <path class="fil6" d="M299.27 922.6c-3.98,-0.7 -10.43,1.62 -15.33,2.02 -12.64,1.03 -35.72,-3.38 -42.34,-9.78 0.32,-4.78 11.46,-20.47 5.58,-54.07 -3.4,-19.42 -24.71,-71.58 -32.56,-93.38l-15.14 -39.98c-0.76,-2.06 -0.63,-3.9 -2.53,-4.71 -1.93,0.12 -13.39,5.41 -16.77,6.73 -21.02,8.23 -36.77,10.95 -60.19,12.04l45.49 104.54c5.18,11.44 11.35,22.53 16.95,33.85 18.83,38.12 60.13,82.19 104.56,55.47 4.3,-2.59 11.95,-7.76 14.39,-11.08l-2.1 -1.65z"/>
   <path class="fil5" d="M811.19 270.52c-1.42,1.7 -1.17,3.09 -1.18,3.12 -0.33,2.54 1.05,1.54 -1.47,6.81 -4.82,10.09 -11.18,18.68 -18.79,26.31l-5.79 5.5c-13.15,11.23 -28.79,19.89 -47.98,20.07 -20.66,0.2 -28.88,-5.59 -38.57,-6.69 1.49,2.46 4.97,4.99 7.15,6.98 2.6,2.36 4.56,4.25 6.96,6.83 4.25,4.57 9.18,9.57 13.17,14.41 8.14,9.87 16.26,19.62 23.98,31.18 7.63,11.44 4.47,10.7 15.96,11.65 16.35,1.34 31.92,-1.49 46.48,-7.73 3.14,-1.35 6.62,-3.19 9.13,-4.68 2.68,-1.6 6.82,-4.51 9.25,-5.51 -1.98,8.32 -7.49,13.51 -8.91,17.73 3.11,-1.52 5.5,-4.05 7.79,-5.99 16.73,-14.14 27.68,-42.43 31.5,-64.39 2.81,-16.15 2.79,-33.51 -0.99,-49.42 -1.8,-7.55 -3.75,-13.51 -6.65,-20.26 -1.4,-3.25 -3.05,-6.11 -4.59,-9.21 -2.74,-5.51 -5.52,-6.99 -3.98,-8.36 -1.44,-2.08 -2.76,-2.18 -5.76,-3.86 -2.31,-1.29 -3.93,-2.76 -6.67,-2.67 -1.5,3.3 -2.36,7.64 -3.72,11.29 -3.44,9.23 -7.73,17.19 -12.94,25.28 -1.51,2.34 -1.72,3.29 -3.58,4.76l0.2 -3.15z"/>
   <path class="fil7" d="M487.56 1020.74c2.09,-1 1.09,-0.24 2.29,-2.93l4.65 -8.48c1.88,-3.1 5.36,-7.76 7.57,-9.98 4.8,-4.83 10.78,-7.79 18.27,-7.98 2.76,-0.07 5.69,-0.2 7.99,1.2 -0.1,1 0.04,1.25 -0.37,2.39 -0.58,1.6 -0.41,1.06 -1.31,1.99 -2.33,2.74 -9.97,26.66 -11.65,32.24 -1.37,4.55 -4.06,13.9 -1.89,18.29 1.65,3.34 9.64,7.54 15.14,7.44l1.47 -0.33c2.26,-10.98 7.97,-25.85 12.33,-35.34 2.78,-6.05 5.19,-10.5 11.04,-12.81 1.86,-0.74 19.94,-5.02 21.18,-1.33 0,4.92 0.23,0.74 -1.21,2.5 -1.92,3.09 -7.2,22.82 -8.56,27.79 -2.48,9.05 -6.16,21.73 -6.06,31.63 13.53,0.3 19.71,-18.42 24.94,-28.38 1.05,-2 1.92,-3.89 2.86,-5.91 3.47,-7.39 0.6,-5.54 17.19,-7.38 -1.07,6.35 -3.39,12.28 -5.9,16.79 -1.33,2.39 -2.63,4.38 -4.04,6.62 -1.33,2.1 -3.95,4.41 -4.03,7.22 4.59,1.31 4.59,-0.49 9.26,-5.13 2.82,-2.79 4.78,-5.44 7.05,-8.61 2.4,-3.36 11.46,-15.72 11.56,-20.07 -0.25,-6.29 0.1,-10.88 -0.75,-17.43 -0.53,-4.04 -2.96,-12.13 -2.62,-15.14 11.78,-1.82 17.89,-0.08 29.03,-8.55 2.25,-1.71 5.96,-4.13 5.88,-6.07 -0.83,-2 -26.63,-13.05 -28.27,-13.72 -10.1,-4.1 -20.64,-8.02 -31.23,-11.42 -18.5,-5.95 -50.95,-14.91 -72.24,-13.14 -9.48,18.95 -22.9,40.06 -31.45,60.64 -4.19,10.08 -3.82,15.2 1.9,23.4z"/>
   <path class="fil4" d="M341.07 968.13l-0.29 21.81c-0.46,5.34 0.54,43.34 1.85,45.55 2.76,4.63 50.95,21.93 58.77,24.62 19.7,6.75 31.17,8.57 49.52,13.23 3.71,0.94 14.43,3.13 18.05,3.18 -0.04,-3.05 -0.5,-2.23 -2.19,-4.64l-8.55 -13.43c-3.78,-6.29 -7.92,-12.1 -8.1,-21.36 -0.14,-7.56 3.18,-17.23 6.56,-22.28 4.48,-6.67 3.16,-1.43 3.36,-10.98 0.1,-4.9 3.15,-7.75 2.79,-12.84 -9.35,-6.25 -19.7,-12.86 -29.82,-19.52 -19.66,-12.94 -14.02,-11.69 -23.26,-6.14 -7.33,4.4 -17.95,9.25 -26.53,11.04 -2.63,0.55 -8.59,1.11 -11.43,1.35 -5.76,0.48 -5.91,-1.27 -8.72,-3.98l-20.91 -16.37c-1.82,0.08 -1.11,8.41 -1.11,10.77z"/>
   <path class="fil8" d="M61.82 451.06l-0.21 2.48c8.62,5.48 24.8,23.19 30.6,33.9 5.87,10.85 10.46,24.18 11.72,37.12 0.49,5 0.3,10.2 0.88,14.96 4.16,0.24 4.14,-1.52 8.32,-1.64 -0.7,8.6 -2.51,10.76 -8.14,14.26 -3.33,2.07 -2.52,3.16 -3.11,7.54 -1.88,13.83 -10.89,26.53 -22.29,31.64 -0.21,5.04 11.83,36.58 14.51,44.08 4.16,11.64 8.26,19.12 18.65,24.55 7.23,3.78 5.35,1.53 12.35,2.18 8.63,2.15 39.95,-13.12 32.4,-47.49 -1.22,-5.53 -6.21,-16.61 -9.39,-18.19 -2.77,-1.14 -0.06,0.15 -1.5,-0.89l-2.86 -2.26c-1.84,-1.03 -2.89,-1.05 -4.37,-2.49 3.76,-3.32 12.75,-4.29 18.37,-2.82 7.35,1.93 10.37,6.89 13.49,8.62l8.16 -10.19c-3.17,-2.41 -6.92,-3.14 -10.33,-5.97 -3.1,-2.56 -5.38,-4.67 -8.11,-8.19 -6.75,-8.67 -7.45,-14.18 -10.95,-21.53 -5.34,-0.47 -8.97,-0.62 -13.32,-4.95 -0.09,-0.08 -0.23,-0.24 -0.3,-0.32 -0.08,-0.08 -0.23,-0.27 -0.28,-0.34 -0.06,-0.06 -0.23,-0.15 -0.27,-0.35 -0.04,-0.2 -0.19,-0.23 -0.26,-0.36 0.79,-0.65 1.41,-1.06 2.15,-1.59l2.05 -1.31c2.99,-0.94 8.77,-7.27 10.23,-11.23 -1.36,-1.45 -0.07,-1.01 -1.86,-0.32 -0.2,0.08 -1.71,1.28 -1.84,1.39 -16.49,12.62 -31.59,4.03 -27.52,-1.46 3.03,-22.94 -5.19,-43.32 -14.13,-59.89 -6.83,-12.65 -15.32,-25.87 -30.56,-25.88 -5.38,-0 -11.84,2.41 -12.26,6.93z"/>
   <path class="fil5" d="M196.94 722.7c1.9,0.81 1.77,2.65 2.53,4.71l15.14 39.98c7.85,21.8 29.16,73.96 32.56,93.38 5.88,33.6 -5.26,49.29 -5.58,54.07 6.63,6.4 29.71,10.81 42.34,9.78 4.9,-0.4 11.35,-2.72 15.33,-2.02l-4.23 -3.7c-1.62,-1.3 -2.65,-2.03 -4.24,-3.28 -2.89,-2.27 -5.37,-4.3 -8.39,-6.65 -5.43,-4.23 -11.67,-9.04 -17.12,-12.83 0.22,-11.56 13.71,-42.07 18.95,-50.05 6.81,-10.35 8.49,-6.39 2.4,-24.73 -4.93,-14.85 -41.59,-110.2 -48.34,-123.96 -1.83,0.1 -15.79,10.37 -20.14,13.03l-21.23 12.28z"/>
   <path class="fil9" d="M92.6 555.87c0.36,3.89 0.02,6.36 -2.02,9.44 -1.03,1.56 -1.37,2.11 -2.56,3.68 -1.4,1.84 -1.06,1.97 -3.28,2.73 -1.08,-1.92 -0.26,-0.04 -0.8,-2.16l-2.27 -12.02c-1.93,-8.27 -5.78,-16.75 -9.97,-23.88 -5.8,-9.85 -14.86,-19.4 -23.64,-25.88 -4.62,-3.41 -17.37,-8.93 -17.49,-15.24 -3.84,2.98 -1.91,8.72 0.99,11.69 6.69,6.85 14.25,9.34 26.63,24.76 8.8,10.96 15.58,27.71 17.34,42.26l0.4 5.73c-0.8,4.51 1.7,-3.59 -0.6,1.57 -0.06,0.13 -0.16,0.35 -0.3,0.48 -0.58,5.57 0.3,5.46 -2.69,9.32 -3.3,-0.8 -5.95,-5.59 -12.06,-10.67 -3.95,-3.29 -8.74,-6.78 -13.44,-9.75 -6.94,-4.38 -25.05,-13.45 -27.05,-19.28 -0.13,0.14 -0.26,0.21 -0.29,0.5 -0.03,0.29 -0.22,0.37 -0.26,0.51 -0.82,2.98 0.75,4.47 4.76,7.88 2.66,2.26 5.63,4.25 8.6,6.45 9.22,6.81 24,18.17 31.39,27.52 8.59,10.85 17.11,47.88 25.92,62.45 3.24,5.36 5.44,8.32 10.31,11.65 6.93,4.73 4.28,-3.32 13.3,24.27 12.03,1.6 39.63,-3.8 50.22,-7.52 7.53,-2.64 13.75,-5.2 20.12,-8.72 4.79,-2.65 14.71,-9.17 16.71,-12.62 -0.53,-2.31 -7.27,-16.86 -8.64,-18.25 -3.69,1.18 -6.28,4.81 -9.33,6.12 0.44,-2.78 2.14,-4.51 3.18,-6.74 -1.54,-0.72 -1.32,-1.08 -0.25,-6.91 3.1,-17.02 20.24,-27.42 26.94,-34.39 -1.38,-1.34 -4.25,-1.85 -6.27,-2.98 -1.03,-0.57 -2.37,-1.39 -2.94,-2l-1.39 -1.88c-0.13,-0.15 -0.27,-0.29 -0.4,-0.43 -0.14,-0.15 -0.33,-0.31 -0.45,-0.43 -0.12,-0.13 -0.3,-0.31 -0.48,-0.43 -0.57,1.79 0.74,1.25 -1.66,0.62l-5.3 -4.17c-6.91,-7.4 -1.61,-9.24 -8,-11.37 -25.54,-8.52 -29.28,-32.72 -32.51,-38.2l-9.94 2.45c-3.23,0.57 -2.73,0.14 -3.36,-0.5l-2.05 1.31c-0.75,0.53 -1.37,0.94 -2.15,1.59 0.07,0.13 0.22,0.16 0.26,0.36 0.04,0.19 0.21,0.28 0.27,0.35 0.06,0.07 0.21,0.26 0.28,0.34 0.07,0.08 0.22,0.23 0.3,0.32 4.35,4.33 7.98,4.47 13.32,4.95 3.5,7.35 4.2,12.86 10.95,21.53 2.73,3.51 5.02,5.62 8.11,8.19 3.42,2.83 7.17,3.56 10.33,5.97l-8.16 10.19c-3.12,-1.73 -6.14,-6.69 -13.49,-8.62 -5.62,-1.48 -14.61,-0.51 -18.37,2.82 1.47,1.44 2.53,1.46 4.37,2.49l2.86 2.26c1.45,1.04 -1.27,-0.25 1.5,0.89 0.7,-1.78 -0.72,-2.03 4.88,2.59 32.05,26.46 10.51,86.84 -25.81,68.42 -2.58,-1.31 -4.15,-2.8 -6.37,-3.65 0.16,-0.13 0.43,-0.44 0.53,-0.28 0.11,0.15 0.39,-0.21 0.53,-0.27l3.23 -1.14c-7,-0.65 -5.12,1.6 -12.35,-2.18 -10.4,-5.43 -14.49,-12.91 -18.65,-24.55 -2.68,-7.5 -14.72,-39.04 -14.51,-44.08 11.39,-5.11 20.41,-17.81 22.29,-31.64 0.59,-4.38 -0.22,-5.47 3.11,-7.54 5.63,-3.5 7.45,-5.66 8.14,-14.26 -4.18,0.12 -4.16,1.88 -8.32,1.64 -0.58,-4.77 -0.39,-9.96 -0.88,-14.96 -1.27,-12.93 -5.85,-26.27 -11.72,-37.12 -5.8,-10.71 -21.98,-28.42 -30.6,-33.9l0.21 -2.48c-0.93,0.95 -1.16,1.69 -1.18,3.72 -0.04,6.41 7.1,12.73 12.51,20.36 14.47,20.39 33.63,60.41 20.63,84.02 -0.01,-1.92 0,-2.08 -1.2,-3.29z"/>
   <path class="fil5" d="M301.45 751.29c2.34,6.32 5.74,22.65 5.66,29.82 -3.5,-5.94 -5.19,-11.07 -9.26,-16.06 -2.65,-3.24 -9.09,-10.62 -13.81,-12.06 1.14,4.85 3.94,11.57 5.6,16.53l10.94 32.88c1.01,3.09 1.86,5.43 2.67,8.64 0.73,2.93 0.81,6.69 2.13,9.24 2.16,-1.01 9.22,-9.24 11.28,-9.7 2.58,0.44 11.41,5.69 14.23,7.31 3.44,1.97 10.59,6.21 13.97,7.3 7.67,-11.75 -4.57,-16.88 1.59,-42.2 2.58,-10.62 11.71,-28.02 19.17,-31.73 -2,6.01 -4.39,7.47 -6.13,17.67 -1.02,5.97 -0.88,17.56 1.67,22.46l2.16 -2.24c4.69,-7.86 7.61,-13.23 14.09,-20.37 2.32,-2.56 2.37,-2.82 2.12,-7.47 -0.19,-3.38 -0.24,-6.66 -0.25,-10.04 -0.04,-16.3 1.29,-80.13 5.44,-94.37l-6.59 9.19c-4.99,7.93 -9.28,20.43 -10.19,30.02 -0.09,0.96 -0.12,2.51 -0.25,3.37 -1.08,7.14 -9.78,1.3 -9.86,1.23 -2.25,-2.09 -2.17,-5.77 -2.29,-9.63 -2.31,0.76 -2.27,1.8 -3.84,3.75l-30.3 33.6c-2.84,3.92 -17.87,21.97 -19.94,22.88z"/>
   <path class="fil10" d="M714.06 995.08c1.52,9.19 3.79,17.9 5.18,28.01 1.62,11.87 1.49,15.95 1.91,26.57 0.01,0.31 0.07,1.53 0.11,1.78l0.42 1.39c0.03,0.09 0.11,0.28 0.19,0.4l0.3 -11.44c4.68,-1.66 46.4,-26.04 51.52,-29.02 17.1,-9.96 33.71,-19.84 50.28,-29.96 11.36,-6.94 26.36,-16.17 36.97,-23.83 15.45,-11.15 41.04,-33.32 43.04,-57.31l-20.81 14.97c-14.61,9.62 -28.9,17.75 -44.93,25.87 -29.09,14.73 -66.91,30.76 -97.66,43.38 -8.23,3.37 -16.74,7.52 -24.67,10.44l-1.85 -1.23z"/>
   <path class="fil11" d="M297.32 892.91c-1.48,-4.78 2.82,-10.35 7.7,-9.06l31.76 21.54c4.96,3.49 40.54,26.89 41.37,29.6 1.71,5.6 -2.27,11.12 -7.99,9.18l-52.53 -35.93c-3.77,-2.62 -19.34,-12.24 -20.3,-15.33zm10.09 -22.56c-1.33,-5.26 3.65,-10.94 9,-9.27 1.74,0.54 9.54,5.82 11.68,7.24 7.68,5.08 15.06,9.77 22.82,14.79l34.24 22.17c3.44,2.21 9.31,4.88 9.94,9 0.81,5.29 -3.79,10.54 -9,8.81l-57.23 -36.76c-3.88,-2.52 -7.44,-4.8 -11.38,-7.43 -3.33,-2.23 -9.03,-4.45 -10.07,-8.55zm18.73 -27.55c4.36,-2.82 9.21,1.74 12.48,3.7l32.75 19.9c7.39,4.63 14.3,8.66 21.83,13.27 3.33,2.04 8.05,4.51 10.86,6.68 4.27,3.29 3.04,8.91 -0.76,11.14 -4.49,2.63 -8.54,-1.37 -11.97,-3.44l-65.47 -39.82c-5.29,-3.34 -3.81,-8.78 0.27,-11.43zm89.47 100.57l2.32 -3.1c1.12,-1.34 1.37,-1.93 2.23,-3.39 3.23,-5.51 1.89,-5.81 3.96,-7.57 1.96,-8.63 4.57,-46.52 -4.32,-48.94 -3.35,0.09 -0.38,2.05 -1.13,13.1 -1.29,19.32 -9.34,34.42 -20.85,48.64 -2.95,3.65 -17.61,14.62 -24.74,14.72l-2.19 -7.46c0.34,-0.15 0.58,-0.43 0.66,-0.29 0.02,0.04 7.8,-1.91 9.84,-7.65 3.47,-9.77 -6.5,-14.41 -15.65,-20.51 -3.83,-2.55 -7.32,-5.11 -7.59,-10.96 5.42,1.99 22.43,15.3 27.06,16.68 6.62,1.97 12.07,-2.96 13.05,-8.5 1.43,-8.07 -2.65,-10.23 -7.45,-13.5l-39.9 -25.91c-4.58,-2.98 -10.38,-5.67 -10.87,-11.31 4.3,0.85 53.89,34.1 59.55,34.66 8.2,0.82 14.74,-11.57 7.37,-17.98 -3.58,-3.11 -58.67,-35.88 -68.82,-42.13 -5.46,-3.36 -4.91,-3.38 -12.15,-4.2 -1.66,-3.2 -4.47,-8.56 -5.56,-12.46 -0.7,-1.24 0.34,-0.26 -1.26,-0.63 -7.76,7.68 -17.44,20.59 -23.68,30.15 -3.52,5.38 -16.21,30.66 -16.87,37.41 26.73,20.08 63.54,45.19 89.05,66.28 3.36,2.77 3.91,4.92 10.28,3.84 13.21,-2.24 28.87,-12.68 37.69,-18.98z"/>
   <path class="fil6" d="M353.64 197.16c-1.28,-1.96 -1.21,-2.2 -1.26,-4.38 -0.18,-7.83 -0.42,-3.62 -1.36,-10.55 -5.1,-37.8 11.67,-71.47 40.1,-92.98 10.33,-7.81 19.73,-13.17 32.22,-18.57 12.7,-5.49 32.77,-10.81 47.12,-12.47 1.06,-0.12 2.91,-0.27 3.87,-0.58 2.66,-0.85 1.7,-0.01 1.85,-1.53 -72.31,-9.02 -125.19,22.53 -142.8,75.7 -9.95,30.03 -6.61,67.38 9.14,90.9 8.14,12.17 15.19,19.71 27.58,27.61 6.54,4.17 33.11,15.38 42.21,11.85 -2.24,-1.33 -7.43,-3.05 -10.21,-4.39 -10.93,-5.26 -19.52,-11.37 -27.67,-19.33 -12.56,-12.26 -17.58,-24.11 -20.78,-41.29z"/>
   <path class="fil6" d="M820.59 396.5c-2.41,1.03 -9.07,11.35 -23.57,17.8 -5.08,2.26 -9.94,3.75 -15.83,4.83 -7.22,1.33 -12.88,0.78 -19.8,1.59 -1.11,1.58 -2.94,4 -2.52,6.11 58,9.26 98.09,-27.97 115.98,-62.56 23.83,-46.11 14.57,-94.14 -27.25,-123.28 -0.73,-0.51 -1.26,-0.94 -1.86,-1.28 -1.86,-1.07 -0.52,-0.55 -2.07,-0.83 -1.54,1.37 1.23,2.85 3.98,8.36 1.54,3.1 3.2,5.96 4.59,9.21 2.9,6.75 4.86,12.7 6.65,20.26 3.78,15.91 3.8,33.27 0.99,49.42 -3.82,21.96 -14.77,50.25 -31.5,64.39 -2.3,1.94 -4.68,4.46 -7.79,5.99z"/>
   <path class="fil9" d="M382.52 382.01c0.5,24.34 -10.14,61.32 -0.65,80.28 1.69,3.37 0.18,8.98 0.88,13.19 1.07,6.43 0.17,7.59 -0.57,13.57 -3.36,27.08 -1.39,52.6 5.73,78.76l6.49 20.5c1.25,2.45 1.63,3.63 4.35,4.96 -2.01,-9.67 -1.59,-20.1 2.08,-29.22 4.25,-10.57 9.6,-12.88 10.86,-14.84 3.07,-4.77 -5.71,-9.03 10.98,-30.99 6.08,-8 11.63,-5.94 15.6,-19.54 -7.39,5.68 -32.84,18.83 -44.86,17.82 -1.08,-4.09 0.44,-8.13 0.7,-12.11 -2.88,1.91 -2.1,3.39 -4.12,6.14 -1.47,-2.08 -1.89,-5.53 -1.94,-8.71 -0.16,-9.68 -3.99,-13.13 -4.59,-28.84 -0.94,-24.52 14.24,-46.93 38.28,-49.7 6.74,-0.78 13.12,-0.24 19.18,1.89 10.07,3.53 7.45,6.86 12.11,10.07 0.4,-6.82 -9.25,-22 -14.46,-27.14l-3.51 -2.81 0.41 3.46c-9.24,-1.32 -17.54,-6.82 -33.11,2.01 -12.28,6.96 -14.16,14.44 -19.27,20.91 0.45,-11.8 4.5,-22.43 10.38,-29.27 -0.94,-0.93 -2.39,1.98 -0.33,-2.58 1.26,-2.79 6.89,-9.11 10.84,-11.26 8.38,-4.56 11.93,-2.42 20.93,-2.63l2.44 -17.33c-8.04,1.78 -15.53,3.38 -23.27,5.67 -5.31,1.57 -17.64,5.31 -21.54,7.75z"/>
   <path class="fil0" d="M554.37 441.78c1.88,1.31 3.95,1.37 5.19,3.29 1.44,2.23 0.83,5.28 -0.61,6.93 -1.52,1.75 -3.57,2.58 -6.64,2.5 -4.78,-0.12 -4.27,-1.75 -6.89,-2.87 -4.03,4.73 -2.75,12.68 -1.89,18.88l-7.34 1.28c-1.34,-11.35 -1.32,-22.38 4.14,-30.87 9.69,-15.07 37.36,-11.02 48.08,8.49 3.56,6.47 7.05,23.96 3.4,31.3l-5.6 -3.21c2.31,-6.55 4.15,-7.26 3.49,-16.36 -1.26,-17.59 -21.53,-27.52 -35.34,-19.36zm-33.58 -7.45l-0.4 1.04c0.98,2.97 -0.62,1.19 5.9,-0.99 1.52,-0.51 5.81,-1.74 6.83,-1.73 0.05,1.22 -4.3,7.46 -5.55,10.54 -1.75,4.32 -2.77,8.66 -3.5,13.52 -0.79,5.29 -0.95,10.89 -0.75,16.31 0.16,4.43 -1.19,5.39 -6.32,10.66l-0.26 2.87c15.47,-6.8 30.81,-7.89 48.76,-2.97 15.59,4.28 28.03,12.41 32.47,26.42 3.18,-3.88 1.9,-11.22 3.16,-15.83 3.36,-12.3 5.33,-18.88 3.54,-33.33 -0.63,-5.07 -3.73,-12.45 -3.75,-15.62 -3.97,-3.36 -4.4,-10.4 -14,-17.49 -14,-10.34 -32.14,-14.39 -48.87,-7.27 -10.53,4.48 -11.9,8.91 -16.05,12.85 -0.79,0.75 -0.31,0.37 -1.2,1.02z"/>
   <path class="fil9" d="M470.61 698.05c-3.95,-6.24 -10.61,-11.63 -3.23,-20.44 8.65,-10.32 34.46,-11.85 48.73,-9.07 15.15,2.95 15.58,6 22.42,8.05 -2.98,-14.51 -9.1,-13.36 -15.52,-17.92 4.26,-2.38 7.52,-3.81 11.14,-6.42 8.66,-6.24 18.19,-19.92 20.4,-30.58 -6.79,5.11 -10.77,33.16 -73.68,31.92 -5.95,-0.12 -28.74,-0.53 -32.39,-2.69 -1.78,-1.28 -4.91,-10.76 -5.87,-13.03 -6.13,-14.42 -6.19,-16.88 -16.42,-22.46 -3.61,-1.97 -9.62,-4.73 -14.29,-5.07 0.42,1.09 8.43,13.21 12.87,23.42 8.03,18.5 10.7,33.07 23.25,49.46 3.95,5.15 14.15,13.03 22.6,14.85z"/>
   <path class="fil8" d="M494.55 721.66c-0.31,4.18 9.7,18.07 12.08,20.77 4.03,4.57 14.03,13.54 19.56,14.34 3.88,-7.24 6.23,-11.95 11.44,-16.43 6.52,-5.6 9.27,-6 18.13,-10.07 8.45,-3.89 31.33,-18.06 34,-22.69 1.47,-3.49 3.51,-6.68 5.22,-10.18 1.79,-3.66 2.84,-7.19 4.14,-10.91 1.33,-3.82 2.31,-7.79 3.05,-11.95l1.2 -10.41c-0.03,-1.06 0.04,-0.83 -0.26,-1.8 -0.65,-2.1 1.28,-0.28 -0.98,-1.54 -9.45,13.98 -30.03,32.49 -42.9,41.61 -17.18,12.17 -38.6,19.34 -64.68,19.27z"/>
   <path class="fil5" d="M690.97 418.04c1.46,2.63 3.67,3.98 5.67,5.89l16.7 16.99c2.36,-6.86 4.01,-13.16 6.84,-20.13 1.34,-3.31 2.51,-6.11 3.92,-9.22 1.2,-2.65 3.88,-6.95 4.53,-9.43 -0.39,-4.58 -32.04,-37.33 -37.67,-42.74l-13.69 -12.77c-3.56,-1.95 -6.29,-4.86 -9.49,-7.28l-2.69 -2.7c-2.92,-0.64 -12.85,-10.04 -18.1,-11.86l2.14 3.15c0.7,0.84 1.19,1.53 1.93,2.41 9.03,10.67 17.71,23.3 23.81,36.33 5.15,11 15.66,38.67 17.31,51.13 -0.76,0.58 1.02,1.24 -1.22,0.23z"/>
   <path class="fil10" d="M754.64 864.54l6.23 4.17c5.88,2.19 39,-21.43 93.52,0.44 16.8,6.74 18.37,9.9 27.1,13.76 -0.98,1.13 0.19,0.35 -1.99,0.6 1.85,1.64 1.56,1.67 5.01,2.49 -1.39,-8.54 -18.12,-24.22 -24.14,-28.52 -9.33,-6.66 -21.38,-13.18 -34.75,-17.26 -14.33,-4.36 -30.07,-6.35 -45.45,-2.16 -10.57,2.88 -21.65,10.35 -23.79,21.32 -1.16,5.92 0.18,4.66 -1.73,5.15z"/>
   <path class="fil12" d="M551.93 749.09l1.92 0.29c-0.59,6.66 -1.7,13.93 -0.15,20.53 8.78,-1.65 28.17,-14.5 35.97,-20.13 2.17,-1.57 4.13,-3.27 6.31,-4.98 4.54,-3.56 8.03,-6.44 12.02,-10.55 3.88,-3.98 7.53,-7.08 11.35,-11.22l10.77 -11.8c1.85,-2.28 3.3,-3.95 5.24,-6.03l14.72 -19.41c1.04,1.17 1.22,-2.18 0.82,2.62l1.21 -2.83c0.37,-1.07 0.59,-1.92 0.83,-2.86 0.57,-2.26 1.1,-4.37 1.65,-6.53 1.12,-4.35 1.95,-8.41 2.69,-12.99 1.21,-7.49 2.81,-22.9 1.41,-30.22 -8.56,-1.52 -2.79,-0.23 -8.46,17.54 -24.31,76.17 -95.1,94.87 -98.32,98.58z"/>
   <path class="fil6" d="M551.93 749.09c-3.56,0.38 -5.7,4.6 -7.66,7.92 -7.06,11.95 -8,31.46 -2.61,39.87 8.22,-1.98 29.05,-14.05 35.89,-18.49 22.27,-14.48 40.97,-31 55.59,-53.5 4.68,-7.2 16.15,-26.83 17.78,-36.48 0.4,-4.8 0.22,-1.44 -0.82,-2.62l-14.72 19.41c-1.93,2.08 -3.39,3.75 -5.24,6.03l-10.77 11.8c-3.83,4.14 -7.47,7.24 -11.35,11.22 -4,4.1 -7.48,6.99 -12.02,10.55 -2.18,1.71 -4.14,3.41 -6.31,4.98 -7.81,5.63 -27.2,18.48 -35.97,20.13 -1.54,-6.59 -0.43,-13.87 0.15,-20.53l-1.92 -0.29z"/>
   <path class="fil9" d="M617.31 1022.18c1.34,-1.21 -0.13,1.02 1.31,-1.17 8.85,7.53 -1.33,17.24 -1.69,19.04 11.86,-1.37 15.79,-9.18 18.77,-11.79 0.4,7.32 -2.74,13.55 -7.26,15.35 3.3,5.49 19.65,7.04 26.67,6.07 2.54,-13.78 4.83,-24.93 3.94,-39.78 -0.52,-8.71 -2.62,-19.42 -5.78,-27.39 -1.12,-2.82 -1.83,-5.98 -4.42,-7.53 0.08,1.94 -3.62,4.36 -5.88,6.07 -11.14,8.47 -17.26,6.72 -29.03,8.55 -0.34,3 2.1,11.1 2.62,15.14 0.85,6.55 0.51,11.14 0.75,17.43z"/>
   <path class="fil13" d="M419.79 880.37l-2.96 -1.82c-17.4,-8.04 -53.3,-29.36 -71.04,-39.23 -4.58,-2.55 -21.95,-12.9 -25.38,-14.01 1.09,3.9 3.91,9.26 5.56,12.46 7.24,0.82 6.69,0.84 12.15,4.2 10.15,6.25 65.24,39.02 68.82,42.13 7.37,6.42 0.83,18.8 -7.37,17.98 -5.66,-0.56 -55.25,-33.81 -59.55,-34.66 0.49,5.64 6.29,8.33 10.87,11.31l39.9 25.91c4.8,3.27 8.88,5.44 7.45,13.5 -0.98,5.54 -6.43,10.47 -13.05,8.5 -4.63,-1.38 -21.64,-14.69 -27.06,-16.68 0.26,5.85 3.76,8.41 7.59,10.96 9.15,6.1 19.12,10.74 15.65,20.51 -2.04,5.74 -9.82,7.69 -9.84,7.65 -0.08,-0.14 -0.32,0.14 -0.66,0.29l2.19 7.46c7.14,-0.1 21.79,-11.07 24.74,-14.72 11.51,-14.22 19.56,-29.32 20.85,-48.64 0.74,-11.06 -2.23,-13.01 1.13,-13.1z"/>
   <path class="fil11" d="M742.18 1127.68c-1.46,-0 -0.44,-0.32 -1.08,0.27 3.82,4.44 13.15,17.79 4.89,24.05 -1.81,-1.17 -5.73,-5.1 -6.96,-6.44 -4.14,-4.48 -16.07,-12.78 -21.41,-16.82 -13.98,-10.61 -45.98,-30.95 -61.96,-40.83 -2.8,-1.73 -29.03,-19.5 -31.82,-18.88l-3.13 10.22c2.65,2.09 6.99,4.88 10.22,7.06 23.06,15.5 48.13,34.01 71,49.98 9.32,6.51 30.64,23.29 43.78,25.18 11.63,1.67 18.84,-5.65 13.72,-16.9 -2.36,-5.19 -12.5,-15.98 -17.25,-16.89z"/>
   <path class="fil9" d="M655.74 601.52c14.2,-5.35 31.31,-34.06 37.59,-50.86 0.64,-1.71 2.41,-7.87 3.15,-9.14 1.41,1.55 1.39,5.5 1.75,7.96 0.28,1.91 0.31,3.05 0.43,4.91 0.04,0.55 0.09,1.57 0.29,2.08 0.72,1.81 -0.12,0.58 1.29,1.79 0.79,-1.2 2.07,-2.46 3.09,-3.85 1.07,-1.46 1.91,-2.74 2.96,-4.58 2.28,-4 2.59,-6.08 3.97,-10.9 -10.13,0.72 -14.17,-3.77 -17.52,-11.43 -0.46,-1.04 -0.05,-0.3 -0.62,-1.35 -0.84,-1.54 -0.22,-0.55 -0.87,-1.28 0.26,3.11 0.06,1.32 -0.42,2.32 -6.25,-0.85 -11.16,-3.99 -13.7,-9.26 -1.63,-3.39 -0.15,-3.35 -0.38,-6.45 -1.59,1.63 -1.69,5.78 -2.23,8.42 -1.06,5.12 -0.56,6.95 -1.89,8.9 -4.67,-15.91 -11.38,-71.29 -12.38,-89.68 -0.13,-2.43 -0.53,-12.28 -1.71,-13.64 -6.54,32.75 -1.56,59.29 4.22,90.61 2.75,14.91 5.35,29.94 5.07,45.87 -0.35,19.57 -4.48,25.48 -12.09,39.55z"/>
   <path class="fil5" d="M570.29 828.71l-4.49 -0.35c1.71,-2.28 10.01,-5.58 13.16,-7.19 11.42,-5.83 26.61,-15.4 35.47,-23.45l10.53 -9.55c1.83,-1.77 3.21,-3.18 4.91,-5.11 4.95,-5.59 8.28,-8.95 13.06,-15.81 0.89,-1.27 7.18,-11.41 8.23,-11.47l3.39 -20.72c-2.24,1.24 -7.74,9.65 -9.81,12.1 -17.88,21.09 -37.73,36.02 -62.52,49.67 -10.23,5.63 -19.85,9.42 -30.88,14.25 -1.33,4.28 -2.37,15.56 -2.39,20.44 4.18,-0.19 18.8,-0.87 21.34,-2.81z"/>
   <path class="fil6" d="M301.45 751.29c2.07,-0.91 17.1,-18.97 19.94,-22.88l30.3 -33.6c1.57,-1.95 1.53,-2.99 3.84,-3.75 0.12,3.86 0.05,7.54 2.29,9.63 0.08,0.07 8.78,5.91 9.86,-1.23 0.13,-0.85 0.16,-2.41 0.25,-3.37 0.9,-9.59 5.19,-22.09 10.19,-30.02l6.59 -9.19 0.49 -9.17c-6.45,1.6 -23.29,13.57 -27.66,17.18 -11.26,9.3 -30.33,34.24 -42.15,47.48l-20.61 24.62c2.83,2.77 5.29,9.85 6.68,14.3z"/>
   <path class="fil10" d="M677.87 1067.92c1.15,-1.91 9.31,-5.98 11.95,-7.4 2.98,-1.61 10.32,-6.16 12.81,-6.72l-0.01 2.95 2.09 -14.02c0.71,-8.73 1.64,-40.59 -2.24,-45.51l0.18 4.75 -12.92 5.4c-3.88,-8.56 -4.78,-21.24 -13.93,-37.32 -4.32,-7.6 -5.63,-8.78 -10.42,-15.29 -1.85,-2.51 -4.57,-4.42 -6.6,-6.57 -2.24,-2.37 -3.95,-4.23 -7.46,-5.49 1.72,4.34 20.31,21.59 23.64,51.85 2.55,23.14 1.36,32.48 0,53.8 -0.35,5.57 -2.02,11.84 -2.14,16.92 1.58,0.79 3.42,2 5.07,2.66z"/>
   <path class="fil5" d="M107.56 711.12c0.7,-2.3 1.58,-0.29 8.09,1.09 3.66,0.77 7.22,1.28 11.07,1.58 15.01,1.18 29.91,-1.94 44.04,-6.25 4.89,-1.49 14.83,-5.89 18.6,-6.43 0.8,2.1 1.7,4.25 2.49,6.35 1,2.67 2.59,4.98 1.33,7.46 10.87,-3.82 30.91,-20.03 38.42,-28.06 2.63,-2.81 0.66,-4.72 -0.96,-8.75 -1.29,-3.21 -6.7,-17.38 -8.01,-18.82 -1.32,0.84 -7.46,7.98 -9.67,10.22 -16.85,17.13 -43.8,29.96 -68.48,33.72 -14.57,2.22 -25.25,1.22 -39.98,1.26l2.2 5.42c0.08,0.12 0.19,0.3 0.26,0.41l0.59 0.79z"/>
   <path class="fil5" d="M532.1 827.24c-4.7,-2.08 -13.05,-4.03 -18.47,-5.89 -33.39,-11.45 -68.03,-30.42 -85.91,-60.82l-7.45 -15.79c-0.61,-0.94 -0.31,-0.53 -0.96,-1.12 -0.68,9.61 2.68,36.92 4.74,46.44 1.3,6 23.93,18.24 29.95,21.29 20.38,10.3 35.95,14.74 58.63,18.49 3.66,0.6 7.44,0.64 11.3,1.19 5.15,0.73 8.77,2.37 8.18,-3.77z"/>
   <path class="fil13" d="M623.84 1069.03c2.8,-0.62 29.03,17.15 31.82,18.88 15.98,9.89 47.98,30.23 61.96,40.83 5.34,4.05 17.27,12.34 21.41,16.82 1.23,1.34 5.16,5.27 6.96,6.44 8.26,-6.26 -1.07,-19.61 -4.89,-24.05 0.64,-0.59 -0.38,-0.28 1.08,-0.27 -1.39,-2.42 -11.49,-7.62 -14.21,-9.29 -11.34,-6.95 -98.76,-59.11 -101.13,-59.49l-3 10.13z"/>
   <path class="fil8" d="M394.4 588.3l-6.49 -20.5c-7.12,-26.15 -9.1,-51.67 -5.73,-78.76 0.74,-5.99 1.64,-7.14 0.57,-13.57 -0.7,-4.21 0.81,-9.81 -0.88,-13.19 -9.49,-18.96 1.15,-55.94 0.65,-80.28 -3.03,1.14 -3.3,5.28 -4.56,11.27l-9.29 39.54c-2.33,10.81 -1.59,17.63 1.8,27.7 5.07,15.03 6.24,7.24 2.78,25.16 -5.61,29.06 -4.71,56.96 8.46,83.29 2.03,4.06 3.56,6.75 5.94,10.35 1.29,1.96 5.24,8.41 6.75,8.97z"/>
   <path class="fil9" d="M118.77 529.89c-4.07,5.49 11.02,14.08 27.52,1.46 0.13,-0.1 1.64,-1.31 1.84,-1.39 1.79,-0.69 0.5,-1.12 1.86,0.32l1.46 -2.76c-3.83,-3.57 -7.26,-4.46 -8.54,-14.16 2.68,0.61 5.59,2.56 8.75,3.59 14.85,4.81 19.45,2.49 31.99,0.59l-1.31 4.45c3.04,2.23 8.45,10.43 17.2,11.67 9.01,1.28 16.28,-4.45 18.12,-11.02 -16.18,3.31 -24.58,-7.84 -32.97,-13.63 -5.65,-3.9 -36.44,-3.65 -40.95,-6.56 -2.71,-2.04 -2.84,-11.04 -2.35,-13.98 -3.17,1.36 -3.54,3.64 -8.49,8.23 -4.52,4.19 -0.11,11.95 -6.84,25.75 -2.58,5.29 -3.69,5.51 -6.86,9.29l-0.44 -1.86z"/>
   <path class="fil8" d="M212.6 549.45c-2.33,8.62 -1.2,19.72 1.56,27.96 2.15,6.42 4.37,10.36 9.11,14.63 1.39,1.25 2.55,1.65 4.2,3.01 -3.42,0.89 -6.07,0.5 -9.38,-0.29 -7.33,-1.73 -5.73,0.29 -8.02,-2.21 -3.42,-1.48 -5.24,-2.63 -7.72,-4.67 -2.47,-2.03 -4.5,-5.45 -6.72,-6.4 0.11,3.96 2.76,10.61 4.9,11.2 0.18,0.12 0.36,0.31 0.48,0.43 0.12,0.12 0.31,0.28 0.45,0.43 0.13,0.14 0.27,0.28 0.4,0.43l1.39 1.88c0.57,0.61 1.92,1.42 2.94,2 2.02,1.13 4.89,1.64 6.27,2.98 -6.69,6.97 -23.84,17.37 -26.94,34.39 -1.06,5.83 -1.28,6.19 0.25,6.91 9.19,-11.93 21.11,-24.69 34.11,-32.14 23.18,-13.28 18.81,-12.78 15.23,-24.15 -1.86,-5.9 -2.82,-12 -4.16,-18.43 -1.12,-5.41 -3.28,-22.87 -10.99,-21.27 -2.66,0.55 -6.26,1.61 -7.37,3.31z"/>
   <path class="fil6" d="M651.3 942.68c3.51,1.26 5.23,3.12 7.46,5.49 2.03,2.15 4.75,4.06 6.6,6.57 4.79,6.51 6.1,7.69 10.42,15.29 9.14,16.08 10.05,28.76 13.93,37.32l12.92 -5.4 -0.18 -4.75c0.56,-8.67 -9.43,-33.05 -13.19,-40.03 -4.22,-7.85 -16.69,-26.45 -23.5,-29.9l-20.64 9.69c0.93,1.92 5,5.07 6.17,5.72z"/>
   <path class="fil14" d="M249.75 973.14c0.53,1.91 3.32,3.74 5.85,5.88 8.69,7.39 44.39,34.75 49.71,35.97 0.3,-1.02 4.04,-55.16 3.83,-56.18 -3.6,1.31 -9.58,7.72 -26.03,12.14 -4.76,1.28 -10.84,2.41 -15.96,2.77 -2.96,0.2 -17.09,-0.69 -17.4,-0.58z"/>
   <path class="fil6" d="M570.29 828.71c11.18,0.91 49.32,-13.37 59.02,-18 4.26,-2.03 8.46,-4.01 12.63,-6.18 4.69,-2.44 3.6,-3.64 5.09,-14.2 0.74,-5.18 4.74,-31.95 4.13,-34.55 -1.05,0.06 -7.34,10.19 -8.23,11.47 -4.78,6.86 -8.11,10.22 -13.06,15.81 -1.7,1.92 -3.08,3.34 -4.91,5.11l-10.53 9.55c-8.86,8.04 -24.05,17.62 -35.47,23.45 -3.15,1.61 -11.45,4.91 -13.16,7.19l4.49 0.35z"/>
   <path class="fil8" d="M30.56 492.54c0.13,6.31 12.87,11.82 17.49,15.24 8.78,6.49 17.85,16.04 23.64,25.88 4.2,7.13 8.04,15.61 9.97,23.88l2.27 12.02c0.54,2.13 -0.27,0.24 0.8,2.16 2.21,-0.76 1.87,-0.89 3.28,-2.73 1.19,-1.56 1.52,-2.11 2.56,-3.68 2.04,-3.08 2.38,-5.55 2.02,-9.44 0.74,-11.23 -10.77,-37.75 -19.19,-48.37 -6.36,-8.03 -18.98,-19.12 -30.74,-19.91 -5.76,-0.39 -11.22,0.87 -12.1,4.95z"/>
   <path class="fil15" d="M307.41 870.35c1.04,4.1 6.74,6.32 10.07,8.55 3.94,2.64 7.5,4.91 11.38,7.43l57.23 36.76c5.2,1.74 9.81,-3.52 9,-8.81 -0.63,-4.12 -6.5,-6.79 -9.94,-9l-34.24 -22.17c-7.75,-5.03 -15.14,-9.71 -22.82,-14.79 -2.14,-1.42 -9.94,-6.69 -11.68,-7.24 -5.35,-1.67 -10.33,4.01 -9,9.27z"/>
   <path class="fil9" d="M558.42 1067.03c3.29,11.46 32.5,17.31 45.21,14.45 4.57,-1.03 4.44,-2.49 6.54,-5.98l10.07 -15.24c-2.18,-3.52 -7.71,-6.64 -13.01,-5.86 -2.18,1.05 -7.59,13.86 -8.91,17.41 -1.06,2.84 -1.47,3.94 -4.84,4.11 -1.6,-3.7 -1.5,-9.84 -4.71,-15.75 -1.12,-2.07 -2.16,-2.49 -2.74,-4.79l3.4 0.6c0.09,-2.81 2.7,-5.12 4.03,-7.22 1.42,-2.23 2.71,-4.22 4.04,-6.62 2.5,-4.51 4.83,-10.44 5.9,-16.79 -16.59,1.85 -13.72,-0.01 -17.19,7.38 -0.95,2.01 -1.82,3.91 -2.86,5.91 -5.23,9.96 -11.41,28.68 -24.94,28.38z"/>
   <path class="fil6" d="M107.56 711.12c0.12,2.37 6.61,18.59 8.31,20.31 13.55,1.65 30.54,-1.15 43.02,-3.73 6.68,-1.38 31.57,-9.37 34.29,-12.78 1.27,-2.48 -0.32,-4.79 -1.33,-7.46 -0.79,-2.1 -1.69,-4.25 -2.49,-6.35 -3.77,0.54 -13.71,4.94 -18.6,6.43 -14.12,4.31 -29.02,7.43 -44.04,6.25 -3.85,-0.3 -7.41,-0.81 -11.07,-1.58 -6.51,-1.37 -7.39,-3.39 -8.09,-1.09z"/>
   <path class="fil5" d="M494.8 758.99c-2.49,-4.95 -10.29,-6.27 -19.23,-12.46 -13.47,-9.33 -21.59,-19.78 -29.77,-34.15 -8.19,-14.39 -2.34,-5.29 -11.51,-16.05l-2.06 -2.03c-0.1,-0.08 -0.28,-0.23 -0.43,-0.32 0.73,13.52 12.37,42.42 18.61,52.01 6.98,10.72 26.19,31.11 39.54,29.98 4.87,-7.09 3.21,-14.88 4.87,-16.99z"/>
   <path class="fil6" d="M494.8 758.99c-1.65,2.11 -0,9.9 -4.87,16.99 -13.34,1.12 -32.56,-19.26 -39.54,-29.98 -6.24,-9.58 -17.87,-38.49 -18.61,-52.01 -0.44,-2.02 -2.94,-5.13 -4.15,-7.32 -1.42,-2.58 -2.59,-6.46 -4.5,-8.18 -1.01,21.89 9.89,54.85 21.23,73.53 6.42,10.57 13.31,18.09 21.43,25.59 3.98,3.68 22.42,16.68 29.49,18.08 2.78,-3.4 4.05,-13.67 4.35,-18.73 0.37,-6.22 -1.43,-14.75 -4.83,-17.98z"/>
   <path class="fil8" d="M676.76 511.5c0.23,3.1 -1.25,3.06 0.38,6.45 2.54,5.27 7.45,8.41 13.7,9.26 0.48,-1 0.67,0.79 0.42,-2.32 0.23,-3.18 -1.24,-6.99 -1.39,-10.57 -1.17,-28.19 19.01,-31.65 28.95,-21.69 6.04,6.05 4.76,8.18 6.69,17.11 1.84,8.44 -2.4,14.76 -6.52,20.8l-1.89 2.67c-1.72,3.56 -3.76,3.66 -6.83,5.73 -1.38,4.82 -1.69,6.9 -3.97,10.9 -1.05,1.84 -1.89,3.12 -2.96,4.58 -1.02,1.39 -2.31,2.66 -3.09,3.85 10.95,-1.44 21.97,-15.48 26.51,-23.72 18.93,-34.39 -8.49,-65.19 -30.04,-54.48 -10.5,5.22 -20.04,23.53 -19.95,31.42z"/>
   <path class="fil16" d="M532.54 402.34c0.16,2.91 -1.8,4.48 -3.28,6.82 -1.51,2.37 -2.7,4.87 -3.8,7.47 -2.22,5.24 -4.67,11.41 -4.67,17.7 0.89,-0.65 0.41,-0.27 1.2,-1.02 4.16,-3.94 5.52,-8.37 16.05,-12.85 16.72,-7.12 34.87,-3.08 48.87,7.27 9.6,7.09 10.03,14.13 14,17.49 -0.04,-3.58 -0.43,-7.47 -0.92,-11.07 -0.24,-1.75 -0.71,-3.59 -0.85,-5.33 -0.05,-0.59 -0.03,-2.82 -0.04,-2.86 -0.05,-0.35 0.71,-0.73 -1.09,-3.12l-0.33 1.74c-4.03,-8.09 -15.6,-16.96 -25.8,-21.3 -18.85,-8.02 -27.8,-2.38 -39.33,-0.92z"/>
   <path class="fil3" d="M141.4 488.48c-0.49,2.95 -0.37,11.94 2.35,13.98 4.51,2.92 35.3,2.66 40.95,6.56 8.39,5.79 16.78,16.95 32.97,13.63 2.24,-3.37 0.89,-8.8 -1.9,-10.86 -5.72,-4.21 -18.45,-8.22 -26.97,-16.27 -5.69,-5.37 -11.53,-6.79 -21.21,-7.56 -5.21,-0.42 -22.3,-2.69 -25.47,-0.29 -0.67,0.5 -0.54,0.57 -0.72,0.81z"/>
   <path class="fil15" d="M326.15 842.8c-4.09,2.64 -5.57,8.09 -0.27,11.43l65.47 39.82c3.43,2.07 7.48,6.07 11.97,3.44 3.8,-2.22 5.03,-7.85 0.76,-11.14 -2.82,-2.17 -7.54,-4.64 -10.86,-6.68 -7.54,-4.61 -14.44,-8.64 -21.83,-13.27l-32.75 -19.9c-3.27,-1.97 -8.12,-6.52 -12.48,-3.7z"/>
   <path class="fil0" d="M297.32 892.91c0.96,3.09 16.53,12.71 20.3,15.33l52.53 35.93c5.72,1.94 9.7,-3.58 7.99,-9.18 -0.83,-2.7 -36.41,-26.1 -41.37,-29.6l-31.76 -21.54c-4.88,-1.3 -9.18,4.27 -7.7,9.06z"/>
   <path class="fil6" d="M468.48 621.9c2.27,-0.59 21.79,2.5 43.43,-3.8 19.08,-5.55 17.54,-6.27 23.44,-18.02 1.01,-2.02 1.8,-2.71 0.16,-3.31l-20.52 6.83c-16.7,4.52 -32.46,6.41 -49.83,5.26 -4.14,-0.28 -8.23,-0.61 -12.21,-1.31 -3.34,-0.59 -9.16,-1.94 -12.17,-1.88 0.53,1.24 7.74,13.02 8.53,13.52 2.11,1.32 16.15,3.28 19.16,2.71z"/>
   <path class="fil17" d="M526.19 756.76c-5.53,-0.8 -15.54,-9.77 -19.56,-14.34 -2.38,-2.7 -12.39,-16.59 -12.08,-20.77 -4.29,-0.15 -10.34,-0.4 -14.42,-1.04 -2.89,-0.45 -10.2,-2.49 -12.11,-2.38 7.93,9.62 13.26,16.12 26.36,22.63 17.17,8.54 22.53,28.04 19.41,45.89 -0.81,4.66 -3.85,10.4 -4.06,12.79 3.57,2.91 9.7,5.67 16.31,3.23 0.5,-1.3 -3.44,-17.31 -3.47,-22.05 -0.07,-10.48 0.48,-14.81 3.62,-23.96z"/>
   <path class="fil6" d="M418.64 235.07c1.32,1.18 8.02,3.61 10.62,3.77 -1.25,-4.09 -23.49,-23.33 -5.02,-53.8 1.17,-1.93 3.72,-4.58 3.98,-6.22 0.81,-2.94 3.99,-5.54 4.93,-10.35 -8.1,1.57 -29.57,13.98 -33.14,26.19 -3.16,10.78 3.88,26.3 11.05,32.85l7.24 7.06c0.07,-0.12 0.25,0.32 0.34,0.5z"/>
   <path class="fil18" d="M691.25 524.88c0.66,0.74 0.04,-0.26 0.87,1.28 0.57,1.05 0.16,0.3 0.62,1.35 3.34,7.66 7.39,12.16 17.52,11.43 3.07,-2.08 5.11,-2.18 6.83,-5.73 -0.7,-2.39 -6.31,0.31 -12.23,-6.22 8.28,-6.24 2.46,-10.31 0.1,-17.3 4.33,-2.9 7.34,0.31 10.89,0.89 -2.12,-11.93 -12.17,-8.38 -14.64,-8.48 1.77,-1.05 1.12,-2.45 5.68,-3.67 6.41,-1.72 10.35,2.35 13.68,5.61 2.32,2.28 2.54,3.94 4.93,5.71 -1.93,-8.94 -0.65,-11.06 -6.69,-17.11 -9.94,-9.96 -30.13,-6.5 -28.95,21.69 0.15,3.59 1.62,7.4 1.39,10.57z"/>
   <path class="fil0" d="M125.1 662.11l-3.23 1.14c-0.15,0.06 -0.43,0.42 -0.53,0.27 -0.11,-0.15 -0.38,0.16 -0.53,0.28 2.23,0.85 3.79,2.34 6.37,3.65 36.32,18.42 57.86,-41.96 25.81,-68.42 -5.6,-4.62 -4.17,-4.37 -4.88,-2.59 3.18,1.58 8.17,12.66 9.39,18.19 7.56,34.37 -23.76,49.63 -32.4,47.49z"/>
   <path class="fil9" d="M528.23 1054.92c1.83,1.74 11.08,2.22 14.28,2.35 6.09,-13.97 15.27,-33.85 24.99,-45.76 1.87,-2.29 3.47,-3.75 4.86,-5.87 1.21,0.96 0.35,-0.2 0.69,1.97 1.44,-1.76 1.21,2.41 1.21,-2.5 -1.25,-3.69 -19.32,0.6 -21.18,1.33 -5.85,2.31 -8.26,6.77 -11.04,12.81 -4.36,9.49 -10.07,24.36 -12.33,35.34l-1.47 0.33z"/>
   <path class="fil7" d="M19.77 548.65c2,5.83 20.11,14.89 27.05,19.28 4.71,2.97 9.49,6.47 13.44,9.75 6.11,5.08 8.76,9.87 12.06,10.67 2.99,-3.86 2.11,-3.75 2.69,-9.32 -0.28,-3.56 -6.59,-12.08 -8.67,-14.96 -3.03,-4.19 -7.63,-8.79 -11.82,-12.01 -12.97,-9.96 -33.31,-10.93 -34.76,-3.42z"/>
   <path class="fil10" d="M535.52 596.77c1.64,0.6 0.85,1.29 -0.16,3.31 -5.9,11.75 -4.37,12.47 -23.44,18.02 -21.64,6.3 -41.17,3.2 -43.43,3.8 0.17,0.12 0.61,0.41 0.72,0.5 0.09,0.07 0.31,0.23 0.41,0.31l0.9 0.74c-5.64,1.13 -11.85,1.74 -18.04,2.29l4.2 11.81c0.91,1.59 0.07,0.64 1.41,1.68 -1.07,-3.22 1.76,-8.14 3.58,-10.59 4.49,-0.72 11.24,-0.38 16.06,-0.59 9.69,-0.42 22.1,-1.83 31.71,-3.58 4.01,-0.73 11.35,-2.98 14.69,-2.91 1.69,1.82 3.96,4.68 4.09,6.87 8.73,-3.7 22.62,-27.53 25.26,-41.33 -1.97,0.53 -6.22,3.48 -8.79,4.84l-8.04 3.92c-1.06,0.69 -0.33,0.06 -1.12,0.92z"/>
   <path class="fil0" d="M532.54 402.34c11.53,-1.46 20.48,-7.1 39.33,0.92 10.19,4.34 21.77,13.2 25.8,21.3l0.33 -1.74c-3.02,-17.18 -11.81,-29.21 -25.03,-35.06 -7.95,-3.52 -16.55,-4.32 -25.45,-1.7 -4.09,1.2 -7.32,3.27 -9.54,5.5 -2.86,2.88 -3.79,5.78 -5.44,10.78z"/>
   <path class="fil19" d="M437.81 522.22c0.76,1.12 -1.48,8.62 -1.74,11.05 -0.48,4.45 0.62,9.9 0.3,12.98 5.59,-0.07 7.1,5.16 10.41,6.79 0.16,-1.43 -0.77,-0.7 0.87,-0.8 14.83,14.08 42.47,8.8 47.87,-9.91 -2.98,1.77 -3.87,2.99 -7.56,4.79 -8.65,4.2 -19.78,3.48 -28.12,-0.44 -15.57,-7.31 -11.66,-23.84 -11.88,-34.2 -1.7,1.2 -1.1,0.69 -2.19,2.52 -0.63,1.06 -1.16,2.31 -1.85,3.13 -2.07,2.45 -4.16,1.49 -6.1,4.11z"/>
   <path class="fil3" d="M394.11 504.38c-0.26,3.97 -1.77,8.01 -0.7,12.11 12.02,1.01 37.47,-12.14 44.86,-17.82 1.51,-1.38 3.47,-7.64 3.94,-10.22 -9.99,-0.64 -20.51,0.34 -29.3,2.98 -7.23,2.17 -17.59,7.78 -18.81,12.95z"/>
   <path class="fil6" d="M458.07 639.23c14.08,0.31 25.23,1.17 39.55,-0.36 9.9,-1.06 26.06,-4.19 30.57,-10.45 -0.12,-2.19 -2.4,-5.04 -4.09,-6.87 -3.34,-0.07 -10.68,2.18 -14.69,2.91 -9.61,1.75 -22.01,3.16 -31.71,3.58 -4.82,0.21 -11.57,-0.13 -16.06,0.59 -1.83,2.45 -4.65,7.37 -3.58,10.59z"/>
   <path class="fil6" d="M554.37 441.78c13.8,-8.15 34.07,1.77 35.34,19.36 0.66,9.1 -1.19,9.81 -3.49,16.36l5.6 3.21c3.65,-7.34 0.16,-24.82 -3.4,-31.3 -10.72,-19.51 -38.39,-23.56 -48.08,-8.49 -5.46,8.49 -5.48,19.51 -4.14,30.87l7.34 -1.28c-0.86,-6.2 -2.14,-14.15 1.89,-18.88 2.62,1.12 2.1,2.75 6.89,2.87 3.07,0.08 5.11,-0.75 6.64,-2.5 1.44,-1.65 2.05,-4.71 0.61,-6.93 -1.24,-1.92 -3.31,-1.99 -5.19,-3.29z"/>
   <path class="fil9" d="M602.13 660.78c2.26,1.25 0.32,-0.57 0.98,1.54 0.3,0.97 0.23,0.74 0.26,1.8l-1.2 10.41c-0.74,4.17 -1.72,8.13 -3.05,11.95 -1.3,3.72 -2.34,7.25 -4.14,10.91 -1.72,3.51 -3.76,6.69 -5.22,10.18l3.76 -2.87c7.15,-6.18 15.03,-15.86 20.21,-23.67 5.87,-8.86 12.72,-22.87 15.16,-35.38l-21.35 9.77c-3.18,1.58 -3.21,3.02 -5.4,5.36z"/>
   <path class="fil9" d="M485.48 1067.8c0.89,-1.9 3.13,0.88 4.82,1.81 1.82,0.99 4.38,1.96 6.41,2.41 5.89,1.3 12.65,-0.57 15.64,0.15 -0.91,-1.49 -0.3,-0.73 -1.49,-1.76 -5.14,-4.42 -16.45,-9.08 -19.31,-21.41 -0.62,-2.68 -1.42,-2.56 -5.16,-5.54l-13.64 -13.28c-1.75,-2.14 -0.65,-1.88 -3.46,-2.89 -1.75,8.42 -4.83,11.16 3.54,22.19 2.36,3.12 4.05,5.89 6.12,8.93 1.46,2.16 4.51,7.99 6.53,9.38z"/>
   <path class="fil0" d="M393.45 402.39c-5.88,6.85 -9.93,17.47 -10.38,29.27 5.11,-6.48 7,-13.96 19.27,-20.91 15.58,-8.83 23.87,-3.33 33.11,-2.01l-0.41 -3.46c-2.7,-3.32 -2.17,-5.96 -6.36,-9.26 -3.12,-2.46 -7.34,-4.33 -12.36,-4.46 -10.96,-0.28 -18.96,5 -22.88,10.83z"/>
   <path class="fil6" d="M396.55 483.32c1.53,-0.01 9.08,-4.37 10.7,-5.58 -1.35,-7.32 -2.63,-8.07 -1.22,-16.97 4.22,1.44 9.18,3.97 12.76,-1 4.96,-6.88 -5.36,-9.37 -5.37,-9.37 1.96,-3.21 9.04,-5.12 14.17,-5.05 7.39,0.1 9.42,2.72 14.39,4.98 -3.73,-14.15 -23.62,-15.43 -34.8,-6.54 -8.39,6.68 -14.43,25.06 -10.65,39.52z"/>
   <path class="fil13" d="M415.61 943.37c2.77,-0.3 4.34,1.54 6.34,2.83 2.09,1.35 3.86,2.94 6.26,3.82 -1.93,-3.94 3.09,-3.78 4.03,-3.54l28.48 17.96c2.3,1.53 9.36,6.2 11.76,7.03l-0.02 1.84c0.13,-0.13 0.29,-0.52 0.35,-0.41 0.05,0.1 0.26,-0.31 0.33,-0.42 1.23,-1.87 3.03,-5.93 3.16,-8.04l-46.52 -29.86c-2.16,-1.44 -5.66,-2.3 -5.68,-5.28 -2.07,1.76 -0.73,2.06 -3.96,7.57 -0.85,1.46 -1.11,2.04 -2.23,3.39l-2.32 3.1z"/>
   <path class="fil9" d="M487.56 1020.74c1.9,3.78 6.8,8.95 9.6,11.14l12.34 -20.08c3.61,-5.12 11.1,-13.61 16.49,-16.86 1.35,0.98 0.41,-0.42 0.64,2.01 0.91,-0.93 0.73,-0.4 1.31,-1.99 0.41,-1.14 0.27,-1.39 0.37,-2.39 -2.3,-1.4 -5.23,-1.27 -7.99,-1.2 -7.49,0.2 -13.47,3.15 -18.27,7.98 -2.21,2.23 -5.69,6.89 -7.57,9.98l-4.65 8.48c-1.2,2.68 -0.2,1.93 -2.29,2.93z"/>
   <path class="fil9" d="M717.09 533.21l1.89 -2.67c4.13,-6.04 8.36,-12.36 6.52,-20.8 -2.39,-1.77 -2.61,-3.43 -4.93,-5.71 -3.33,-3.26 -7.27,-7.33 -13.68,-5.61 -4.56,1.23 -3.91,2.62 -5.68,3.67 2.47,0.09 12.52,-3.45 14.64,8.48 -3.55,-0.58 -6.56,-3.79 -10.89,-0.89 2.36,7 8.19,11.06 -0.1,17.3 5.92,6.54 11.53,3.83 12.23,6.22z"/>
   <path class="fil9" d="M210.07 592.56c2.3,2.49 0.69,0.47 8.02,2.21 3.32,0.78 5.96,1.17 9.38,0.29 -1.65,-1.36 -2.81,-1.76 -4.2,-3.01 -4.74,-4.27 -6.96,-8.21 -9.11,-14.63 -2.76,-8.24 -3.89,-19.34 -1.56,-27.96 -11.69,4.05 -13.14,19.26 -5.72,33.29 2.06,3.9 4.9,7.05 6.42,10.02l-3.23 -0.2z"/>
   <path class="fil14" d="M188.16 560.15c0.1,-0.14 0.19,-0.56 0.22,-0.47 0.03,0.09 0.17,-0.36 0.2,-0.48 0.04,-0.12 0.13,-0.34 0.17,-0.5 1.04,-3.73 0.56,-5.83 4.05,-10.88 1.17,-1.69 1.54,-1.63 2.37,-3.62 -5.59,-1.88 -11.38,-4.83 -15.1,-8.62 -5.6,-5.7 -5.84,-8.09 -11.29,-6.7 -6.51,1.67 8.48,26.01 19.38,31.26zm-54.01 -88.8c4.72,-1.55 1.63,-4.08 13.89,-4.07 15.26,0.01 31.49,4.33 46.38,6.93 4.92,0.86 4.4,0.13 7.77,2.92 4.16,3.45 7.87,6.28 11.73,9.56 4.09,3.47 21.22,16.88 23.27,19.36 3.12,3.77 4.28,11.4 4.11,17.06 -0.24,7.85 -3.03,10.61 -6.61,14.42l10.42 30.18c3.06,9.6 8.25,21.7 8.26,32.5 0.01,5.86 -1.51,9.76 -4.54,13.03 -3.19,3.44 -6.41,4.08 -11.35,6.21 -8.46,3.66 -16.16,8.27 -22.87,12.73 -0.04,2.43 0.84,3.66 1.6,5.53 2.78,-0.11 7.3,-1.3 10.79,-1.75 4.25,-0.55 7.39,-1.11 11.93,-0.49 1.05,1.64 3.4,8.43 4.28,10.59l21.96 54.5c2.55,6.44 5.53,16.8 8.39,22.28 3.96,-3.22 27.46,-29.97 32.82,-35.76 2.99,-3.23 4.3,-4.88 6.53,-7.26 22.24,-23.87 26.07,-35.38 58.99,-51.3 3.06,-1.48 6.52,-3.11 9.43,-4.36 3.3,-1.42 6.7,-2.5 9.87,-3.86 -0.29,-2.45 -1.97,-3.58 -3.34,-5.42 -1.33,-1.79 -2.75,-3.49 -4.12,-5.28 -8.28,-10.81 -15.89,-20.29 -22.52,-33.27 -9.71,-19 -13.89,-41.18 -13.87,-65.12 0.01,-11 2.05,-22.08 3.24,-32.66 0.31,-2.8 -6.47,-22.35 -7.41,-29.01 -3.31,-23.54 1.48,-23.86 5.66,-45.31 1.31,-6.73 2.47,-8.78 0.23,-15.06 -3.77,-10.57 0.78,-19.45 4.07,-28.27 6.83,-18.31 20.16,-43.35 31.12,-59.75 1.59,-2.38 6.31,-9.01 6.94,-11.19 -22.3,-7.56 -34.91,-12.63 -52.39,-25.91 -10.66,-8.11 -4.55,-11.4 -29.17,3.84 -13.06,8.09 -26.21,16.75 -37.2,25.47l-42.28 36.7c-34,32.93 -65.83,77.07 -86.16,118.8 -1.96,4.03 -9.42,18.93 -9.83,22.49z"/>
   <path class="fil16" d="M520.38 435.37l-3.09 22.54c-0.33,7.33 0.54,19.7 -0.31,25.76 5.13,-5.27 6.48,-6.23 6.32,-10.66 -0.2,-5.42 -0.03,-11.02 0.75,-16.31 0.72,-4.86 1.75,-9.19 3.5,-13.52 1.25,-3.09 5.6,-9.32 5.55,-10.54 -1.03,-0 -5.31,1.22 -6.83,1.73 -6.51,2.18 -4.91,3.96 -5.9,0.99z"/>
   <path class="fil11" d="M428.21 950.01c0.98,1.42 17.7,11.91 20.65,13.77 4.05,2.54 18.67,13.08 22.26,14l1.35 -4.47 0.02 -1.84c-2.41,-0.83 -9.46,-5.5 -11.76,-7.03l-28.48 -17.96c-0.94,-0.24 -5.96,-0.4 -4.03,3.54z"/>
   <path class="fil8" d="M436.37 546.25c0.32,-3.08 -0.78,-8.53 -0.3,-12.98 0.26,-2.42 2.5,-9.92 1.74,-11.05 -7.96,1.4 -19.69,26.88 -0.77,34.31 -3.91,-10.7 -1.63,-5.93 -0.68,-10.28z"/>
   <path class="fil6" d="M677.87 1067.92c8.19,7.08 10.41,4.3 14.86,1.76 4.59,-2.62 11.83,-3.65 9.88,-12.95l0.01 -2.95c-2.48,0.57 -9.83,5.11 -12.81,6.72 -2.63,1.43 -10.79,5.49 -11.95,7.4z"/>
   <path class="fil8" d="M512.35 1072.17c-2.99,-0.72 -9.75,1.15 -15.64,-0.15 -2.03,-0.45 -4.58,-1.42 -6.41,-2.41 -1.69,-0.92 -3.93,-3.7 -4.82,-1.81 0.42,1.89 1.04,2.15 2.43,4.21 1.93,2.89 6.92,11.17 8.89,11.86 6.33,2.22 14.48,-7.28 15.56,-11.71z"/>
   <path class="fil10" d="M716.01 807.96c1.1,1.71 2.18,2.03 3.84,3.29 1.6,1.23 2.39,2.33 4.21,3.37 1.75,-1.82 2.75,-5.95 4.58,-8.8 2.05,-3.18 0.83,-2.28 1.72,-0.67 1.28,-1.6 0.97,-3.31 1.32,-5.56 0.32,-2.06 0.97,-3.19 1.34,-5.27 -3.59,1.8 -9.47,7.38 -12.48,10.45 -3.72,3.8 -2.06,3.25 -4.53,3.18z"/>
   <path class="fil20" d="M530.7 1075.82c-1.29,2.2 -2.65,2.95 -2.8,5.76l16.26 0.21c-0.32,-1.91 -1.74,-4.31 -2.66,-6.31l-10.8 0.35z"/>
   <path class="fil17" d="M528.7 553.6c-1.58,-2.39 0.07,-4.41 -2.69,-7.32 -1.78,-1.87 -3.46,-3 -6.62,-3.2l1.29 1.61c1.45,2.05 1.73,3.6 0.52,6.16 -0.36,0.76 -1.72,2.39 -2.19,2.83 -2,1.85 -1.61,0.77 -2.76,2.95 2.91,0 8.72,-0.23 11.27,-1.98 0.94,-0.64 0.55,-0.33 1.19,-1.06z"/>
  </g>
 </g>
</svg>
