<?xml version="1.0" encoding="UTF-8"?>
<!DOCTYPE svg PUBLIC "-//W3C//DTD SVG 1.1//EN" "http://www.w3.org/Graphics/SVG/1.1/DTD/svg11.dtd">
<!-- Creator: CorelDRAW -->
<svg xmlns="http://www.w3.org/2000/svg" xml:space="preserve" width="4.8686mm" height="223.387mm" version="1.1" style="shape-rendering:geometricPrecision; text-rendering:geometricPrecision; image-rendering:optimizeQuality; fill-rule:evenodd; clip-rule:evenodd"
viewBox="0 0 1092.72 50137.42"
 xmlns:xlink="http://www.w3.org/1999/xlink"
 xmlns:xodm="http://www.corel.com/coreldraw/odm/2003"
 enable-background="new 0 0 17.4 841.9">
 <defs>
  <style type="text/css">
   <![CDATA[
    .fil0 {fill:#668C00;fill-rule:nonzero}
   ]]>
  </style>
 </defs>
 <g id="Layer_x0020_1">
  <metadata id="CorelCorpID_0Corel-Layer"/>
  <g id="_2397229879760">
   <g>
    <g>
     <path class="fil0" d="M11.92 16924.38c0,-23.75 0,-41.57 0,-65.31 11.87,5.95 17.82,11.87 29.69,17.82 154.39,-154.39 308.79,-308.79 457.26,-457.26 -71.26,-71.26 -136.57,-136.57 -207.83,-207.83 -77.21,77.21 -166.27,166.27 -249.42,249.42 -11.87,-5.95 -17.82,-11.87 -29.69,-17.82 0,-23.75 0,-47.51 0,-71.26 11.87,5.95 17.82,17.82 29.69,17.82 71.26,-71.26 142.52,-142.52 213.78,-213.78 -65.31,-65.31 -136.57,-136.57 -207.83,-207.83 -11.87,11.87 -17.82,17.82 -29.69,29.69 0,-41.57 0,-83.13 0,-124.7 5.95,5.95 11.87,5.95 23.75,11.87 0,-17.82 0,-23.75 0,-35.64 0,-118.77 0,-243.47 0,-362.25 0,-17.82 -5.95,-29.69 -23.75,-41.57 0,-23.75 0,-41.57 0,-65.31 5.95,0 11.87,5.95 23.75,11.87 0,-11.87 0,-23.75 0,-29.69 0,-118.77 0,-237.53 0,-356.3 0,-17.82 0,-35.64 -23.75,-47.51 0,-23.75 0,-41.57 0,-65.31 5.95,0 11.87,5.95 23.75,11.87 0,-11.87 0,-23.75 0,-35.64 0,-118.77 0,-237.53 0,-356.3 0,-17.82 0,-41.57 -23.75,-47.51 0,-23.75 0,-41.57 0,-65.31 5.95,0 11.87,5.95 17.82,11.87 0,-130.65 0,-261.3 0,-391.94 -11.87,0 -11.87,5.95 -17.82,11.87 0,-41.57 0,-77.21 0,-118.77 11.87,11.87 23.75,23.75 35.64,29.69 71.26,-71.26 142.52,-142.52 207.83,-207.83 -77.21,-77.21 -160.34,-160.34 -237.53,-249.42 0,-23.75 0,-41.57 0,-65.31 5.95,5.95 17.82,11.87 23.75,17.82 77.21,77.21 160.34,160.34 237.53,237.53 5.95,5.95 11.87,11.87 17.82,17.82 71.26,-71.26 142.52,-142.52 213.78,-213.78 -17.82,-17.82 -41.57,-35.64 -59.39,-53.44 -142.52,-142.52 -290.99,-290.99 -433.51,-433.51 0,-23.75 0,-41.57 0,-65.31 11.87,5.95 17.82,11.87 23.75,17.82 160.34,160.34 320.68,320.68 486.95,486.95 5.95,5.95 11.87,11.87 17.82,17.82 71.26,-71.26 142.52,-142.52 213.78,-207.83 -249.42,-249.42 -492.88,-492.88 -742.3,-742.3 0,-23.75 0,-41.57 0,-65.31 11.87,5.95 17.82,11.87 29.69,23.75 243.47,243.47 486.95,486.95 730.42,730.42 5.95,5.95 17.82,11.87 17.82,17.82 71.26,-71.26 142.52,-142.52 207.83,-207.83 -314.74,-314.74 -635.4,-635.4 -956.08,-956.08 -5.95,5.95 -17.82,11.87 -23.75,17.82 0,-23.75 0,-41.57 0,-65.31 0,-5.95 5.95,-17.82 5.95,-23.75 0,-130.65 0,-261.3 0,-386 0,-5.95 0,-17.82 -5.95,-23.75 0,-41.57 0,-83.13 0,-124.7 11.87,11.87 17.82,17.82 29.69,23.75 237.53,-237.53 475.08,-475.08 706.66,-706.66 -65.31,-71.26 -136.57,-136.57 -207.83,-207.83 -160.34,160.34 -326.61,326.61 -492.88,498.82 -11.87,-11.87 -17.82,-17.82 -29.69,-23.75 0,-23.75 0,-41.57 0,-65.31 11.87,5.95 17.82,11.87 29.69,17.82 154.39,-154.39 308.79,-308.79 457.26,-457.26 -71.26,-71.26 -136.57,-136.57 -207.83,-207.83 -77.21,77.21 -166.27,166.27 -249.42,249.42 -11.87,-5.95 -17.82,-11.87 -29.69,-17.82 0,-23.75 0,-47.51 0,-71.26 11.87,5.95 17.82,17.82 29.69,17.82 71.26,-71.26 142.52,-142.52 213.78,-213.78 -65.31,-65.31 -136.57,-136.57 -207.83,-207.83 -11.87,11.87 -17.82,17.82 -29.69,29.69 0,-41.57 0,-83.13 0,-124.7 5.95,5.95 11.87,5.95 23.75,11.87 0,-17.82 0,-23.75 0,-35.64 0,-118.77 0,-243.47 0,-362.25 0,-17.82 -5.95,-29.69 -23.75,-41.57 0,-23.75 0,-41.57 0,-65.31 5.95,0 11.87,5.95 23.75,11.87 0,-11.87 0,-23.75 0,-29.69 0,-118.77 0,-237.53 0,-356.3 0,-17.82 0,-35.64 -23.75,-47.51 0,-23.75 0,-41.57 0,-65.31 5.95,0 11.87,5.95 23.75,11.87 0,-11.87 0,-23.75 0,-35.64 0,-118.77 0,-237.53 0,-356.3 0,-17.82 0,-41.57 -23.75,-47.51 0,-23.75 0,-41.57 0,-65.31 5.95,0 11.87,5.95 17.82,11.87 0,-130.65 0,-261.3 0,-391.94 -11.87,0 -11.87,5.95 -17.82,11.87 0,-41.57 0,-77.21 0,-118.77 11.87,11.87 23.75,23.75 35.64,29.69 71.26,-71.26 142.52,-142.52 207.83,-207.83 -77.21,-77.21 -160.34,-160.34 -237.53,-249.42 0,-23.75 0,-41.57 0,-65.31 5.95,5.95 17.82,11.87 23.75,17.82 77.21,77.21 160.34,160.34 237.53,237.53 5.95,5.95 11.87,11.87 17.82,17.82 71.26,-71.26 142.52,-142.52 213.78,-213.78 -17.82,-17.82 -41.57,-35.64 -59.39,-53.44 -142.52,-142.52 -290.99,-290.99 -433.51,-433.51 0,-23.75 0,-41.57 0,-65.31 11.87,5.95 17.82,11.87 23.75,17.82 160.34,160.34 320.68,320.68 486.95,486.95 5.95,5.95 11.87,11.87 17.82,17.82 71.26,-71.26 142.52,-142.52 213.78,-213.78 -249.42,-249.42 -498.82,-498.82 -748.25,-742.3 0,-23.75 0,-41.57 0,-65.31 11.87,5.95 17.82,11.87 29.69,23.75 243.47,243.47 486.95,486.95 730.42,730.42 5.95,5.95 17.82,11.87 17.82,17.82 71.26,-71.26 142.52,-142.52 207.83,-207.83 -320.68,-314.74 -635.4,-635.4 -956.08,-950.13 -5.95,5.95 -17.82,11.87 -23.75,17.82 0,-23.75 0,-41.57 0,-65.31 0,-5.95 5.95,-17.82 5.95,-23.75 0,-130.65 0,-261.3 0,-386 0,-5.95 0,-17.82 -5.95,-23.75 0,-41.57 0,-83.13 0,-124.7 11.87,11.87 17.82,17.82 29.69,23.75 237.53,-237.53 475.08,-475.08 706.66,-706.66 -65.31,-71.26 -136.57,-136.57 -207.83,-207.83 -160.34,160.34 -326.61,326.61 -492.88,498.82 -11.87,-11.87 -17.82,-17.82 -29.69,-23.75 0,-23.75 0,-41.57 0,-65.31 11.87,5.95 17.82,11.87 29.69,17.82 154.39,-154.39 308.79,-308.79 457.26,-457.26 -71.26,-71.26 -136.57,-136.57 -207.83,-207.83 -77.21,77.21 -166.27,166.27 -249.42,249.42 -11.87,-5.95 -17.82,-11.87 -29.69,-17.82 0,-23.75 0,-47.51 0,-71.26 11.87,5.95 17.82,17.82 29.69,17.82 71.26,-71.26 142.52,-142.52 213.78,-213.78 -65.31,-65.31 -136.57,-136.57 -207.83,-207.83 -11.87,11.87 -17.82,17.82 -29.69,29.69 0,-41.57 0,-83.13 0,-124.7 5.95,5.95 11.87,5.95 23.75,11.87 0,-17.82 0,-23.75 0,-35.64 0,-118.77 0,-243.47 0,-362.25 0,-17.82 -5.95,-29.69 -23.75,-41.57 0,-23.75 0,-41.57 0,-65.31 5.95,0 11.87,5.95 23.75,11.87 0,-11.87 0,-23.75 0,-29.69 0,-118.77 0,-237.53 0,-356.3 0,-17.82 0,-35.64 -23.75,-47.51 0,-23.75 0,-41.57 0,-65.31 5.95,0 11.87,5.95 23.75,11.87 0,-11.87 0,-23.75 0,-35.64 0,-118.77 0,-237.53 0,-356.3 0,-17.82 0,-41.57 -23.75,-47.51 0,-23.75 0,-41.57 0,-65.31 5.95,0 11.87,5.95 17.82,11.87 0,-130.65 0,-261.3 0,-391.94 -11.87,0 -11.87,5.95 -17.82,11.87 0,-41.57 0,-77.21 0,-118.77 11.87,11.87 23.75,23.75 35.64,29.69 71.26,-71.26 142.52,-142.52 207.83,-207.83 -77.21,-77.21 -160.34,-160.34 -237.53,-249.42 0,-23.75 0,-41.57 0,-65.31 5.95,5.95 17.82,11.87 23.75,17.82 77.21,77.21 160.34,160.34 237.53,237.53 5.95,5.95 11.87,11.87 17.82,17.82 71.26,-71.26 142.52,-142.52 213.78,-213.78 -17.82,-17.82 -41.57,-35.64 -59.39,-53.44 -148.47,-148.47 -290.99,-290.99 -433.51,-439.44 0,-23.75 0,-41.57 0,-65.31 -47.54,-41.81 -35.66,-35.89 -29.72,-29.94 160.34,160.34 320.68,320.68 486.95,481 5.95,5.95 11.87,11.87 17.82,17.82 71.26,-71.26 142.52,-142.52 213.78,-207.83 -249.42,-249.42 -498.82,-492.9 -742.3,-736.37 0,-23.75 0,-41.57 0,-65.31 11.87,5.95 17.82,11.87 29.69,23.75 243.47,243.47 486.95,486.95 730.42,730.42 5.95,5.95 17.82,11.87 17.82,17.82 71.26,-71.26 142.52,-142.52 207.83,-207.83 -326.63,-320.68 -641.34,-641.37 -962.03,-956.1 -5.95,0 -17.82,5.95 -23.75,17.82 0,-65.31 0,-124.7 0,-190.04 17.82,0 35.64,0 53.44,0 0,29.69 0,65.31 0,95.01 0,11.87 5.95,29.69 17.82,41.57 47.49,53.46 106.88,106.9 160.32,160.34 0,0 5.95,5.95 17.82,11.9 0,-106.9 0,-207.83 0,-308.79 17.82,0 29.69,0 47.51,0 0,112.83 0,231.6 0,344.43 5.93,11.85 11.87,23.72 17.82,35.62 53.44,53.44 106.88,106.88 166.27,160.32 5.95,5.95 11.87,5.95 17.82,11.87 0,-77.21 0,-148.47 0,-213.78 0,-112.83 0,-225.65 0,-338.48 17.82,0 29.69,0 47.51,0 0,201.91 0,397.87 0,593.83 0,11.87 5.95,23.75 11.87,29.69 53.44,53.44 106.9,106.9 160.34,160.34 5.95,5.95 11.87,5.95 17.82,11.87 0,-17.82 0,-29.69 0,-41.57 0,-243.47 0,-486.95 0,-730.42 0,-11.87 0,-23.75 0,-35.64 11.87,0 29.69,0 41.57,0 0,11.87 0,23.75 0,41.57 0,261.3 0,522.57 0,789.81 0,11.87 0,29.69 11.87,41.57 65.31,65.31 130.65,130.65 195.96,195.96 0,41.57 0,83.13 0,124.7 -59.39,59.39 -112.83,118.77 -172.21,184.09 53.44,53.44 112.83,112.83 172.21,172.21 0,23.75 0,41.57 0,65.31 -41.57,-41.57 -83.13,-77.21 -124.7,-118.77 -29.69,-29.69 -59.39,-59.39 -83.13,-83.13 -71.26,71.26 -142.52,142.52 -207.83,207.83 0,0 5.95,5.95 11.87,11.87 130.65,130.65 261.3,261.3 391.94,391.94 5.95,5.95 11.87,5.95 17.82,11.87 0,23.75 0,47.51 0,71.26 -5.95,-5.95 -17.82,-11.87 -23.75,-17.82 -136.57,-136.57 -273.17,-273.17 -409.74,-409.74 -11.87,-11.87 -11.87,-17.82 -17.82,-23.75 -77.21,77.21 -142.52,148.47 -213.78,213.78 0,0 5.95,5.95 11.87,11.87 213.78,213.78 427.56,427.56 635.4,635.4 5.95,5.95 11.87,11.87 17.82,11.87 0,23.75 0,47.51 0,71.26 -11.87,-11.87 -17.82,-17.82 -23.75,-23.75 -219.73,-219.73 -433.51,-433.51 -653.22,-653.22 -5.99,-11.83 -11.94,-17.78 -17.87,-23.7 -71.26,71.26 -142.52,142.52 -207.83,207.83 5.95,5.95 11.87,11.87 17.82,17.82 219.73,219.73 433.51,433.51 653.22,653.22 77.21,77.21 160.34,160.34 237.53,237.53 0,23.75 0,41.57 0,65.31 -5.95,-5.95 -17.82,-11.87 -23.75,-17.82 -130.65,-130.65 -255.35,-255.35 -386,-386 -5.95,-5.95 -11.87,-17.82 -11.87,-29.69 0,0 -5.95,5.95 -11.87,11.87 0,285.04 0,564.14 0,849.18 0,0 5.95,0 5.95,5.95 5.95,-5.95 11.87,-17.82 17.82,-23.75 130.65,-130.65 255.35,-255.35 380.05,-380.05 5.95,-5.95 17.82,-11.87 23.75,-17.82 0,23.75 0,41.57 0,65.31 -11.87,11.87 -17.82,17.82 -23.75,23.75 -148.47,148.47 -296.91,296.91 -445.38,445.38 -142.52,142.52 -279.09,279.09 -421.61,421.61 -5.95,5.95 -11.87,17.82 -17.82,17.82 71.26,71.26 142.52,142.52 213.78,213.78 5.95,-11.87 11.87,-17.82 17.82,-29.69 219.73,-219.73 433.51,-439.44 653.22,-653.22 5.95,-5.95 17.82,-11.87 23.75,-17.82 0,23.75 0,47.51 0,71.26 -5.95,5.95 -11.87,11.87 -17.82,17.82 -207.83,207.83 -421.61,421.61 -629.47,629.47 -5.95,5.95 -11.87,11.87 -17.82,17.82 71.26,71.26 142.52,142.52 207.83,207.83 5.95,-5.95 11.87,-11.87 23.75,-17.82 136.57,-136.57 273.17,-273.17 409.74,-409.74 5.95,-5.95 17.82,-11.87 23.75,-17.82 0,23.75 0,47.51 0,71.26 -5.95,5.95 -11.87,11.87 -17.82,11.87 -130.65,130.65 -261.3,261.3 -391.94,391.94 -5.95,5.95 -11.87,11.87 -11.87,11.87 71.26,71.26 142.52,142.52 207.83,207.83 47.51,-47.51 106.9,-106.9 160.34,-160.34 17.82,-17.82 29.69,-29.69 47.51,-41.57 0,23.75 0,41.57 0,65.31 -59.39,59.39 -118.77,118.77 -172.21,172.21 59.39,59.39 118.77,118.77 172.21,178.16 0,23.75 0,41.57 0,65.31 -5.95,-5.95 -17.82,-11.87 -23.75,-17.82 -53.44,-53.44 -106.9,-106.9 -160.34,-160.34 -5.95,-5.95 -11.87,-11.87 -23.75,-17.82 0,17.82 0,29.69 0,41.57 0,350.35 0,700.73 0,1051.09 0,267.22 0,534.46 0,807.61 0,11.87 0,29.69 11.87,41.57 65.31,65.31 130.65,130.65 195.96,195.96 0,41.57 0,83.13 0,124.7 -59.39,59.39 -112.83,118.77 -172.21,184.09 53.44,53.44 112.83,112.83 172.21,172.21 0,23.75 0,41.57 0,65.31 -41.57,-41.57 -83.13,-77.21 -124.7,-118.77 -29.69,-29.69 -59.39,-59.39 -83.13,-83.13 -71.26,71.26 -142.52,142.52 -207.83,207.83 0,0 5.95,5.95 11.87,11.87 130.65,130.65 261.3,261.3 391.94,391.94 5.95,5.95 11.87,5.95 17.82,11.87 0,23.75 0,47.51 0,71.26 -5.95,-5.95 -17.82,-11.87 -23.75,-17.82 -136.57,-136.57 -273.17,-273.17 -409.74,-409.74 -11.87,-11.87 -11.87,-17.82 -17.82,-23.75 -77.21,77.21 -142.52,148.47 -213.78,213.78 0,0 5.95,5.95 11.87,11.87 213.78,213.78 427.56,427.56 635.4,635.4 5.95,5.95 11.87,11.87 17.82,11.87 0,23.75 0,47.51 0,71.26 -11.87,-11.87 -17.82,-17.82 -23.75,-23.75 -219.73,-219.73 -433.51,-433.51 -653.22,-653.22 -11.87,-11.87 -17.82,-17.82 -17.82,-17.82 -71.26,71.26 -142.52,142.52 -207.83,207.83 5.95,5.95 11.87,11.87 17.82,17.82 219.73,219.73 433.51,433.51 653.22,653.22 77.21,77.21 160.34,160.34 237.53,237.53 0,23.75 0,41.57 0,65.31 -5.95,-5.95 -17.82,-11.87 -23.75,-17.82 -130.65,-130.65 -255.35,-255.35 -386,-386 -5.95,-5.95 -11.87,-17.82 -11.87,-29.69 0,0 -5.95,5.95 -11.87,11.87 0,285.04 0,564.14 0,849.18 0,0 5.95,0 5.95,0 5.95,-5.95 11.87,-11.87 17.82,-17.82 130.65,-130.65 255.35,-255.35 380.05,-380.05 5.95,-5.95 17.82,-11.87 23.75,-17.82 0,23.75 0,41.57 0,65.31 -11.87,11.87 -17.82,17.82 -23.75,23.75 -148.47,148.47 -296.91,296.91 -445.38,445.38 -142.52,142.52 -279.09,279.09 -421.61,421.61 -5.95,5.95 -11.87,17.82 -17.82,17.82 71.26,71.26 142.52,142.52 213.78,213.78 5.95,-11.87 11.87,-17.82 17.82,-29.69 219.73,-219.73 433.51,-439.44 653.22,-653.22 5.95,-5.95 17.82,-11.87 23.75,-17.82 0,23.75 0,47.51 0,71.26 -5.95,5.95 -11.87,11.87 -17.82,17.82 -207.83,207.83 -421.61,421.61 -629.47,629.47 -5.95,5.95 -11.87,11.87 -17.82,17.82 71.26,71.26 142.52,142.52 207.83,207.83 5.95,-5.95 11.87,-11.87 23.75,-17.82 136.57,-136.57 273.17,-273.17 409.74,-409.74 5.95,-5.95 17.82,-11.87 23.75,-17.82 0,23.75 0,47.51 0,71.26 -5.95,5.95 -11.87,11.87 -17.82,11.87 -130.65,130.65 -261.3,261.3 -391.94,391.94 -5.95,5.95 -11.87,11.87 -11.87,11.87 71.26,71.26 142.52,142.52 207.83,207.83 47.51,-47.51 106.9,-106.9 160.34,-160.34 17.82,-17.82 29.69,-29.69 47.51,-41.57 0,23.75 0,41.57 0,65.31 -59.39,59.39 -118.77,118.77 -172.21,172.21 59.39,59.39 118.77,118.77 172.21,178.16 0,23.75 0,41.57 0,65.31 -5.95,-5.95 -17.82,-11.87 -23.75,-17.82 -53.44,-53.44 -106.9,-106.9 -160.34,-160.34 -5.95,-5.95 -11.87,-11.87 -23.75,-17.82 0,17.82 0,29.69 0,41.57 0,350.35 0,700.73 0,1051.09 0,267.22 0,534.46 0,807.61 0,11.87 0,29.69 11.87,41.57 65.31,65.31 130.65,130.65 195.96,195.96 0,41.57 0,83.13 0,124.7 -59.39,59.39 -112.83,118.77 -172.21,184.09 53.44,53.44 112.83,112.83 172.21,172.21 0,23.75 0,41.57 0,65.31 -41.57,-41.57 -83.13,-77.21 -124.7,-118.77 -29.69,-29.69 -59.39,-59.39 -83.13,-83.13 -71.26,71.26 -142.52,142.52 -207.83,207.83 0,0 5.95,5.95 11.87,11.87 130.65,130.65 261.3,261.3 391.94,391.94 5.95,5.95 11.87,5.95 17.82,11.87 0,23.75 0,47.51 0,71.26 -5.95,-5.95 -17.82,-11.87 -23.75,-17.82 -136.57,-136.57 -273.17,-273.17 -409.74,-409.74 -11.87,-11.87 -11.87,-17.82 -17.82,-23.75 -77.21,77.21 -142.52,148.47 -213.78,213.78 0,0 5.95,5.95 11.87,11.87 213.78,213.78 427.56,427.56 635.4,635.4 5.95,5.95 11.87,11.87 17.82,11.87 0,23.75 0,47.51 0,71.26 -11.87,-11.87 -17.82,-17.82 -23.75,-23.75 -219.73,-219.73 -433.51,-433.51 -653.22,-653.22 -11.87,-11.87 -17.82,-17.82 -17.82,-17.82 -71.26,71.26 -142.52,142.52 -207.83,207.83 5.95,5.95 11.87,11.87 17.82,17.82 219.73,219.73 433.51,433.51 653.22,653.22 77.21,77.21 160.34,160.34 237.53,237.53 0,23.75 0,41.57 0,65.31 -5.95,-5.95 -17.82,-11.87 -23.75,-17.82 -130.65,-130.65 -255.35,-255.35 -386,-386 -5.95,-5.95 -11.87,-17.82 -11.87,-29.69 0,0 -5.95,5.95 -11.87,11.87 0,285.04 0,564.14 0,855.12 11.87,-11.87 17.82,-17.82 23.75,-23.75 130.65,-130.65 255.35,-255.35 380.05,-380.05 5.95,-5.95 17.82,-11.87 23.75,-17.82 0,23.75 0,41.57 0,65.31 -11.87,11.87 -17.82,17.82 -23.75,23.75 -148.47,148.47 -296.91,296.91 -445.38,445.38 -142.52,142.52 -279.09,279.09 -421.61,421.61 -5.95,5.95 -11.87,17.82 -17.82,17.82 71.26,71.26 142.52,142.52 213.78,213.78 5.95,-11.87 11.87,-17.82 17.82,-29.69 219.73,-219.73 433.51,-439.44 653.22,-653.22 5.95,-5.95 17.82,-11.87 23.75,-17.82 0,23.75 0,47.51 0,71.26 -5.95,5.95 -11.87,11.87 -17.82,17.82 -207.83,207.83 -421.61,421.61 -629.47,629.47 -5.95,5.95 -11.87,11.87 -17.82,17.82 71.26,71.26 142.52,142.52 207.83,207.83 5.95,-5.95 11.87,-11.87 23.75,-17.82 136.57,-136.57 273.17,-273.17 409.74,-409.74 5.95,-5.95 17.82,-11.87 23.75,-17.82 0,23.75 0,47.51 0,71.26 -5.95,5.95 -11.87,11.87 -17.82,11.87 -130.65,130.65 -261.3,261.3 -391.94,391.94 -5.95,5.95 -11.87,11.87 -11.87,11.87 71.26,71.26 142.52,142.52 207.83,207.83 53.44,-53.44 106.9,-106.9 160.34,-160.34 17.82,-17.82 29.69,-29.69 47.51,-41.57 0,23.75 0,41.57 0,65.31 -59.39,59.39 -118.77,118.77 -172.21,172.21 59.39,59.39 118.77,118.77 172.21,178.16 0,23.75 0,41.57 0,65.31 -5.95,-5.95 -17.82,-11.87 -23.75,-17.82 -53.44,-53.44 -106.9,-106.9 -160.34,-160.34 -5.95,-5.95 -11.87,-11.87 -23.75,-17.82 0,17.82 0,29.69 0,41.57 0,350.35 0,700.73 0,1051.09 0,267.22 0,534.46 0,807.61 0,11.87 0,29.69 11.87,41.57 65.31,65.31 130.65,130.65 195.96,195.96 0,41.57 0,83.13 0,124.7 -59.39,59.39 -112.83,118.77 -172.21,184.09 53.44,53.44 112.83,112.83 172.21,172.21 0,23.75 0,41.57 0,65.31 -41.57,-41.57 -83.13,-77.21 -124.7,-118.77 -29.69,-29.69 -59.39,-59.39 -83.13,-83.13 -71.26,71.26 -142.52,142.52 -207.83,207.83 0,0 5.95,5.95 11.87,11.87 130.65,130.65 261.3,261.3 391.94,391.94 5.95,5.95 11.87,5.95 17.82,11.87 0,23.75 0,47.51 0,71.26 -5.95,-5.95 -17.82,-11.87 -23.75,-17.82 -136.57,-136.57 -273.17,-273.17 -409.74,-409.74 -11.87,-11.87 -11.87,-17.82 -17.82,-23.75 -77.21,77.21 -142.52,148.47 -213.78,213.78 0,0 5.95,5.95 11.87,11.87 213.78,213.78 427.56,427.56 635.4,635.4 5.95,5.95 11.87,11.87 17.82,11.87 0,23.75 0,47.51 0,71.26 -11.87,-11.87 -17.82,-17.82 -23.75,-23.75 -219.73,-219.73 -433.51,-433.51 -653.22,-653.22 -11.87,-11.87 -17.82,-17.82 -17.82,-17.82 -71.26,71.26 -142.52,142.52 -207.83,207.83 5.95,5.95 11.87,11.87 17.82,17.82 219.73,219.73 433.51,433.51 653.22,653.22 77.21,77.21 160.34,160.34 237.53,237.53 0,23.75 0,41.57 0,65.31 -5.95,-5.95 -17.82,-11.87 -23.75,-17.82 -130.65,-130.65 -255.35,-255.35 -386,-386 -5.95,-5.95 -11.87,-17.82 -11.87,-29.69 0,0 -5.95,5.95 -11.87,11.87 0,285.04 0,564.14 0,849.18 0,0 5.95,0 5.95,5.95 5.95,-5.95 11.87,-17.82 17.82,-23.75 130.65,-130.65 255.35,-255.35 380.05,-380.05 5.95,-5.95 17.82,-11.87 23.75,-17.82 0,23.75 0,41.57 0,65.31 -11.87,11.87 -17.82,17.82 -23.75,23.75 -148.47,148.47 -296.91,296.91 -445.38,445.38 -142.52,142.52 -279.09,279.09 -421.61,421.61 -5.95,5.95 -11.87,17.82 -17.82,17.82 71.26,71.26 142.52,142.52 213.78,213.78 5.95,-11.87 11.87,-17.82 17.82,-29.69 219.73,-219.73 433.51,-439.44 653.22,-653.22 5.95,-5.95 17.82,-11.87 23.75,-17.82 0,23.75 0,47.51 0,71.26 -5.95,5.95 -11.87,11.87 -17.82,17.82 -207.83,207.83 -421.61,421.61 -629.47,629.47 -5.95,5.95 -11.87,11.87 -17.82,17.82 71.26,71.26 142.52,142.52 207.83,207.83 5.95,-5.95 11.87,-11.87 23.75,-17.82 136.57,-136.57 273.17,-273.17 409.74,-409.74 5.95,-5.95 17.82,-11.87 23.75,-17.82 0,23.75 0,47.51 0,71.26 -5.95,5.95 -11.87,11.87 -17.82,11.87 -130.65,130.65 -261.3,261.3 -391.94,391.94 -5.95,5.95 -11.87,11.87 -11.87,11.87 71.26,71.26 142.52,142.52 207.83,207.83 53.44,-53.44 106.9,-106.9 160.34,-160.34 17.82,-17.82 29.69,-29.69 47.51,-41.57 0,23.75 0,41.57 0,65.31 -59.39,59.39 -118.77,118.77 -172.21,172.21 59.39,59.39 118.77,118.77 172.21,178.16 0,23.75 0,41.57 0,65.31 -5.95,-5.95 -17.82,-11.87 -23.75,-17.82 -53.44,-53.44 -106.9,-106.9 -160.34,-160.34 -5.95,-5.95 -11.87,-11.87 -23.75,-17.82 0,17.82 0,29.69 0,41.57 0,350.35 0,700.73 0,1051.09 0,267.22 0,534.46 0,807.61 0,11.87 0,29.69 11.87,41.57 65.31,65.31 130.65,130.65 195.96,195.96 0,41.57 0,83.13 0,124.7 -59.39,59.39 -112.83,118.77 -172.21,184.09 53.44,53.44 112.83,112.83 172.21,172.21 0,23.75 0,41.57 0,65.31 -41.57,-41.57 -83.13,-77.21 -124.7,-118.77 -29.69,-29.69 -59.39,-59.39 -83.13,-83.13 -71.26,71.26 -142.52,142.52 -207.83,207.83 0,0 5.95,5.95 11.87,11.87 130.65,130.65 261.3,261.3 391.94,391.94 5.95,5.95 11.87,5.95 17.82,11.87 0,23.75 0,47.51 0,71.26 -5.95,-5.95 -17.82,-11.87 -23.75,-17.82 -136.57,-136.57 -273.17,-273.17 -409.74,-409.74 -11.87,-11.87 -11.87,-17.82 -17.82,-23.75 -77.21,77.21 -142.52,148.47 -213.78,213.78 0,0 5.95,5.95 11.87,11.87 213.78,213.78 427.56,427.56 635.4,635.4 5.95,5.95 11.87,11.87 17.82,11.87 0,23.75 0,47.51 0,71.26 -11.87,-11.87 -17.82,-17.82 -23.75,-23.75 -219.73,-219.73 -433.51,-433.51 -653.22,-653.22 -11.87,-11.87 -11.87,-17.82 -17.82,-23.75 -77.21,77.21 -142.52,142.52 -219.73,219.73 5.95,5.95 11.87,11.87 17.82,17.82 154.39,154.39 308.79,308.79 457.26,457.26 5.95,5.95 11.87,17.82 17.82,23.75 -23.75,0 -47.51,0 -71.26,0 -5.95,-5.95 -11.87,-17.82 -17.82,-23.75 -47.51,-47.51 -95.01,-95.01 -142.52,-142.52 -5.95,-11.87 -11.87,-17.82 -17.82,-29.69 -5.95,0 -11.87,5.95 -11.87,11.87 0,59.39 0,124.7 0,190.04 -17.82,0 -29.69,0 -47.51,0 0,-77.21 0,-148.47 0,-225.65 0,-11.87 -5.95,-29.69 -11.87,-35.64 -59.39,-59.39 -112.83,-118.77 -172.21,-172.21 -5.95,-5.95 -5.95,-5.95 -17.82,-11.87 0,17.82 0,23.75 0,35.64 0,136.57 0,273.17 0,409.74 -23.75,0 -47.51,0 -71.26,0 0,-23.75 0,-47.51 0,-77.21 5.95,0 11.87,5.95 17.82,11.87 0,-130.65 0,-261.3 0,-391.94 -11.87,0 -11.87,5.95 -17.82,11.87 0,-41.57 0,-77.21 0,-118.77 11.87,11.87 23.75,23.75 35.64,29.69 71.26,-71.26 142.52,-142.52 207.83,-207.83 -77.21,-77.21 -160.34,-160.34 -237.53,-249.42 0,-23.75 0,-41.57 0,-65.31 5.95,5.95 17.82,11.87 23.75,17.82 77.21,77.21 160.34,160.34 237.53,237.53 5.95,5.95 11.87,11.87 17.82,17.82 71.26,-71.26 142.52,-142.52 213.78,-213.78 -17.82,-17.82 -41.57,-35.64 -59.39,-53.44 -142.52,-142.52 -290.99,-290.99 -433.51,-433.51 0,-23.75 0,-41.57 0,-65.31 11.87,5.95 17.82,11.87 23.75,17.82 160.34,160.34 320.68,320.68 486.95,486.95 5.95,5.95 11.87,11.87 17.82,17.82 71.26,-71.26 142.52,-142.52 213.78,-213.78 -243.47,-243.47 -492.88,-486.95 -736.35,-736.35 0,-23.75 0,-41.57 0,-65.31 11.87,5.95 17.82,11.87 29.69,23.75 243.47,243.47 486.95,486.95 730.42,730.42 5.95,5.95 17.82,11.87 17.82,17.82 71.26,-71.26 142.52,-142.52 207.83,-207.83 -314.74,-314.74 -635.4,-635.4 -956.08,-956.08 -5.95,5.95 -17.82,11.87 -23.75,17.82 0,-23.75 0,-41.57 0,-65.31 0,-5.95 5.95,-17.82 5.95,-23.75 0,-130.65 0,-261.3 0,-386 0,-5.95 0,-17.82 -5.95,-23.75 0,-41.57 0,-83.13 0,-124.7 11.87,11.87 17.82,17.82 29.69,23.75 237.53,-237.53 475.08,-475.08 706.66,-706.66 -65.31,-71.26 -136.57,-136.57 -207.83,-207.83 -160.34,160.34 -326.61,326.61 -492.88,498.82 -11.87,-11.87 -17.82,-17.82 -29.69,-23.75 0,-23.75 0,-41.57 0,-65.31 11.87,5.95 17.82,11.87 29.69,17.82 154.39,-154.39 308.79,-308.79 457.26,-457.26 -71.26,-71.26 -136.57,-136.57 -207.83,-207.83 -77.21,77.21 -166.27,166.27 -249.42,249.42 -11.87,-5.95 -17.82,-11.87 -29.69,-17.82 0,-23.75 0,-47.51 0,-71.26 11.87,5.95 17.82,17.82 29.69,17.82 71.26,-71.26 142.52,-142.52 213.78,-213.78 -65.31,-65.31 -136.57,-136.57 -207.83,-207.83 -11.87,11.87 -17.82,17.82 -29.69,29.69 0,-41.57 0,-83.13 0,-124.7 5.95,5.95 11.87,5.95 23.75,11.87 0,-17.82 0,-23.75 0,-35.64 0,-118.77 0,-243.47 0,-362.25 0,-17.82 -5.95,-29.69 -23.75,-41.57 0,-23.75 0,-41.57 0,-65.31 5.95,0 11.87,5.95 23.75,11.87 0,-11.87 0,-23.75 0,-29.69 0,-118.77 0,-237.53 0,-356.3 0,-17.82 0,-35.64 -23.75,-47.51 0,-23.75 0,-41.57 0,-65.31 5.95,0 11.87,5.95 23.75,11.87 0,-11.87 0,-23.75 0,-35.64 0,-118.77 0,-237.53 0,-356.3 0,-17.82 0,-41.57 -23.75,-47.51 0,-23.75 0,-41.57 0,-65.31 5.95,0 11.87,5.95 17.82,11.87 0,-130.65 0,-261.3 0,-391.94 -11.87,0 -11.87,5.95 -17.82,11.87 0,-41.57 0,-77.21 0,-118.77 11.87,11.87 23.75,23.75 35.64,29.69 71.26,-71.26 142.52,-142.52 207.83,-207.83 -77.21,-77.21 -160.34,-160.34 -237.53,-249.42 0,-23.75 0,-41.57 0,-65.31 5.95,5.95 17.82,11.87 23.75,17.82 77.21,77.21 160.34,160.34 237.53,237.53 5.95,5.95 11.87,11.87 17.82,17.82 71.26,-71.26 142.52,-142.52 213.78,-213.78 -17.82,-17.82 -41.57,-35.64 -59.39,-53.44 -142.52,-142.52 -290.99,-290.99 -433.51,-433.51 0,-23.75 0,-41.57 0,-65.31 11.87,5.95 17.82,11.87 23.75,17.82 160.34,160.34 320.68,320.68 486.95,486.95 5.95,5.95 11.87,11.87 17.82,17.82 71.26,-71.26 142.52,-142.52 213.78,-207.83 -285.04,-237.53 -534.46,-486.95 -777.92,-730.42 0,-23.75 0,-41.57 0,-65.31 11.87,5.95 17.82,11.87 29.69,23.75 243.47,243.47 486.95,486.95 730.42,730.42 5.95,5.95 17.82,11.87 17.82,17.82 71.26,-71.26 142.52,-142.52 207.83,-207.83 -314.74,-320.68 -635.4,-635.4 -956.08,-956.08 -5.95,5.95 -17.82,11.87 -23.75,17.82 0,-23.75 0,-41.57 0,-65.31 0,-5.95 5.95,-17.82 5.95,-23.75 0,-130.65 0,-261.3 0,-386 0,-5.95 0,-17.82 -5.95,-23.75 0,-41.57 0,-83.13 0,-124.7 11.87,11.87 17.82,17.82 29.69,23.75 237.53,-237.53 475.08,-475.08 706.66,-706.66 -71.26,-71.26 -136.57,-136.57 -207.83,-207.83 -160.34,160.34 -326.61,326.61 -492.88,498.82 -11.9,-82.82 -23.77,-88.74 -29.69,-100.62zm71.26 4869.45c5.95,0 5.95,0 11.87,-5.95 59.39,-59.39 118.77,-118.77 178.16,-178.16 5.95,-5.95 11.87,-17.82 11.87,-29.69 0,-469.13 0,-938.26 0,-1413.33 0,-11.87 -5.95,-23.75 -11.87,-29.69 -59.39,-59.39 -118.77,-118.77 -178.16,-178.16 0,0 -5.95,0 -11.87,-5.95 0,617.64 0,1229.29 0,1840.94zm0 -19620.35c0,617.6 0,1229.25 0,1846.82 5.95,0 11.87,-5.95 11.87,-5.95 59.39,-59.39 118.77,-118.77 178.16,-178.16 5.95,-5.95 11.87,-17.82 11.87,-29.69 0,-469.13 0,-938.26 0,-1407.39 0,-11.87 0,-17.82 -5.95,-29.69 -65.31,-65.31 -124.7,-130.63 -195.96,-195.94zm0 13693.87c5.95,0 11.87,-5.95 11.87,-5.95 59.39,-59.39 118.77,-118.77 178.16,-178.16 5.95,-5.95 11.87,-17.82 11.87,-29.69 0,-469.13 0,-938.26 0,-1407.39 0,-11.87 -5.95,-29.69 -17.82,-41.57 -53.44,-59.39 -106.9,-112.83 -166.27,-166.27 -5.95,-5.95 -11.87,-11.87 -17.82,-11.87 0,617.6 0,1229.25 0,1840.9zm0 -7767.38c0,617.6 0,1229.25 0,1846.82 5.95,0 5.95,0 11.87,-5.95 59.39,-59.39 118.77,-118.77 184.09,-184.09 5.95,-5.95 11.87,-17.82 11.87,-29.69 0,-469.13 0,-938.26 0,-1407.39 0,-11.87 0,-17.82 -5.95,-29.69 -71.24,-59.36 -130.63,-124.7 -201.89,-190.01zm671.04 14560.87c-59.39,59.39 -118.77,118.77 -178.16,178.16 -11.87,11.87 -17.82,29.69 -17.82,41.57 0,475.08 0,944.21 0,1419.26 0,11.87 5.95,29.69 17.82,41.57 53.44,53.44 106.9,106.9 160.34,160.34 5.95,5.95 11.87,11.87 17.82,17.82 0,-623.55 0,-1235.2 0,-1858.72zm0 -15914.81c0,-623.52 0,-1235.17 0,-1858.72 -59.39,59.39 -112.83,112.83 -172.21,172.21 -17.82,17.82 -23.75,35.64 -23.75,59.39 0,457.26 0,920.44 0,1377.69 0,41.57 11.87,71.26 41.57,100.95 53.44,41.57 100.93,89.08 154.39,148.47zm-5.95 5926.49c0,-623.52 0,-1235.17 0,-1858.72 -59.39,59.39 -112.83,112.83 -172.21,172.21 -17.82,17.82 -23.75,35.64 -23.75,59.39 0,433.51 0,872.95 0,1306.43 0,41.57 -11.87,89.08 5.95,124.7 17.82,35.64 53.44,59.39 83.13,89.08 41.57,29.69 71.26,65.34 106.88,106.9zm5.95 4061.84c-59.39,59.39 -106.9,112.83 -166.27,166.27 -23.75,17.82 -29.69,41.57 -29.69,71.26 0,112.83 0,231.6 0,344.43 0,350.35 0,700.73 0,1045.16 0,23.75 5.95,41.57 23.75,53.44 41.57,41.57 89.08,89.08 130.65,130.65 11.87,11.87 23.75,29.69 35.64,41.57 0,0 5.95,-5.95 5.95,-5.95 -0.02,-611.65 -0.02,-1223.3 -0.02,-1846.82zm-255.35 -4311.27c0,0 5.95,-5.95 5.95,-5.95 0,-451.31 0,-902.64 0,-1353.95 -5.95,0 -5.95,0 -11.87,5.95 -59.39,59.39 -118.77,118.77 -172.21,172.21 -5.97,5.95 -5.97,17.82 -5.97,29.69 0,308.79 0,623.52 0,932.33 0,11.87 5.95,29.69 17.82,41.57 41.57,47.51 89.08,89.08 130.65,130.65 11.87,17.82 23.75,29.69 35.64,47.49zm5.93 -5926.49c0,-457.26 0,-908.56 0,-1365.82 -11.87,11.87 -17.82,11.87 -23.75,17.82 -47.51,53.44 -89.08,100.95 -142.52,148.45 -17.82,17.82 -29.69,41.57 -29.69,65.31 0,290.99 0,576.03 0,861.07 0,59.39 11.87,100.95 59.39,136.57 47.49,41.59 89.06,89.1 136.57,136.6zm-5.93 11852.99c0,0 5.95,-5.95 11.87,-5.95 0,-451.31 0,-902.64 0,-1353.95 -5.95,0 -5.95,0 -11.87,5.95 -59.39,59.39 -118.77,118.77 -172.21,172.21 -11.9,5.93 -11.9,17.8 -11.9,29.67 0,314.74 0,623.52 0,938.26 0,11.87 5.95,23.75 17.82,35.64 35.64,41.57 71.26,71.26 106.9,112.83 17.8,17.82 41.57,41.57 59.39,65.34zm5.93 4560.67c-5.95,0 -5.95,0 -11.87,5.95 -59.39,59.39 -118.77,118.77 -172.21,172.21 -5.95,11.85 -5.95,23.72 -5.95,35.62 0,308.79 0,623.52 0,932.33 0,11.87 5.95,29.69 17.82,41.57 41.57,47.51 89.08,89.08 130.65,130.65 11.87,11.87 23.75,29.69 41.57,47.51 0,0 5.95,-5.95 5.95,-5.95 -5.95,-451.33 -5.95,-902.64 -5.95,-1359.9zm-166.27 -8634.4c0,451.31 0,896.69 0,1348 59.39,-59.39 118.77,-118.77 178.16,-178.16 5.95,-5.95 11.87,-17.82 11.87,-29.69 0,-308.79 0,-617.6 0,-926.39 0,-11.87 0,-17.82 -11.87,-29.69 -59.41,-59.34 -112.85,-118.73 -178.16,-184.07zm0 -5926.49c0,451.31 0,896.69 0,1342.07 59.39,-59.39 118.77,-118.77 178.16,-178.16 5.95,-5.95 11.87,-17.82 11.87,-29.69 0,-308.79 0,-617.6 0,-926.39 0,-11.87 0,-17.82 -11.87,-29.69 -59.41,-53.42 -118.77,-112.8 -178.16,-178.14zm-5.95 13195.05c5.95,-5.95 11.87,-5.95 11.87,-11.87 53.44,-53.44 112.83,-106.9 166.27,-166.27 5.95,-5.95 11.87,-23.75 11.87,-35.64 0,-308.79 0,-611.65 0,-920.44 0,-11.87 -5.95,-29.69 -17.82,-41.57 -47.51,-53.44 -100.95,-100.95 -154.39,-154.39 -5.95,-5.95 -11.87,-11.87 -17.82,-11.87 0.02,451.31 0.02,890.74 0.02,1342.05zm5.95 -17773.51c65.31,-65.31 124.7,-118.77 178.16,-178.16 5.95,-5.95 11.87,-17.82 11.87,-29.69 0,-308.79 0,-617.6 0,-920.44 0,-11.87 -5.95,-29.69 -17.82,-41.57 -41.57,-41.57 -83.13,-83.13 -130.65,-130.65 -11.87,-11.87 -23.75,-29.69 -35.64,-41.57 0,0 -5.95,5.95 -5.95,5.95 0.02,439.41 0.02,884.8 0.02,1336.13zm-77.21 13462.27c-11.87,11.87 -17.82,11.87 -17.82,17.82 -53.44,53.44 -106.9,100.95 -154.39,160.34 -11.87,11.87 -17.82,29.69 -17.82,41.57 0,148.47 0,290.99 0,439.44 0,11.87 5.95,29.69 17.82,41.57 47.51,53.44 106.9,106.9 154.39,160.34 5.95,5.95 11.87,11.87 17.82,17.82 0,-302.86 0,-587.9 0,-878.89zm0 -5059.49c0,-290.99 0,-576.03 0,-867 -5.95,5.95 -11.87,5.95 -11.87,11.87 -59.39,59.39 -112.83,112.83 -172.21,172.21 -5.95,5.95 -11.87,17.82 -11.87,29.69 0,148.47 0,296.91 0,439.44 0,11.87 5.95,29.69 17.82,35.64 47.51,53.44 100.95,100.95 154.39,154.39 5.93,5.93 11.87,11.87 23.75,23.75zm0 -6793.48c-5.95,0 -11.87,5.95 -11.87,5.95 -59.39,59.39 -118.77,118.77 -172.21,172.21 -5.95,5.95 -11.87,17.82 -11.87,29.69 0,148.47 0,290.99 0,439.44 0,11.87 5.95,29.69 17.82,41.57 53.44,53.44 106.9,106.9 160.34,160.34 5.95,5.95 11.87,11.87 17.82,11.87 -0.02,-285.06 -0.02,-570.11 -0.02,-861.07zm0 18646.46c0,-290.99 0,-576.03 0,-867 -5.95,5.95 -11.87,5.95 -11.87,11.87 -59.39,59.39 -112.83,112.83 -172.21,172.21 -5.95,5.95 -11.87,17.82 -11.87,29.69 0,148.47 0,296.91 0,439.44 0,11.87 5.95,29.69 17.82,35.64 47.51,53.44 100.95,100.95 154.39,154.39 5.93,5.95 11.87,11.87 23.75,23.75z"/>
    </g>
    <g>
     <path class="fil0" d="M11.92 40636.27c0,-23.75 0,-41.57 0,-65.31 11.87,5.95 17.82,11.87 29.69,17.82 154.39,-154.39 308.79,-308.79 457.26,-457.26 -71.26,-71.26 -136.57,-136.57 -207.83,-207.83 -77.21,77.21 -166.27,166.27 -249.42,249.42 -11.87,-5.95 -17.82,-11.87 -29.69,-17.82 0,-23.75 0,-47.51 0,-71.26 11.87,5.95 17.82,17.82 29.69,17.82 71.26,-71.26 142.52,-142.52 213.78,-213.78 -65.31,-65.31 -136.57,-136.57 -207.83,-207.83 -11.87,11.87 -17.82,17.82 -29.69,29.69 0,-41.57 0,-83.13 0,-124.7 5.95,5.95 11.87,5.95 23.75,11.87 0,-17.82 0,-23.75 0,-35.64 0,-118.77 0,-243.47 0,-362.25 0,-17.82 -5.95,-29.69 -23.75,-41.57 0,-23.75 0,-41.57 0,-65.31 5.95,0 11.87,5.95 23.75,11.87 0,-11.87 0,-23.75 0,-29.69 0,-118.77 0,-237.53 0,-356.3 0,-17.82 0,-35.64 -23.75,-47.51 0,-23.75 0,-41.57 0,-65.31 5.95,0 11.87,5.95 23.75,11.87 0,-11.87 0,-23.75 0,-35.64 0,-118.77 0,-237.53 0,-356.3 0,-17.82 0,-41.57 -23.75,-47.51 0,-23.75 0,-41.57 0,-65.31 5.95,0 11.87,5.95 17.82,11.87 0,-130.65 0,-261.3 0,-391.94 -11.87,0 -11.87,5.95 -17.82,11.87 0,-41.57 0,-77.21 0,-118.77 11.87,11.87 23.75,23.75 35.64,29.69 71.26,-71.26 142.52,-142.52 207.83,-207.83 -77.21,-77.21 -160.34,-160.34 -237.53,-249.42 0,-23.75 0,-41.57 0,-65.31 5.95,5.95 17.82,11.87 23.75,17.82 77.21,77.21 160.34,160.34 237.53,237.53 5.95,5.95 11.87,11.87 17.82,17.82 71.26,-71.26 142.52,-142.52 213.78,-213.78 -17.82,-17.82 -41.57,-35.64 -59.39,-53.44 -142.52,-142.52 -290.99,-290.99 -433.51,-433.51 0,-23.75 0,-41.57 0,-65.31 11.87,5.95 17.82,11.87 23.75,17.82 160.34,160.34 320.68,320.68 486.95,486.95 5.95,5.95 11.87,11.87 17.82,17.82 71.26,-71.26 142.52,-142.52 213.78,-207.83 -243.47,-243.47 -492.88,-486.95 -736.35,-736.35 0,-23.75 0,-41.57 0,-65.31 11.87,5.95 17.82,11.87 29.69,23.75 243.47,243.47 486.95,486.95 730.42,730.42 5.95,5.95 17.82,11.87 17.82,17.82 71.26,-71.26 142.52,-142.52 207.83,-207.83 -314.74,-314.74 -635.4,-635.4 -956.08,-956.08 -5.95,5.95 -17.82,11.87 -23.75,17.82 0,-23.75 0,-41.57 0,-65.31 0,-5.95 5.95,-17.82 5.95,-23.75 0,-130.65 0,-261.3 0,-386 0,-5.95 0,-17.82 -5.95,-23.75 0,-41.57 0,-83.13 0,-124.7 11.87,11.87 17.82,17.82 29.69,23.75 237.53,-237.53 475.08,-475.08 706.66,-706.66 -65.31,-71.26 -136.57,-136.57 -207.83,-207.83 -160.34,160.34 -326.61,326.61 -492.88,498.82 -11.87,-11.87 -17.82,-17.82 -29.69,-23.75 0,-23.75 0,-41.57 0,-65.31 11.87,5.95 17.82,11.87 29.69,17.82 154.39,-154.39 308.79,-308.79 457.26,-457.26 -71.26,-71.26 -136.57,-136.57 -207.83,-207.83 -77.21,77.21 -166.27,166.27 -249.42,249.42 -11.87,-5.95 -17.82,-11.87 -29.69,-17.82 0,-23.75 0,-47.51 0,-71.26 11.87,5.95 17.82,17.82 29.69,17.82 71.26,-71.26 142.52,-142.52 213.78,-213.78 -65.31,-65.31 -136.57,-136.57 -207.83,-207.83 -11.87,11.87 -17.82,17.82 -29.69,29.69 0,-41.57 0,-83.13 0,-124.7 5.95,5.95 11.87,5.95 23.75,11.87 0,-17.82 0,-23.75 0,-35.64 0,-118.77 0,-243.47 0,-362.25 0,-17.82 -5.95,-29.69 -23.75,-41.57 0,-23.75 0,-41.57 0,-65.31 5.95,0 11.87,5.95 23.75,11.87 0,-11.87 0,-23.75 0,-29.69 0,-118.77 0,-237.53 0,-356.3 0,-17.82 0,-35.64 -23.75,-47.51 0,-23.75 0,-41.57 0,-65.31 5.95,0 11.87,5.95 23.75,11.87 0,-11.87 0,-23.75 0,-35.64 0,-118.77 0,-237.53 0,-356.3 0,-17.82 0,-41.57 -23.75,-47.51 0,-23.75 0,-41.57 0,-65.31 5.95,0 11.87,5.95 17.82,11.87 0,-130.65 0,-261.3 0,-391.94 -11.87,0 -11.87,5.95 -17.82,11.87 0,-41.57 0,-77.21 0,-118.77 11.87,11.87 23.75,23.75 35.64,29.69 71.26,-71.26 142.52,-142.52 207.83,-207.83 -77.21,-77.21 -160.34,-160.34 -237.53,-249.42 0,-23.75 0,-41.57 0,-65.31 5.95,5.95 17.82,11.87 23.75,17.82 77.21,77.21 160.34,160.34 237.53,237.53 5.95,5.95 11.87,11.87 17.82,17.82 71.26,-71.26 142.52,-142.52 213.78,-213.78 -17.82,-17.82 -41.57,-35.64 -59.39,-53.44 -142.52,-142.52 -290.99,-290.99 -433.51,-433.51 0,-23.75 0,-41.57 0,-65.31 11.87,5.95 17.82,11.87 23.75,17.82 160.34,160.34 320.68,320.68 486.95,486.95 5.95,5.95 11.87,11.87 17.82,17.82 71.26,-71.26 142.52,-142.52 213.78,-213.78 -243.47,-243.47 -492.88,-486.95 -736.35,-736.35 0,-23.75 0,-41.57 0,-65.31 11.87,5.95 17.82,11.87 29.69,23.75 243.47,243.47 486.95,486.95 730.42,730.42 5.95,5.95 17.82,11.87 17.82,17.82 71.26,-71.26 142.52,-142.52 207.83,-207.83 -314.74,-314.74 -635.4,-635.4 -956.08,-956.08 -5.95,5.95 -17.82,11.87 -23.75,17.82 0,-23.75 0,-41.57 0,-65.31 0,-5.95 5.95,-17.82 5.95,-23.75 0,-130.65 0,-261.3 0,-386 0,-5.95 0,-17.82 -5.95,-23.75 0,-41.57 0,-83.13 0,-124.7 11.87,11.87 17.82,17.82 29.69,23.75 237.53,-237.53 475.08,-475.08 706.66,-706.66 -65.31,-71.26 -136.57,-136.57 -207.83,-207.83 -160.34,160.34 -326.61,326.61 -492.88,498.82 -11.87,-11.87 -17.82,-17.82 -29.69,-23.75 0,-23.75 0,-41.57 0,-65.31 11.87,5.95 17.82,11.87 29.69,17.82 154.39,-154.39 308.79,-308.79 457.26,-457.26 -71.26,-71.26 -136.57,-136.57 -207.83,-207.83 -77.21,77.21 -166.27,166.27 -249.42,249.42 -11.87,-5.95 -17.82,-11.87 -29.69,-17.82 0,-23.75 0,-47.51 0,-71.26 11.87,5.95 17.82,17.82 29.69,17.82 71.26,-71.26 142.52,-142.52 213.78,-213.78 -65.31,-65.31 -136.57,-136.57 -207.83,-207.83 -11.87,11.87 -17.82,17.82 -29.69,29.69 0,-41.57 0,-83.13 0,-124.7 5.95,5.95 11.87,5.95 23.75,11.87 0,-17.82 0,-23.75 0,-35.64 0,-118.77 0,-243.47 0,-362.25 0,-17.82 -5.95,-29.69 -23.75,-41.57 0,-23.75 0,-41.57 0,-65.31 5.95,0 11.87,5.95 23.75,11.87 0,-11.87 0,-23.75 0,-29.69 0,-118.77 0,-237.53 0,-356.3 0,-17.82 0,-35.64 -23.75,-47.51 0,-23.75 0,-41.57 0,-65.31 5.95,0 11.87,5.95 23.75,11.87 0,-11.87 0,-23.75 0,-35.64 0,-118.77 0,-237.53 0,-356.3 0,-17.82 0,-41.57 -23.75,-47.51 0,-23.75 0,-41.57 0,-65.31 5.95,0 11.87,5.95 17.82,11.87 0,-130.65 0,-261.3 0,-391.94 -11.87,0 -11.87,5.95 -17.82,11.87 0,-41.57 0,-77.21 0,-118.77 11.87,11.87 23.75,23.75 35.64,29.69 71.26,-71.26 142.52,-142.52 207.83,-207.83 -77.21,-77.21 -160.34,-160.34 -237.53,-249.42 0,-23.75 0,-41.57 0,-65.31 5.95,5.95 17.82,11.87 23.75,17.82 77.21,77.21 160.34,160.34 237.53,237.53 5.95,5.95 11.87,11.87 17.82,17.82 71.26,-71.26 142.52,-142.52 213.78,-213.78 -17.82,-17.82 -41.57,-35.64 -59.39,-53.44 -142.52,-142.52 -290.99,-290.99 -433.51,-433.51 0,-23.75 0,-41.57 0,-65.31 11.87,5.95 17.82,11.87 23.75,17.82 160.34,160.34 320.68,320.68 486.95,486.95 5.95,5.95 11.87,11.87 17.82,17.82 71.26,-71.26 142.52,-142.52 213.78,-207.83 -243.47,-243.47 -492.88,-486.95 -736.35,-736.35 0,-23.75 0,-41.57 0,-65.31 11.87,5.95 17.82,11.87 29.69,23.75 243.47,243.47 486.95,486.95 730.42,730.42 5.95,5.95 17.82,11.87 17.82,17.82 71.26,-71.26 142.52,-142.52 207.83,-207.83 -314.74,-314.74 -635.4,-635.4 -956.08,-956.08 -5.95,5.95 -17.82,11.87 -23.75,17.82 0,-59.39 0,-124.7 0,-190.04 17.82,0 35.64,0 53.44,0 0,29.69 0,65.31 0,95.01 0,11.87 5.95,29.69 17.82,41.57 53.44,53.44 106.9,106.9 160.34,160.34 5.95,5.95 11.87,11.87 17.82,17.82 0,-106.9 0,-207.83 0,-308.79 17.82,0 29.69,0 47.51,0 0,112.83 0,231.6 0,344.43 0,11.87 5.95,29.69 11.87,35.64 53.44,53.44 106.9,106.9 160.34,160.34 5.95,5.95 11.87,5.95 17.82,11.87 0,-77.21 0,-148.47 0,-213.78 0,-112.83 0,-225.65 0,-338.48 17.82,0 29.69,0 47.51,0 0,201.91 0,397.87 0,593.83 0,11.87 5.95,23.75 11.87,29.69 53.44,53.44 106.9,106.9 160.34,160.34 5.95,5.95 11.87,5.95 17.82,11.87 0,-17.82 0,-29.69 0,-41.57 0,-243.47 0,-486.95 0,-730.42 0,-11.87 0,-23.75 0,-35.64 11.87,0 29.69,0 41.57,0 0,11.87 0,23.75 0,41.57 0,261.3 0,522.57 0,789.81 0,11.87 0,29.69 11.87,41.57 65.31,65.31 130.65,130.65 195.96,195.96 0,41.57 0,83.13 0,124.7 -59.39,59.39 -112.83,118.77 -172.21,184.09 53.44,53.44 112.83,112.83 172.21,172.21 0,23.75 0,41.57 0,65.31 -41.57,-41.57 -83.13,-77.21 -124.7,-118.77 -29.69,-29.69 -59.39,-59.39 -83.13,-83.13 -71.26,71.26 -142.52,142.52 -207.83,207.83 0,0 5.95,5.95 11.87,11.87 130.65,130.65 261.3,261.3 391.94,391.94 5.95,5.95 11.87,5.95 17.82,11.87 0,23.75 0,47.51 0,71.26 -5.95,-5.95 -17.82,-11.87 -23.75,-17.82 -136.57,-136.57 -273.17,-273.17 -409.74,-409.74 -11.87,-11.87 -11.87,-17.82 -17.82,-23.75 -77.21,77.21 -142.52,148.47 -213.78,213.78 0,0 5.95,5.95 11.87,11.87 213.78,213.78 427.56,427.56 635.4,635.4 5.95,5.95 11.87,11.87 17.82,11.87 0,23.75 0,47.51 0,71.26 -11.87,-11.87 -17.82,-17.82 -23.75,-23.75 -219.73,-219.73 -433.51,-433.51 -653.22,-653.22 -11.87,-11.87 -17.82,-17.82 -17.82,-17.82 -71.26,71.26 -142.52,142.52 -207.83,207.83 5.95,5.95 11.87,11.87 17.82,17.82 219.73,219.73 433.51,433.51 653.22,653.22 77.21,77.21 160.34,160.34 237.53,237.53 0,23.75 0,41.57 0,65.31 -5.95,-5.95 -17.82,-11.87 -23.75,-17.82 -130.65,-130.65 -255.35,-255.35 -386,-386 -5.95,-5.95 -11.87,-17.82 -11.87,-29.69 0,0 -5.95,5.95 -11.87,11.87 0,285.04 0,564.14 0,849.18 0,0 5.95,0 5.95,5.95 5.95,-5.95 11.87,-17.82 17.82,-23.75 130.65,-130.65 255.35,-255.35 380.05,-380.05 5.95,-5.95 17.82,-11.87 23.75,-17.82 0,23.75 0,41.57 0,65.31 -11.87,11.87 -17.82,17.82 -23.75,23.75 -148.47,148.47 -296.91,296.91 -445.38,445.38 -142.52,142.52 -279.09,279.09 -421.61,421.61 -5.95,5.95 -11.87,17.82 -17.82,17.82 71.26,71.26 142.52,142.52 213.78,213.78 5.95,-11.87 11.87,-17.82 17.82,-29.69 219.73,-219.73 433.51,-439.44 653.22,-653.22 5.95,-5.95 17.82,-11.87 23.75,-17.82 0,23.75 0,47.51 0,71.26 -5.95,5.95 -11.87,11.87 -17.82,17.82 -207.83,207.83 -421.61,421.61 -629.47,629.47 -5.95,5.95 -11.87,11.87 -17.82,17.82 71.26,71.26 142.52,142.52 207.83,207.83 5.95,-5.95 11.87,-11.87 23.75,-17.82 136.57,-136.57 273.17,-273.17 409.74,-409.74 5.95,-5.95 17.82,-11.87 23.75,-17.82 0,23.75 0,47.51 0,71.26 -5.95,5.95 -11.87,11.87 -17.82,11.87 -130.65,130.65 -261.3,261.3 -391.94,391.94 -5.95,5.95 -11.87,11.87 -11.87,11.87 71.26,71.26 142.52,142.52 207.83,207.83 47.51,-47.51 106.9,-106.9 160.34,-160.34 17.82,-17.82 29.69,-29.69 47.51,-41.57 0,23.75 0,41.57 0,65.31 -59.39,59.39 -118.77,118.77 -172.21,172.21 59.39,59.39 118.77,118.77 172.21,178.16 0,23.75 0,41.57 0,65.31 -5.95,-5.95 -17.82,-11.87 -23.75,-17.82 -53.44,-53.44 -106.9,-106.9 -160.34,-160.34 -5.95,-5.95 -11.87,-11.87 -23.75,-17.82 0,17.82 0,29.69 0,41.57 0,350.35 0,700.73 0,1051.09 0,267.22 0,534.46 0,807.61 0,11.87 0,29.69 11.87,41.57 65.31,65.31 130.65,130.65 195.96,195.96 0,41.57 0,83.13 0,124.7 -59.39,59.39 -112.83,118.77 -172.21,184.09 53.44,53.44 112.83,112.83 172.21,172.21 0,23.75 0,41.57 0,65.31 -41.57,-41.57 -83.13,-77.21 -124.7,-118.77 -29.69,-29.69 -59.39,-59.39 -83.13,-83.13 -71.26,71.26 -142.52,142.52 -207.83,207.83 0,0 5.95,5.95 11.87,11.87 130.65,130.65 261.3,261.3 391.94,391.94 5.95,5.95 11.87,5.95 17.82,11.87 0,23.75 0,47.51 0,71.26 -5.95,-5.95 -17.82,-11.87 -23.75,-17.82 -136.57,-136.57 -273.17,-273.17 -409.74,-409.74 -11.87,-11.87 -11.87,-17.82 -17.82,-23.75 -77.21,77.21 -142.52,148.47 -213.78,213.78 0,0 5.95,5.95 11.87,11.87 213.78,213.78 427.56,427.56 635.4,635.4 5.95,5.95 11.87,11.87 17.82,11.87 0,23.75 0,47.51 0,71.26 -11.87,-11.87 -17.82,-17.82 -23.75,-23.75 -219.73,-219.73 -433.51,-433.51 -653.22,-653.22 -11.87,-11.87 -17.82,-17.82 -17.82,-17.82 -71.26,71.26 -142.52,142.52 -207.83,207.83 5.95,5.95 11.87,11.87 17.82,17.82 219.73,219.73 433.51,433.51 653.22,653.22 77.21,77.21 160.34,160.34 237.53,237.53 0,23.75 0,41.57 0,65.31 -5.95,-5.95 -17.82,-11.87 -23.75,-17.82 -130.65,-130.65 -255.35,-255.35 -386,-386 -5.95,-5.95 -11.87,-17.82 -11.87,-29.69 0,0 -5.95,5.95 -11.87,11.87 0,285.04 0,564.14 0,849.18 0,0 5.95,0 5.95,0 5.95,-5.95 11.87,-11.87 17.82,-17.82 130.65,-130.65 255.35,-255.35 380.05,-380.05 5.95,-5.95 17.82,-11.87 23.75,-17.82 0,23.75 0,41.57 0,65.31 -11.87,11.87 -17.82,17.82 -23.75,23.75 -148.47,148.47 -296.91,296.91 -445.38,445.38 -142.52,142.52 -279.09,279.09 -421.61,421.61 -5.95,5.95 -11.87,17.82 -17.82,17.82 71.26,71.26 142.52,142.52 213.78,213.78 5.95,-11.87 11.87,-17.82 17.82,-29.69 219.73,-219.73 433.51,-439.44 653.22,-653.22 5.95,-5.95 17.82,-11.87 23.75,-17.82 0,23.75 0,47.51 0,71.26 -5.95,5.95 -11.87,11.87 -17.82,17.82 -207.83,207.83 -421.61,421.61 -629.47,629.47 -5.95,5.95 -11.87,11.87 -17.82,17.82 71.26,71.26 142.52,142.52 207.83,207.83 5.95,-5.95 11.87,-11.87 23.75,-17.82 136.57,-136.57 273.17,-273.17 409.74,-409.74 5.95,-5.95 17.82,-11.87 23.75,-17.82 0,23.75 0,47.51 0,71.26 -5.95,5.95 -11.87,11.87 -17.82,11.87 -130.65,130.65 -261.3,261.3 -391.94,391.94 -5.95,5.95 -11.87,11.87 -11.87,11.87 71.26,71.26 142.52,142.52 207.83,207.83 47.51,-47.51 106.9,-106.9 160.34,-160.34 17.82,-17.82 29.69,-29.69 47.51,-41.57 0,23.75 0,41.57 0,65.31 -59.39,59.39 -118.77,118.77 -172.21,172.21 59.39,59.39 118.77,118.77 172.21,178.16 0,23.75 0,41.57 0,65.31 -5.95,-5.95 -17.82,-11.87 -23.75,-17.82 -53.44,-53.44 -106.9,-106.9 -160.34,-160.34 -5.95,-5.95 -11.87,-11.87 -23.75,-17.82 0,17.82 0,29.69 0,41.57 0,350.35 0,700.73 0,1051.09 0,267.22 0,534.46 0,807.61 0,11.87 0,29.69 11.87,41.57 65.31,65.31 130.65,130.65 195.96,195.96 0,41.57 0,83.13 0,124.7 -59.39,59.39 -112.83,118.77 -172.21,184.09 53.44,53.44 112.83,112.83 172.21,172.21 0,23.75 0,41.57 0,65.31 -41.57,-41.57 -83.13,-77.21 -124.7,-118.77 -29.69,-29.69 -59.39,-59.39 -83.13,-83.13 -71.26,71.26 -142.52,142.52 -207.83,207.83 0,0 5.95,5.95 11.87,11.87 130.65,130.65 261.3,261.3 391.94,391.94 5.95,5.95 11.87,5.95 17.82,11.87 0,23.75 0,47.51 0,71.26 -5.95,-5.95 -17.82,-11.87 -23.75,-17.82 -136.57,-136.57 -273.17,-273.17 -409.74,-409.74 -11.87,-11.87 -11.87,-17.82 -17.82,-23.75 -77.21,77.21 -142.52,148.47 -213.78,213.78 0,0 5.95,5.95 11.87,11.87 213.78,213.78 427.56,427.56 635.4,635.4 5.95,5.95 11.87,11.87 17.82,11.87 0,23.75 0,47.51 0,71.26 -11.87,-11.87 -17.82,-17.82 -23.75,-23.75 -219.73,-219.73 -433.51,-433.51 -653.22,-653.22 -11.87,-11.87 -17.82,-17.82 -17.82,-17.82 -71.26,71.26 -142.52,142.52 -207.83,207.83 5.95,5.95 11.87,11.87 17.82,17.82 219.73,219.73 433.51,433.51 653.22,653.22 77.21,77.21 160.34,160.34 237.53,237.53 0,23.75 0,41.57 0,65.31 -5.95,-5.95 -17.82,-11.87 -23.75,-17.82 -130.65,-130.65 -255.35,-255.35 -386,-386 -5.95,-5.95 -11.87,-17.82 -11.87,-29.69 0,0 -5.95,5.95 -11.87,11.87 0,285.04 0,564.14 0,855.12 11.87,-11.87 17.82,-17.82 23.75,-23.75 130.65,-130.65 255.35,-255.35 380.05,-380.05 5.95,-5.95 17.82,-11.87 23.75,-17.82 0,23.75 0,41.57 0,65.31 -11.87,11.87 -17.82,17.82 -23.75,23.75 -148.47,148.47 -296.91,296.91 -445.38,445.38 -142.52,142.52 -279.09,279.09 -421.61,421.61 -5.95,5.95 -11.87,17.82 -17.82,17.82 71.26,71.26 142.52,142.52 213.78,213.78 5.95,-11.87 11.87,-17.82 17.82,-29.69 219.73,-219.73 433.51,-439.44 653.22,-653.22 5.95,-5.95 17.82,-11.87 23.75,-17.82 0,23.75 0,47.51 0,71.26 -5.95,5.95 -11.87,11.87 -17.82,17.82 -207.83,207.83 -421.61,421.61 -629.47,629.47 -5.95,5.95 -11.87,11.87 -17.82,17.82 71.26,71.26 142.52,142.52 207.83,207.83 5.95,-5.95 11.87,-11.87 23.75,-17.82 136.57,-136.57 273.17,-273.17 409.74,-409.74 5.95,-5.95 17.82,-11.87 23.75,-17.82 0,23.75 0,47.51 0,71.26 -5.95,5.95 -11.87,11.87 -17.82,11.87 -130.65,130.65 -261.3,261.3 -391.94,391.94 -5.95,5.95 -11.87,11.87 -11.87,11.87 71.26,71.26 142.52,142.52 207.83,207.83 53.44,-53.44 106.9,-106.9 160.34,-160.34 17.82,-17.82 29.69,-29.69 47.51,-41.57 0,23.75 0,41.57 0,65.31 -59.39,59.39 -118.77,118.77 -172.21,172.21 59.39,59.39 118.77,118.77 172.21,178.16 0,23.75 0,41.57 0,65.31 -5.95,-5.95 -17.82,-11.87 -23.75,-17.82 -53.44,-53.44 -106.9,-106.9 -160.34,-160.34 -5.95,-5.95 -11.87,-11.87 -23.75,-17.82 0,17.82 0,29.69 0,41.57 0,350.35 0,700.73 0,1051.09 0,267.22 0,534.46 0,807.61 0,11.87 0,29.69 11.87,41.57 65.31,65.31 130.65,130.65 195.96,195.96 0,41.57 0,83.13 0,124.7 -59.39,59.39 -112.83,118.77 -172.21,184.09 53.44,53.44 112.83,112.83 172.21,172.21 0,23.75 0,41.57 0,65.31 -41.57,-41.57 -83.13,-77.21 -124.7,-118.77 -29.69,-29.69 -59.39,-59.39 -83.13,-83.13 -71.26,71.26 -142.52,142.52 -207.83,207.83 0,0 5.95,5.95 11.87,11.87 130.65,130.65 261.3,261.3 391.94,391.94 5.95,5.95 11.87,5.95 17.82,11.87 0,23.75 0,47.51 0,71.26 -5.95,-5.95 -17.82,-11.87 -23.75,-17.82 -136.57,-136.57 -273.17,-273.17 -409.74,-409.74 -11.87,-11.87 -11.87,-17.82 -17.82,-23.75 -77.21,77.21 -142.52,148.47 -213.78,213.78 0,0 5.95,5.95 11.87,11.87 213.78,213.78 427.56,427.56 635.4,635.4 5.95,5.95 11.87,11.87 17.82,11.87 0,23.75 0,47.51 0,71.26 -11.87,-11.87 -17.82,-17.82 -23.75,-23.75 -219.73,-219.73 -433.51,-433.51 -653.22,-653.22 -11.87,-11.87 -17.82,-17.82 -17.82,-17.82 -71.26,71.26 -142.52,142.52 -207.83,207.83 5.95,5.95 11.87,11.87 17.82,17.82 219.73,219.73 433.51,433.51 653.22,653.22 77.21,77.21 160.34,160.34 237.53,237.53 0,23.75 0,41.57 0,65.31 -5.95,-5.95 -17.82,-11.87 -23.75,-17.82 -130.65,-130.65 -255.35,-255.35 -386,-386 -5.95,-5.95 -11.87,-17.82 -11.87,-29.69 0,0 -5.95,5.95 -11.87,11.87 0,285.04 0,564.14 0,849.18 0,0 5.95,0 5.95,5.95 5.95,-5.95 11.87,-17.82 17.82,-23.75 130.65,-130.65 255.35,-255.35 380.05,-380.05 5.95,-5.95 17.82,-11.87 23.75,-17.82 0,23.75 0,41.57 0,65.31 -11.87,11.87 -17.82,17.82 -23.75,23.75 -148.47,148.47 -296.91,296.91 -445.38,445.38 -142.52,142.52 -279.09,279.09 -421.61,421.61 -5.95,5.95 -11.87,17.82 -17.82,17.82 71.26,71.26 142.52,142.52 213.78,213.78 5.95,-11.87 11.87,-17.82 17.82,-29.69 219.73,-219.73 433.51,-439.44 653.22,-653.22 5.95,-5.95 17.82,-11.87 23.75,-17.82 0,23.75 0,47.51 0,71.26 -5.95,5.95 -11.87,11.87 -17.82,17.82 -207.83,207.83 -421.61,421.61 -629.47,629.47 -5.95,5.95 -11.87,11.87 -17.82,17.82 71.26,71.26 142.52,142.52 207.83,207.83 5.95,-5.95 11.87,-11.87 23.75,-17.82 136.57,-136.57 273.17,-273.17 409.74,-409.74 5.95,-5.95 17.82,-11.87 23.75,-17.82 0,23.75 0,47.51 0,71.26 -5.95,5.95 -11.87,11.87 -17.82,11.87 -130.65,130.65 -261.3,261.3 -391.94,391.94 -5.95,5.95 -11.87,11.87 -11.87,11.87 71.26,71.26 142.52,142.52 207.83,207.83 53.44,-53.44 106.9,-106.9 160.34,-160.34 17.82,-17.82 29.69,-29.69 47.51,-41.57 0,23.75 0,41.57 0,65.31 -59.39,59.39 -118.77,118.77 -172.21,172.21 59.39,59.39 118.77,118.77 172.21,178.16 0,23.75 0,41.57 0,65.31 -5.95,-5.95 -17.82,-11.87 -23.75,-17.82 -53.44,-53.44 -106.9,-106.9 -160.34,-160.34 -5.95,-5.95 -11.87,-11.87 -23.75,-17.82 0,17.82 0,29.69 0,41.57 0,350.35 0,700.73 0,1051.09 0,267.22 0,534.46 0,807.61 0,11.87 0,29.69 11.87,41.57 65.31,65.31 130.65,130.65 195.96,195.96 0,41.57 0,83.13 0,124.7 -59.39,59.39 -112.83,118.77 -172.21,184.09 53.44,53.44 112.83,112.83 172.21,172.21 0,23.75 0,41.57 0,65.31 -41.57,-41.57 -83.13,-77.21 -124.7,-118.77 -29.69,-29.69 -59.39,-59.39 -83.13,-83.13 -71.26,71.26 -142.52,142.52 -207.83,207.83 0,0 5.95,5.95 11.87,11.87 130.65,130.65 261.3,261.3 391.94,391.94 5.95,5.95 11.87,5.95 17.82,11.87 0,23.75 0,47.51 0,71.26 -5.95,-5.95 -17.82,-11.87 -23.75,-17.82 -136.57,-136.57 -273.17,-273.17 -409.74,-409.74 -11.87,-11.87 -11.87,-17.82 -17.82,-23.75 -77.21,77.21 -142.52,148.47 -213.78,213.78 0,0 5.95,5.95 11.87,11.87 213.78,213.78 427.56,427.56 635.4,635.4 5.95,5.95 11.87,11.87 17.82,11.87 0,23.75 0,47.51 0,71.26 -11.87,-11.87 -17.82,-17.82 -23.75,-23.75 -219.73,-219.73 -433.51,-433.51 -653.22,-653.22 -11.87,-11.87 -11.87,-17.82 -17.82,-23.75 -77.21,77.21 -142.52,142.52 -219.73,219.73 5.95,5.95 11.87,11.87 17.82,17.82 154.39,154.39 308.79,308.79 457.26,457.26 5.95,5.95 11.87,17.82 17.82,23.75 -23.75,0 -47.51,0 -71.26,0 -5.95,-5.95 -11.87,-17.82 -17.82,-23.75 -47.51,-47.51 -95.01,-95.01 -142.52,-142.52 -5.95,-11.87 -11.87,-17.82 -17.82,-29.69 -5.95,0 -11.87,5.95 -11.87,11.87 0,59.39 0,124.7 0,190.04 -17.82,0 -29.69,0 -47.51,0 0,-77.21 0,-148.47 0,-225.65 0,-11.87 -5.95,-29.69 -11.87,-35.64 -59.39,-59.39 -112.83,-118.77 -172.21,-172.21 -11.99,-106.65 -11.99,-106.65 -23.86,-112.58 0,17.82 0,23.75 0,35.64 0,136.57 0,273.17 0,409.74 -23.75,0 -47.51,0 -71.26,0 0,-23.75 0,-47.51 0,-77.21 5.95,0 11.87,5.95 17.82,11.87 0,-130.65 0,-261.3 0,-391.94 -11.87,0 -11.87,5.95 -17.82,11.87 0,-41.57 0,-77.21 0,-118.77 11.87,11.87 23.75,23.75 35.64,29.69 71.26,-71.26 142.52,-142.52 207.83,-207.83 -77.21,-77.21 -160.34,-160.34 -237.53,-249.42 0,-23.75 0,-41.57 0,-65.31 5.95,5.95 17.82,11.87 23.75,17.82 77.21,77.21 160.34,160.34 237.53,237.53 5.95,5.95 11.87,11.87 17.82,17.82 71.26,-71.26 142.52,-142.52 213.78,-213.78 -17.82,-17.82 -41.57,-35.64 -59.39,-53.44 -142.52,-142.52 -290.99,-290.99 -433.51,-433.51 0,-23.75 0,-41.57 0,-65.31 11.87,5.95 17.82,11.87 23.75,17.82 160.34,160.34 320.68,320.68 486.95,486.95 5.95,5.95 11.87,11.87 17.82,17.82 71.26,-71.26 142.52,-142.52 213.78,-213.78 -243.47,-243.47 -492.88,-486.95 -736.35,-736.35 0,-23.75 0,-41.57 0,-65.31 11.87,5.95 17.82,11.87 29.69,23.75 243.47,243.47 486.95,486.95 730.42,730.42 5.95,5.95 17.82,11.87 17.82,17.82 71.26,-71.26 142.52,-142.52 207.83,-207.83 -314.74,-314.74 -635.4,-635.4 -956.08,-956.08 -5.95,5.95 -17.82,11.87 -23.75,17.82 0,-23.75 0,-41.57 0,-65.31 0,-5.95 5.95,-17.82 5.95,-23.75 0,-130.65 0,-261.3 0,-386 0,-5.95 0,-17.82 -5.95,-23.75 0,-41.57 0,-83.13 0,-124.7 11.87,11.87 17.82,17.82 29.69,23.75 237.53,-237.53 475.08,-475.08 706.66,-706.66 -65.31,-71.26 -136.57,-136.57 -207.83,-207.83 -160.34,160.34 -326.61,326.61 -492.88,498.82 -11.87,-11.87 -17.82,-17.82 -29.69,-23.75 0,-23.75 0,-41.57 0,-65.31 11.87,5.95 17.82,11.87 29.69,17.82 154.39,-154.39 308.79,-308.79 457.26,-457.26 -71.26,-71.26 -136.57,-136.57 -207.83,-207.83 -77.21,77.21 -166.27,166.27 -249.42,249.42 -11.87,-5.95 -17.82,-11.87 -29.69,-17.82 0,-23.75 0,-47.51 0,-71.26 11.87,5.95 17.82,17.82 29.69,17.82 71.26,-71.26 142.52,-142.52 213.78,-213.78 -65.31,-65.31 -136.57,-136.57 -207.83,-207.83 -11.87,11.87 -17.82,17.82 -29.69,29.69 0,-41.57 0,-83.13 0,-124.7 5.95,5.95 11.87,5.95 23.75,11.87 0,-17.82 0,-23.75 0,-35.64 0,-118.77 0,-243.47 0,-362.25 0,-17.82 -5.95,-29.69 -23.75,-41.57 0,-23.75 0,-41.57 0,-65.31 5.95,0 11.87,5.95 23.75,11.87 0,-11.87 0,-23.75 0,-29.69 0,-118.77 0,-237.53 0,-356.3 0,-17.82 0,-35.64 -23.75,-47.51 0,-23.75 0,-41.57 0,-65.31 5.95,0 11.87,5.95 23.75,11.87 0,-11.87 0,-23.75 0,-35.64 0,-118.77 0,-237.53 0,-356.3 0,-17.82 0,-41.57 -23.75,-47.51 0,-23.75 0,-41.57 0,-65.31 5.95,0 11.87,5.95 17.82,11.87 0,-130.65 0,-261.3 0,-391.94 -11.87,0 -11.87,5.95 -17.82,11.87 0,-41.57 0,-77.21 0,-118.77 11.87,11.87 23.75,23.75 35.64,29.69 71.26,-71.26 142.52,-142.52 207.83,-207.83 -77.21,-77.21 -160.34,-160.34 -237.53,-249.42 0,-23.75 0,-41.57 0,-65.31 5.95,5.95 17.82,11.87 23.75,17.82 77.21,77.21 160.34,160.34 237.53,237.53 5.95,5.95 11.87,11.87 17.82,17.82 71.26,-71.26 142.52,-142.52 213.78,-213.78 -17.82,-17.82 -41.57,-35.64 -59.39,-53.44 -142.52,-142.52 -290.99,-290.99 -433.51,-433.51 0,-23.75 0,-41.57 0,-65.31 11.87,5.95 17.82,11.87 23.75,17.82 160.34,160.34 320.68,320.68 486.95,486.95 5.95,5.95 11.87,11.87 17.82,17.82 71.26,-71.26 142.52,-142.52 213.78,-207.83 -243.47,-243.47 -492.88,-486.95 -736.35,-736.35 0,-23.75 0,-41.57 0,-65.31 11.87,5.95 17.82,11.87 29.69,23.75 243.47,243.47 486.95,486.95 730.42,730.42 5.95,5.95 17.82,11.87 17.82,17.82 71.26,-71.26 142.52,-142.52 207.83,-207.83 -362.27,-344.59 -682.93,-665.27 -1003.62,-979.98 -5.95,5.95 -17.82,11.87 -23.75,17.82 0,-23.75 0,-41.57 0,-65.31 0,-5.95 5.95,-17.82 5.95,-23.75 0,-130.65 0,-261.3 0,-386 0,-5.95 0,-17.82 -5.95,-23.75 0,-41.57 0,-83.13 0,-124.7 11.87,11.87 17.82,17.82 29.69,23.75 237.53,-237.53 475.08,-475.08 706.66,-706.66 -71.26,-71.26 -136.57,-136.57 -207.83,-207.83 -160.34,160.34 -326.61,326.61 -492.88,498.82 -71.28,-29.74 -83.16,-41.63 -89.08,-47.56zm71.26 4869.45c5.95,0 5.95,0 11.87,-5.95 59.39,-59.39 118.77,-118.77 178.16,-178.16 5.95,-5.95 11.87,-17.82 11.87,-29.69 0,-469.13 0,-938.26 0,-1413.33 0,-11.87 -5.95,-23.75 -11.87,-29.69 -59.39,-59.39 -118.77,-118.77 -178.16,-178.16 0,0 -5.95,0 -11.87,-5.95 0,611.69 0,1223.37 0,1840.94zm0 -19626.3c0,617.6 0,1229.25 0,1846.82 5.95,0 11.87,-5.95 11.87,-5.95 59.39,-59.39 118.77,-118.77 178.16,-178.16 5.95,-5.95 11.87,-17.82 11.87,-29.69 0,-469.13 0,-938.26 0,-1407.39 0,-11.87 0,-17.82 -5.95,-29.69 -65.31,-65.29 -124.7,-124.68 -195.96,-195.94zm0 13699.82c5.95,0 11.87,-5.95 11.87,-5.95 59.39,-59.39 118.77,-118.77 178.16,-178.16 5.95,-5.95 11.87,-17.82 11.87,-29.69 0,-469.13 0,-938.26 0,-1407.39 0,-11.87 -5.95,-29.69 -17.82,-41.57 -53.44,-59.39 -106.9,-112.83 -166.27,-166.27 -5.95,-5.95 -11.87,-11.87 -17.82,-11.87 0,611.65 0,1223.3 0,1840.9zm0 -7773.33c0,617.6 0,1229.25 0,1846.82 5.95,0 5.95,0 11.87,-5.95 59.39,-59.39 118.77,-118.77 184.09,-184.09 5.95,-5.95 11.87,-17.82 11.87,-29.69 0,-469.13 0,-938.26 0,-1407.39 0,-11.87 0,-17.82 -5.95,-29.69 -71.24,-59.36 -130.63,-118.75 -201.89,-190.01zm671.04 14566.81c-59.39,59.39 -118.77,118.77 -178.16,178.16 -11.87,11.87 -17.82,29.69 -17.82,41.57 0,475.08 0,944.21 0,1419.26 0,11.87 5.95,29.69 17.82,41.57 53.44,53.44 106.9,106.9 160.34,160.34 5.95,5.95 11.87,11.87 17.82,17.82 0,-623.52 0,-1241.12 0,-1858.72zm0 -15920.76c0,-623.52 0,-1235.17 0,-1858.72 -59.39,59.39 -112.83,112.83 -172.21,172.21 -17.82,17.82 -23.75,35.64 -23.75,59.39 0,457.26 0,920.44 0,1377.69 0,41.57 11.87,71.26 41.57,100.95 53.44,41.59 100.93,95.03 154.39,148.47zm-5.95 5926.51c0,-623.52 0,-1235.17 0,-1858.72 -59.39,59.39 -112.83,112.83 -172.21,172.21 -17.82,17.82 -23.75,35.64 -23.75,59.39 0,433.51 0,872.95 0,1306.43 0,41.57 -11.87,89.08 5.95,124.7 17.82,35.64 53.44,59.39 83.13,89.08 41.57,35.64 71.26,71.26 106.88,106.9zm5.95 4067.77c-59.39,59.39 -106.9,112.83 -166.27,166.27 -23.75,17.82 -29.69,41.57 -29.69,71.26 0,112.83 0,231.6 0,344.43 0,350.35 0,700.73 0,1045.16 0,23.75 5.95,41.57 23.75,53.44 41.57,41.57 89.08,89.08 130.65,130.65 11.87,11.87 23.75,29.69 35.64,41.57 0,0 5.95,-5.95 5.95,-5.95 -0.02,-611.63 -0.02,-1229.22 -0.02,-1846.82zm-255.35 -4317.19c0,0 5.95,-5.95 5.95,-5.95 0,-451.31 0,-902.64 0,-1353.95 -5.95,0 -5.95,0 -11.87,5.95 -59.39,59.39 -118.77,118.77 -172.21,172.21 -5.97,5.95 -5.97,23.75 -5.97,29.69 0,308.79 0,623.52 0,932.33 0,11.87 5.95,29.69 17.82,41.57 41.57,47.51 89.08,89.08 130.65,130.65 11.87,17.8 23.75,35.62 35.64,47.49zm5.93 -5920.54c0,-457.26 0,-908.56 0,-1365.82 -11.87,11.87 -17.82,11.87 -23.75,17.82 -47.51,47.51 -95.01,95.01 -142.52,142.52 -17.82,17.82 -29.69,41.57 -29.69,65.31 0,290.99 0,576.03 0,861.07 0,59.39 11.87,100.95 59.39,136.57 47.49,47.49 89.06,89.06 136.57,142.52zm-5.93 11847.02c0,0 5.95,-5.95 11.87,-5.95 0,-451.31 0,-902.64 0,-1353.95 -5.95,0 -5.95,0 -11.87,5.95 -59.39,59.39 -118.77,118.77 -172.21,172.21 -11.9,11.87 -11.9,23.77 -11.9,29.69 0,314.74 0,623.52 0,938.26 0,11.87 5.95,23.75 17.82,35.64 35.64,41.57 71.26,71.26 106.9,112.83 17.8,23.75 41.57,41.57 59.39,65.31zm5.93 4566.61c-5.95,0 -5.95,0 -11.87,5.95 -59.39,59.39 -118.77,118.77 -172.21,172.21 -5.95,5.93 -5.95,23.75 -5.95,29.67 0,308.79 0,623.52 0,932.33 0,11.87 5.95,29.69 17.82,41.57 41.57,47.51 89.08,89.08 130.65,130.65 11.87,11.87 23.75,29.69 41.57,47.51 0,0 5.95,-5.95 5.95,-5.95 -5.95,-451.31 -5.95,-902.64 -5.95,-1353.95zm-166.27 -8640.33c0,451.31 0,896.69 0,1348 59.39,-59.39 118.77,-118.77 178.16,-178.16 5.95,-5.95 11.87,-17.82 11.87,-29.69 0,-308.79 0,-617.6 0,-926.39 0,-11.87 0,-17.82 -11.87,-29.69 -59.41,-59.36 -112.85,-118.73 -178.16,-184.07zm0 -5920.54c0,451.31 0,896.69 0,1342.07 59.39,-59.39 118.77,-118.77 178.16,-178.16 5.95,-5.95 11.87,-17.82 11.87,-29.69 0,-308.79 0,-617.6 0,-926.39 0,-11.87 0,-17.82 -11.87,-29.69 -59.41,-59.39 -118.77,-118.77 -178.16,-178.14zm-5.95 13195.05c5.95,-5.95 11.87,-5.95 11.87,-11.87 53.44,-53.44 112.83,-106.9 166.27,-166.27 5.95,-5.95 11.87,-23.75 11.87,-35.64 0,-308.79 0,-611.65 0,-920.44 0,-11.87 -5.95,-29.69 -17.82,-41.57 -47.51,-53.44 -100.95,-100.95 -154.39,-154.39 -5.95,-5.95 -11.87,-11.87 -17.82,-11.87 0.02,445.36 0.02,890.72 0.02,1342.05zm5.95 -17779.48c65.31,-65.31 124.7,-118.77 178.16,-178.16 5.95,-5.95 11.87,-17.82 11.87,-29.69 0,-308.79 0,-617.6 0,-920.44 0,-11.87 -5.95,-29.69 -17.82,-41.57 -41.57,-41.57 -83.13,-83.13 -130.65,-130.65 -11.87,-11.87 -23.75,-29.69 -35.64,-41.57 0,0 -5.95,5.95 -5.95,5.95 0.02,445.38 0.02,884.82 0.02,1336.13zm-77.21 13462.29c-11.87,11.87 -17.82,11.87 -17.82,17.82 -53.44,53.44 -106.9,100.95 -154.39,160.34 -11.87,11.87 -17.82,29.69 -17.82,41.57 0,148.47 0,290.99 0,439.44 0,11.87 5.95,29.69 17.82,41.57 47.51,53.44 106.9,106.9 154.39,160.34 5.95,5.95 11.87,11.87 17.82,17.82 0,-302.88 0,-587.93 0,-878.89zm0 -5053.56c0,-290.99 0,-576.03 0,-867 -5.95,5.95 -11.87,5.95 -11.87,11.87 -59.39,59.39 -112.83,112.83 -172.21,172.21 -5.95,5.95 -11.87,17.82 -11.87,29.69 0,148.47 0,296.91 0,439.44 0,11.87 5.95,29.69 17.82,35.64 47.51,53.44 100.95,100.95 154.39,154.39 5.93,5.93 11.87,11.87 23.75,23.75zm0 -6793.48c-5.95,0 -11.87,5.95 -11.87,5.95 -59.39,59.39 -118.77,118.77 -172.21,172.21 -5.95,5.95 -11.87,17.82 -11.87,29.69 0,148.47 0,290.99 0,439.44 0,11.87 5.95,29.69 17.82,41.57 53.44,53.44 106.9,106.9 160.34,160.34 5.95,5.95 11.87,11.87 17.82,11.87 -0.02,-285.06 -0.02,-570.11 -0.02,-861.07zm0 18640.53c0,-290.99 0,-576.03 0,-867 -5.95,5.95 -11.87,5.95 -11.87,11.87 -59.39,59.39 -112.83,112.83 -172.21,172.21 -5.95,5.95 -11.87,17.82 -11.87,29.69 0,148.47 0,296.91 0,439.44 0,11.87 5.95,29.69 17.82,35.64 47.51,53.44 100.95,100.95 154.39,154.39 5.93,5.93 11.87,11.87 23.75,23.75z"/>
    </g>
   </g>
  </g>
 </g>
</svg>
